<?xml version="1.0" encoding="utf-8"?>
<!-- Generator: Adobe Illustrator 26.0.1, SVG Export Plug-In . SVG Version: 6.00 Build 0)  -->
<svg version="1.1" id="Слой_1" xmlns="http://www.w3.org/2000/svg" xmlns:xlink="http://www.w3.org/1999/xlink" x="0px" y="0px"
	 viewBox="0 0 2138.9 2475.3" style="enable-background:new 0 0 2138.9 2475.3;" xml:space="preserve">
<style type="text/css">
	.st0{fill:url(#SVGID_1_);}
	.st1{fill:url(#SVGID_00000008835924929160846920000017600906198860630155_);}
	.st2{fill:#F0F0F0;}
	.st3{fill:#FFFFFF;}
	.st4{fill:url(#SVGID_00000116950704978639511280000009237085929369936563_);}
	.st5{fill:#DFE1E8;}
	.st6{fill:#EEF0F7;}
	.st7{fill:#3C4145;}
	.st8{fill:#EEA886;}
	.st9{fill:#E55353;}
	.st10{fill:#A77860;}
	.st11{fill:#BD4444;}
	.st12{fill:#D9C7C1;}
	.st13{fill:#EEA987;}
	.st14{fill:#E8734D;}
	.st15{fill:#C78D71;}
	.st16{fill:#EDDAD3;}
	.st17{fill:#5073AB;}
	.st18{fill:#323657;}
	.st19{fill:#F5F7FF;}
	.st20{fill:#949494;}
	.st21{fill:#FF0000;}
	.st22{fill:#FFDEDE;enable-background:new    ;}
	.st23{fill:#96BFE6;}
	.st24{opacity:0.1;fill:#FF0000;enable-background:new    ;}
	.st25{fill:#385369;}
	.st26{fill:#434343;}
	.st27{fill:#0E2D3D;}
	.st28{fill:#163342;}
	.st29{fill:#1D3B54;}
	.st30{fill:#285173;}
	.st31{fill:#FFBF55;}
	.st32{fill:#183C59;}
	.st33{fill:#616161;}
	.st34{fill:#E0CEC7;}
	.st35{fill:url(#SVGID_00000029038889007258081470000004760624808091595706_);}
	.st36{fill:url(#SVGID_00000085952112189058516430000010652410329130359989_);}
	.st37{fill:url(#SVGID_00000065062164157841458960000008495626073556769689_);}
	.st38{fill:url(#SVGID_00000062193271413557085750000010324407409046449847_);}
	.st39{fill:url(#SVGID_00000044877869906627227360000009908112769439492504_);}
	.st40{fill:url(#SVGID_00000093163511859160536720000014406565614234033036_);}
	.st41{fill:url(#SVGID_00000154398473091905622100000004173741095302746265_);}
	.st42{fill:#344052;}
	.st43{fill:#EB4747;}
	.st44{fill:#393D63;}
	.st45{fill:#DECBC4;}
	.st46{fill:#51565C;}
	.st47{fill:#F5E2D9;}
	.st48{fill:#D44040;}
	.st49{fill:#2D3133;}
	.st50{fill:#292C47;}
	.st51{fill:#424773;}
	.st52{fill:#3A3F47;}
	.st53{fill:#E2D2CA;}
	.st54{fill:#FFDF69;}
	.st55{fill:#AB9546;}
	.st56{opacity:0.95;}
	.st57{fill:url(#SVGID_00000068655337473789370590000002563677589259294877_);}
	.st58{fill:url(#SVGID_00000152947010263148810390000002445099369221737124_);}
	.st59{fill:url(#SVGID_00000159434221957029787600000017833146813138196149_);}
	.st60{fill:url(#SVGID_00000098188050665331655600000016306936970860827838_);}
	.st61{fill:url(#SVGID_00000083779632949326849240000009566072228060976290_);}
	.st62{fill:url(#SVGID_00000153693027186855253030000013226786809931020444_);}
	.st63{fill:url(#SVGID_00000084488794369026882770000007782952670076289924_);}
	.st64{fill:url(#SVGID_00000096763126263907899870000008372084116974273170_);}
	.st65{fill:url(#SVGID_00000075126533370829236220000010813968251236867458_);}
	.st66{fill:url(#SVGID_00000120543677495843817550000010129272276344989616_);}
	.st67{fill:url(#SVGID_00000146494457505015213700000008695472712481492403_);}
</style>
<g>
	<g>
		<linearGradient id="SVGID_1_" gradientUnits="userSpaceOnUse" x1="1081.3829" y1="263.1989" x2="1392.0983" y2="263.1989">
			<stop  offset="0" style="stop-color:#C51C24"/>
			<stop  offset="1" style="stop-color:#FF0000"/>
		</linearGradient>
		<path class="st0" d="M1366.5,229.6c-3.2-12.2-8-23.7-14.2-34.3l14.5-21.8l-20.1-20.1l-20.1-20.1l-21.8,14.5
			c-10.6-6.2-22.1-11.1-34.3-14.2l-5.2-25.6h-28.4h-28.4l-5.2,25.6c-12.2,3.2-23.7,8-34.3,14.2l-21.8-14.5l-20.1,20.1l-20.1,20.1
			l14.5,21.8c-6.2,10.6-11.1,22.1-14.2,34.3l-25.6,5.2v28.4v28.4l25.6,5.2c3.2,12.2,8,23.7,14.2,34.3l-14.5,21.8l20.1,20.1
			l20.1,20.1l21.8-14.5c10.6,6.2,22.1,11.1,34.3,14.2l5.2,25.6h28.4h28.4l5.2-25.6c12.2-3.2,23.7-8,34.3-14.2l21.8,14.5l20.1-20.1
			l20.1-20.1l-14.5-21.8c6.3-10.6,11.1-22.1,14.2-34.3l25.6-5.2v-28.4v-28.4L1366.5,229.6z M1236.7,362.9c-55,0-99.7-44.6-99.7-99.7
			c0-55,44.6-99.7,99.7-99.7c55,0,99.7,44.6,99.7,99.7C1336.4,318.2,1291.8,362.9,1236.7,362.9z"/>
	</g>
	<g>
		
			<linearGradient id="SVGID_00000047774931129254007140000018263569547124953217_" gradientUnits="userSpaceOnUse" x1="1274.5693" y1="486.8899" x2="1417.0159" y2="486.8899">
			<stop  offset="0" style="stop-color:#C51C24"/>
			<stop  offset="1" style="stop-color:#FF0000"/>
		</linearGradient>
		<path style="fill:url(#SVGID_00000047774931129254007140000018263569547124953217_);" d="M1405.3,471.5
			c-1.4-5.6-3.7-10.9-6.5-15.7l6.6-10l-9.2-9.2l-9.2-9.2l-10,6.6c-4.9-2.9-10.1-5.1-15.7-6.5l-2.4-11.8h-13h-13l-2.4,11.8
			c-5.6,1.4-10.9,3.7-15.7,6.5l-10-6.6l-9.2,9.2l-9.2,9.2l6.6,10c-2.9,4.9-5.1,10.1-6.5,15.7l-11.8,2.4v13v13l11.8,2.4
			c1.4,5.6,3.7,10.9,6.5,15.7l-6.6,10l9.2,9.2l9.2,9.2l10-6.6c4.9,2.9,10.1,5.1,15.7,6.5l2.4,11.8h13h13l2.4-11.8
			c5.6-1.4,10.9-3.7,15.7-6.5l10,6.6l9.2-9.2l9.2-9.2l-6.6-10c2.9-4.9,5.1-10.1,6.5-15.7l11.8-2.4v-13v-13L1405.3,471.5z
			 M1345.8,532.6c-25.2,0-45.7-20.5-45.7-45.7c0-25.2,20.5-45.7,45.7-45.7s45.7,20.5,45.7,45.7
			C1391.5,512.1,1371,532.6,1345.8,532.6z"/>
	</g>
	<g>
		<path class="st2" d="M59.9,1157.4h1177.7c8.4,0,15.3-6.8,15.3-15.3V320.3c0-8.4-6.8-15.3-15.3-15.3H59.9
			c-8.4,0-15.3,6.8-15.3,15.3v821.9C44.6,1150.6,51.4,1157.4,59.9,1157.4z"/>
	</g>
	<g>
		
			<rect x="91.9" y="214.3" transform="matrix(-1 -1.224647e-16 1.224647e-16 -1 1297.4561 1238.1309)" class="st3" width="1113.6" height="809.5"/>
	</g>
	<g>
		
			<linearGradient id="SVGID_00000168836834826487525760000013493304476312728744_" gradientUnits="userSpaceOnUse" x1="91.9222" y1="263.1989" x2="1205.5339" y2="263.1989">
			<stop  offset="0" style="stop-color:#C51C24"/>
			<stop  offset="1" style="stop-color:#FF0000"/>
		</linearGradient>
		<polygon style="fill:url(#SVGID_00000168836834826487525760000013493304476312728744_);" points="91.9,312.1 1205.5,312.1 
			1205.5,214.3 91.9,214.3 		"/>
	</g>
	<g>
		<g>
			<g>
				<path class="st5" d="M426,410.6h384.4c1.9,0,3.5-1.6,3.5-3.5v-22c0-1.9-1.6-3.5-3.5-3.5H426c-1.9,0-3.5,1.6-3.5,3.5v22
					C422.5,409,424.1,410.6,426,410.6z"/>
			</g>
		</g>
	</g>
	<g>
		<g>
			<g>
				<path class="st5" d="M426,462.9h384.4c1.9,0,3.5-1.6,3.5-3.5v-22c0-1.9-1.6-3.5-3.5-3.5H426c-1.9,0-3.5,1.6-3.5,3.5v22
					C422.5,461.3,424.1,462.9,426,462.9z"/>
			</g>
		</g>
	</g>
	<g>
		<g>
			<g>
				<path class="st5" d="M426,515.1h384.4c1.9,0,3.5-1.6,3.5-3.5v-22c0-1.9-1.6-3.5-3.5-3.5H426c-1.9,0-3.5,1.6-3.5,3.5v22
					C422.5,513.5,424.1,515.1,426,515.1z"/>
			</g>
		</g>
	</g>
	<g>
		<g>
			<g>
				<g>
					<path class="st5" d="M624,966.9H206.6c-34.8,0-63.1-28.3-63.1-63.1V649.8c0-34.8,28.3-63.1,63.1-63.1H624
						c34.8,0,63.1,28.3,63.1,63.1v253.9C687.2,938.5,658.9,966.9,624,966.9z M206.6,594.6c-30.4,0-55.2,24.8-55.2,55.2v253.9
						c0,30.4,24.8,55.2,55.2,55.2H624c30.4,0,55.2-24.8,55.2-55.2V649.8c0-30.4-24.8-55.2-55.2-55.2H206.6z"/>
				</g>
			</g>
		</g>
	</g>
	<g>
		<g>
			<g>
				<path class="st5" d="M218.7,682.4H612c3.8,0,6.9-3.1,6.9-6.9v-47.2c0-3.8-3.1-6.9-6.9-6.9H218.7c-3.8,0-6.9,3.1-6.9,6.9v47.2
					C211.7,679.3,214.8,682.4,218.7,682.4z"/>
			</g>
		</g>
	</g>
	<g>
		<path class="st6" d="M1080.3,670.1c0,33.4-18,62.5-44.9,78.2c-5.4,3.2-11.2,5.8-17.2,7.8c-0.5,0.2-1.1,0.4-1.6,0.5
			c-8.5,2.6-17.5,4.1-26.9,4.1c-14.5,0-28.1-3.4-40.3-9.4c-29.8-14.8-50.3-45.6-50.3-81.2c0-50,40.6-90.6,90.6-90.6
			C1039.7,579.5,1080.3,620.1,1080.3,670.1z"/>
		<g>
			<path class="st7" d="M968,660.5c0,0-6.2-40,27-39.3c33.2,0.7,32.7,20.5,32.1,40.2c-0.6,19.6-13.3,18.2,1,45.5
				c14.3,27.3-12.4,27.3-12.4,27.3L995,705.8L968,660.5z"/>
		</g>
		<g>
			<path class="st8" d="M991.4,625.1c0,0-22.5,3.5-23.3,35.5c-0.9,31.9,6.1,38.7,25.7,32.1c19.6-6.6,25.9-40,26.3-45.2
				C1020.5,642.2,1021.7,621.2,991.4,625.1z"/>
		</g>
		<g>
			<path class="st9" d="M1030.8,736.1c0.1,9.6-5,16-12.6,20c-0.5,0.2-1.1,0.4-1.6,0.5c-8.5,2.6-17.5,4.1-26.9,4.1
				c-14.5,0-28.1-3.4-40.3-9.4c-2.7-5.4,1.2-13.2,9.3-25.1c5.5-8.2,10.9-16.5,20.2-20.5c13.7-2.2,28.1-2.3,38.3,3.5
				C1025.3,713.7,1030.7,722.1,1030.8,736.1z"/>
		</g>
		<g>
			<path class="st9" d="M963.1,725.8L952.7,742c0-0.1,0.7-2.6,1.9-9.7c0.2-1.4,0.5-2.9,0.7-4.6c0.1-0.5,0.2-1,0.3-1.5l0,0
				c4.4-10.2,18.2-17.8,18.7-18L963.1,725.8z"/>
		</g>
		<g>
			<path class="st8" d="M1035.4,748.4c-5.4,3.2-11.2,5.8-17.2,7.8c-0.5,0.2-1.1,0.4-1.6,0.5c-2.3-5.9-4.3-11-4.7-12.4
				c-0.1-0.4-0.4-1.1-0.8-2.1c-1.9-4.5-6-14.6-6.1-22.5c0-5.1,1.6-9.2,6.8-10.4c2-0.5,3.8-0.5,5.4-0.2c5.7,1,9,6.2,10.9,10.7
				c0,0.1,0.1,0.2,0.1,0.2c1.6,3.9,2,7.2,2,7.2s0.1,0.4,0.3,1c0.3,1.3,0.9,3.7,1.7,6.8C1033.1,738.8,1034.2,743.4,1035.4,748.4z"/>
		</g>
		<g>
			<path class="st8" d="M1006.4,678.2c-1.9,3.7-4,26.5-4,26.5s-27.5,10.4-24.7,4.5c1.3-2.7,1.6-6.1,1.7-9.1c0-2.3-0.2-4.4-0.3-5.5
				c-0.1-0.6-0.1-0.9-0.1-0.9S1008.3,674.6,1006.4,678.2z"/>
		</g>
		<g>
			<path class="st7" d="M982.2,648c0,0,11.5,18.8,22,26.2c10.5,7.4,5.2,13.3,5.2,13.3s27.4-57.6,1.3-61.6c-26-4-42-4.3-42.7,34.7
				C968,660.5,979.9,647.7,982.2,648z"/>
		</g>
		<g>
			<path class="st10" d="M994.8,692.2c-4.2,6.2-15.4,7.9-15.4,7.9l0,0c0-2.3-0.2-4.4-0.3-5.5C986.2,696,994.8,692.2,994.8,692.2z"/>
		</g>
		<path class="st11" d="M955.7,726.1L955.7,726.1c0,0-0.6,1.2-1.1,6.2l4-6.1c0,0,7.2-10.4,9.7-13.1c2.5-2.7,6.1-5.1,6.1-5.1
			S960,715,955.7,726.1z"/>
		<path class="st9" d="M1010.4,741.6c0,0,17.6-6.9,22.8-7.3c0,0-3.5-28.3-20.9-25.3C995,712,1010.4,741.6,1010.4,741.6z"/>
		<path class="st8" d="M978.9,705.7c0,0-12.9,19.9-8.6,21.6c4.4,1.7,28.1-2.3,38.2-21.2C1008.5,706.1,993.4,698.4,978.9,705.7z"/>
	</g>
	<g>
		<path class="st6" d="M1113.8,405.8c0,64.8-52.5,117.9-117.9,117.9c-65.1,0-117.9-52.8-117.9-117.9c0-65.1,52.8-117.9,117.9-117.9
			C1061,287.8,1113.8,340.6,1113.8,405.8z"/>
		<g>
			<g>
				<path class="st12" d="M1072.7,470.8L1064,502c-15.5,11-33.8,18.3-53.6,20.8c-3.5,0.4-7,0.7-10.6,0.8c-1.3,0-2.6,0.1-3.9,0.1
					c-3.8,0-7.6-0.2-11.3-0.5c-4.2-0.4-8.3-1-12.3-1.8c-17.9-3.6-34.3-11.3-48.2-22c-1.7-10.3-3.5-21.7-5-32.4
					c8.7-3.2,36.2-12.6,53.7-18.5c0.2-0.1,0.5-0.2,0.7-0.2c0.4-0.1,0.8-0.3,1.1-0.4c1-0.3,2-0.7,3-1c1-0.3,1.9-0.6,2.7-0.9
					c3.6-1.2,6.1-2,7-2.3c0,0,0,0,0,0c0.2-0.1,0.4-0.1,0.4-0.1l0.2,0l23.4,1.8l3.9,0.3l1.2,0.1c0,0,0.2,0,0.5,0.1
					c1.4,0.4,5.5,1.4,10.9,3.1c0,0,0,0,0,0C1041.7,453,1064.2,461.1,1072.7,470.8z"/>
			</g>
			<g>
				<path class="st13" d="M1002,347.2c0,0,28.1,4.7,23.3,48.7c-4.8,43.9-29.5,40.1-31.2,40c-1.7-0.1-24.9,0.5-26.2-53.2
					C968,382.7,967.6,343,1002,347.2z"/>
			</g>
			<g>
				<path class="st13" d="M1014.3,423.2c0,0-1,18.1,0.7,22c1.7,3.9-22.5,16.4-37.6,2.2c0,0,3-19.8,2.1-26.8
					C978.6,413.7,1014.3,423.2,1014.3,423.2z"/>
			</g>
			<g>
				<path class="st13" d="M1025.9,383.5c0,0,3.1-3.3,4.2,0.1c1.1,3.3-5,18.2-4.6,18.8c0,0-0.6,1.3-1.3,0.6
					C1023.5,402.2,1025.9,383.5,1025.9,383.5z"/>
			</g>
			<g>
				<path class="st13" d="M968.3,382.3c0,0-3-3.4-4.2-0.1c-1.2,3.3,3.3,18.1,3.8,19c0,0,1,1.5,1.7,0.8
					C970.4,401.3,968.3,382.3,968.3,382.3z"/>
			</g>
			<g>
				<path class="st14" d="M1027.7,379.7c-1,6-1.9,10.5-1.9,10.5l-4.1,5.3c0,0,0.2-11.8-0.4-13.7c-0.2-0.7-0.5-1.9-0.8-3.3
					c-0.5-2.2-1-4.7-1.3-5.6c-0.5-1.3-24.1-8.2-45,1.4c0,0,0.2,1.8,0.2,3.8c0,2.4-0.3,5-1.3,5.4c-2,0.7-1.2,13.8-1.2,13.8l-3.3-3.8
					c0,0-0.9-6.8-1.9-14.7c0,0,0,0,0-0.1c-0.2-1.8-0.4-3.7-0.6-5.6c-0.5-7.9,0.3-22.2,10.6-30.6c6.9-3,18-5.5,36.5,0.2
					c0,0,4.2,0.3,5.4,1.4C1030.1,357,1027.7,379.7,1027.7,379.7z"/>
			</g>
			<path class="st15" d="M981.5,430c0,0,4.5,6.2,14.9,6c10.4-0.2,14.9-5.7,14.9-5.7s-4.9,10.3-15,10.2
				C986.3,440.4,981.5,430,981.5,430z"/>
			<path class="st13" d="M974.6,447.8c0,0,7.5,13.1,21.8,14.3c9.1,0.8,16.9-10.7,20.6-16.3C1016.9,445.8,996.7,437.1,974.6,447.8z"
				/>
			<path class="st16" d="M1014.3,441.6c0,0-5.7,7.5-18,15.6l7.6,11.7l13-23.1L1014.3,441.6z"/>
			<path class="st16" d="M978,443.4c0,0,7.3,9.2,18.4,13.8l-8.3,12.1l-14.6-21.1L978,443.4z"/>
			<path class="st17" d="M996.4,457.2l6.5,9.9c0,0-6.8,3.9-13.2-0.2L996.4,457.2z"/>
			<path class="st18" d="M1080.2,469c-1.1,4-2.8,9.9-7.2,26c-1.3,1.2-2.7,2.3-4.1,3.4c-1.6,1.3-3.2,2.5-4.9,3.6
				c-15.5,11-33.8,18.3-53.6,20.8c1.7-40.8,6.6-77,6.6-77c3.8,1,7.4,2,10.9,3c0,0,0,0,0,0c29.9,8.6,45.1,16.1,50.3,19
				c0,0,0.1,0,0.1,0.1C1079.6,468.6,1080.2,469,1080.2,469z"/>
			<path class="st18" d="M972.3,521.3c-17.9-3.6-34.3-11.3-48.2-22c-4.2-3.2-8.2-6.7-11.9-10.5c-0.7-0.7-1.4-1.5-2.1-2.2
				c-2.1-8.8-3.4-14.5-3.5-14.9l0,0c0,0,14.6-9.6,66.2-23.4c0,0,0,0,0,0C972.7,449.6,972.7,482.7,972.3,521.3z"/>
			<path class="st17" d="M1000.1,468.2c-0.5,10.7-0.5,31.6-0.4,55.4c-1.3,0-2.6,0.1-3.9,0.1c-3.8,0-7.6-0.2-11.3-0.5
				c2.3-29.3,6.1-47.7,7.8-55c0.6-2.4,0.9-3.6,0.9-3.6l6.9,1.1C1000.2,466.5,1000.1,467.3,1000.1,468.2z"/>
			<g>
				<path class="st18" d="M1086.1,481.6c-4,4.8-8.4,9.3-13.2,13.4c-1.3,1.2-2.7,2.3-4.1,3.4l11.4-29.4
					C1083,471.3,1085.2,479.3,1086.1,481.6z"/>
			</g>
			<g>
				<path class="st18" d="M912.2,488.8c-0.7-0.7-1.4-1.5-2.1-2.2c-2.6-2.8-5.1-5.7-7.5-8.8c1.3-3.2,2.7-5.3,4-6.1l0,0L912.2,488.8z"
					/>
			</g>
		</g>
	</g>
	<path class="st19" d="M294,281.7H141.7c-1.8,0-3.3-1.5-3.3-3.3V248c0-1.8,1.5-3.3,3.3-3.3H294c1.8,0,3.3,1.5,3.3,3.3v30.4
		C297.3,280.2,295.8,281.7,294,281.7z"/>
	<g>
		
			<ellipse transform="matrix(0.9999 -1.315423e-02 1.315423e-02 0.9999 -11.5696 13.0952)" class="st6" cx="989.7" cy="886" rx="90.6" ry="90.6"/>
		<g>
			<path class="st20" d="M989.7,922.2c-2.5,0-4.6-2-4.6-4.6v-63.1c0-2.5,2-4.6,4.6-4.6c2.5,0,4.6,2,4.6,4.6v63.1
				C994.2,920.1,992.2,922.2,989.7,922.2z"/>
		</g>
		<g>
			<path class="st20" d="M1021.2,890.6h-63.1c-2.5,0-4.6-2-4.6-4.6c0-2.5,2-4.6,4.6-4.6h63.1c2.5,0,4.6,2,4.6,4.6
				C1025.8,888.6,1023.8,890.6,1021.2,890.6z"/>
		</g>
	</g>
	<g>
		<g>
			<path class="st21" d="M809.5,675.6h-76.2c-2.4,0-4.4-2-4.4-4.4v-76.2c0-2.4,2-4.4,4.4-4.4h76.2c2.4,0,4.4,2,4.4,4.4v76.2
				C813.9,673.6,812,675.6,809.5,675.6z"/>
		</g>
		<g>
			<g>
				<g>
					<path class="st21" d="M768.7,651.8l-21.5-18.7c-1.8-1.5-1.9-4.2-0.4-6c1.5-1.8,4.2-1.9,6-0.4L768,640l21.7-24.2
						c1.6-1.7,4.2-1.9,6-0.3c1.7,1.6,1.9,4.2,0.3,6L768.7,651.8z"/>
				</g>
			</g>
		</g>
	</g>
	<g>
		<g>
			<path class="st21" d="M809.5,784.5h-76.2c-2.4,0-4.4-2-4.4-4.4V704c0-2.4,2-4.4,4.4-4.4h76.2c2.4,0,4.4,2,4.4,4.4v76.2
				C813.9,782.5,812,784.5,809.5,784.5z"/>
		</g>
		<g>
			<g>
				<g>
					<path class="st21" d="M768.7,760.8L747.3,742c-1.8-1.5-1.9-4.2-0.4-6c1.5-1.8,4.2-1.9,6-0.4l15.2,13.2l21.7-24.2
						c1.6-1.7,4.2-1.9,6-0.3c1.7,1.6,1.9,4.2,0.3,6L768.7,760.8z"/>
				</g>
			</g>
		</g>
	</g>
	<g>
		<g>
			<path class="st21" d="M809.5,893.4h-76.2c-2.4,0-4.4-2-4.4-4.4v-76.2c0-2.4,2-4.4,4.4-4.4h76.2c2.4,0,4.4,2,4.4,4.4V889
				C813.9,891.5,812,893.4,809.5,893.4z"/>
		</g>
	</g>
	<path class="st5" d="M148.9,380.8h227c3.8,0,6.8,3,6.8,6.8v116.3c0,3.8-3,6.8-6.8,6.8h-227c-3.8,0-6.8-3-6.8-6.8V387.6
		C142.1,383.8,145.1,380.8,148.9,380.8z"/>
</g>
<path class="st22" d="M1228.1,1499.2H818c-32.4,0-58.7-26.3-58.7-58.7v-410.1c0-32.4,26.3-58.7,58.7-58.7h410.1
	c32.4,0,58.7,26.3,58.7,58.7v410.1C1286.8,1472.9,1260.5,1499.2,1228.1,1499.2z"/>
<rect x="900.9" y="1379.1" class="st23" width="244.2" height="12.1"/>
<rect x="935.5" y="1417.1" class="st23" width="175" height="12.1"/>
<path class="st24" d="M2026.3,2002h-583.7c-38.2,0-69.1-30.9-69.1-69.1v-709.1c0-38.2,30.9-69.1,69.1-69.1h583.7
	c38.2,0,69.1,30.9,69.1,69.1v709.1C2095.4,1971.1,2064.5,2002,2026.3,2002z"/>
<g>
	<rect x="1700.9" y="1654.5" class="st21" width="57.3" height="10.6"/>
</g>
<g>
	<rect x="1483.5" y="1751.7" class="st23" width="333.2" height="20.5"/>
	<rect x="1483.5" y="1850.3" class="st23" width="269.4" height="20.5"/>
	<rect x="1483.5" y="1801" class="st23" width="157.9" height="20.5"/>
</g>
<g>
	<path class="st21" d="M1903.8,1239.2v10.4h61.1v57.3h10.4v-67.7H1903.8z M1489.2,1306.8h10.4v-57.3h61.1v-10.4h-71.4L1489.2,1306.8
		L1489.2,1306.8z M1964.9,1602.5v57.3h-61.1v10.4h71.4v-67.7H1964.9z M1499.6,1602.5h-10.4v67.7h71.4v-10.4h-61.1L1499.6,1602.5
		L1499.6,1602.5z"/>
</g>
<g>
	<g>
		<path class="st21" d="M1942.9,1872.3c-33.7,0-61.1-27.4-61.1-61.1s27.4-61.1,61.1-61.1s61.1,27.4,61.1,61.1
			S1976.6,1872.3,1942.9,1872.3z M1942.9,1762c-27.2,0-49.2,22.1-49.2,49.2c0,27.2,22.1,49.2,49.2,49.2s49.2-22.1,49.2-49.2
			S1970.1,1762,1942.9,1762z"/>
	</g>
	<g>
		<polygon class="st21" points="1939,1835.3 1911.3,1807.5 1919.6,1799.2 1939,1818.6 1966.2,1791.4 1974.5,1799.8 		"/>
	</g>
</g>
<path class="st21" d="M1864.1,2348.5c0,22.3-359.6,40.3-803.1,40.3s-803.1-18-803.1-40.3s359.6-40.3,803.1-40.3
	S1864.1,2326.2,1864.1,2348.5z"/>
<g>
	<path class="st25" d="M1158.8,1177.1c-11.7-31-39.8-45.2-53.1-49.6c-4.7-1.6-13.2-4.3-22.1-7.2c-16-5.2-33.6-10.8-33.6-10.8h-55.3
		c0,0-19.2,6.4-39.5,13.6l0,0c-18.8,6.6-38.5,13.8-45.2,17.1c-13.9,6.9-37.3,56.6-42,62.3c-2.4,2.9-13.3,22.3-24,43.9h59.6
		c6.3-10.8,11.2-19.2,11.2-19.2s3.8,8.3,8.3,19.2h191c3-12.7,4.9-28.7,4.9-28.7s10.2,13.9,21.4,28.7h55
		C1182,1223.9,1165.4,1194.6,1158.8,1177.1z"/>
	<g>
		<path class="st8" d="M1029,957.4c0,0,43.3,6.8,36.7,74.5s-44.8,62.1-47.3,62.1c-2.6-0.1-38.3,1.2-41.1-81.4
			C977.2,1012.6,976,951.5,1029,957.4z"/>
	</g>
	<g>
		<path class="st8" d="M1066.4,1012.8c0,0,4.7-5.1,6.5,0.1c1.7,5.1-6.5,28-6.8,29c0,0-0.9,2-2,0.9
			C1062.9,1041.7,1066.4,1012.8,1066.4,1012.8z"/>
	</g>
	<g>
		<path class="st8" d="M978.4,1012c0,0-4.6-5.2-6.5-0.1c-1.8,5.1,5.8,28.1,6.2,29.2c0,0,0.8,2,2,0.9
			C981.3,1040.9,978.4,1012,978.4,1012z"/>
	</g>
	<g>
		<path class="st26" d="M1066.3,1023.2l-6.2,8.3c0,0,0.2-18.2-0.8-21s-2.5-11.5-3.3-13.6c-0.8-2-37.2-12.2-69.2,3
			c0,0,1.4,13.1-1.7,14.2c-3.1,1.2-1.6,21.3-1.6,21.3l-5.1-5.7c0,0-7.8-52.1-5.9-57.5c1.9-5.4,8.1-38.1,73.9-18.7
			c0,0,20.5-4.3,24.6,9.8C1075.2,977.4,1066.3,1023.2,1066.3,1023.2z"/>
	</g>
	<path class="st8" d="M1055.5,1108.3c0-0.1-5.6-2.7-5.6-2.7c-2.7-6-0.7-31.5-0.7-31.5s-55.1-14-53.5-3.3c1.6,10.7-4.7,35.6-4.7,35.6
		l-28.3,14c0,0,30.1,80.9,64.7,70.4c34.6-10.4,47.7-73.4,47.7-73.4L1055.5,1108.3z"/>
	<path class="st10" d="M996.5,1082.7c0,0,8.9,11.5,24.3,11.5c10.1,0,17.4-2.8,27.5-12.7c0,0-4.4,18.7-27.4,20.4
		C1020.8,1101.9,1004.1,1104,996.5,1082.7z"/>
</g>
<g>
	<g>
		<g>
			<g>
				<g>
					<g>
						<path class="st27" d="M837.4,1354.3c0,0,31.8,15.6,23.9,57.9c-7.9,42.3-11.3,48-2.5,64.5s19.2,87.1,11.3,100.4
							c-7.9,13.4-98-58.7-110.4-119.2c-12.5-60.5,7.9-87.4,15.1-97.4C781.9,1350.4,809.3,1340,837.4,1354.3z"/>
					</g>
				</g>
			</g>
		</g>
	</g>
	<g>
		<path class="st28" d="M825.4,2336.1h7.2v-34c0,0,14.1,9.4,23,22.4s21.1,11.9,39.6,11.1c18.6-0.8,17.7-8.3,16.1-18.8
			c-1.7-10.5-20.5-13.9-26.6-15.5c-6.1-1.7-19.9-25.5-24.4-31.3c-6.1-7.9-9.3-15.5-9.3-15.5s-3.5-14.1-20.6,0
			c-17.2,14.1-12.2,41.3-10.3,43.8C822.1,2300.8,825.4,2336.1,825.4,2336.1z"/>
	</g>
	<g>
		<path class="st8" d="M861.7,2301.3c6.4,4.2,23,0,23,0c-4.7-6.1-33.7-46.8-33.7-46.8c-17.6-10.3-24.6,3.9-24.6,3.9
			C833.7,2260.5,855.3,2297.2,861.7,2301.3z"/>
	</g>
	<g>
		<g>
			<g>
				<g>
					<path class="st8" d="M1047,1674.4c0,0,11.5,2.2,15.5-3.2c3.4-4.6,11-8.1,13.4-9.2c3.2-1.5,11.2-9.6,13-5.6
						c1.9,4-12.6,14-15.2,16.7c-2.6,2.7,14.2,3.9,17,6.5c2.9,2.6-0.7,30.3-12.1,28.1c-11.4-2.2-22.2-12-24.3-12s-8.4-1.2-8.4-1.2
						L1047,1674.4z"/>
				</g>
			</g>
		</g>
	</g>
	<g>
		<g>
			<g>
				<g>
					<path class="st8" d="M1088.2,1678.4c0,0,34.5,8.9,36.3,11.4c1.8,2.5,1.2,4.4-2.1,3.7c-3.3-0.7-33.6-7.6-33.6-7.6
						s39,17.4,41,19.1c1.1,1,0.2,4.7-1.6,4.4c-1.8-0.2-41.5-15.3-41.5-15.3s36.4,16.3,37.6,18.3c1,1.7-0.7,4.8-3.5,3.8
						c-2.8-1-37.5-14.3-37.5-14.3s25.8,13.5,25.8,15.8c0,1.4-0.6,4.5-7.2,0.8c-6.5-3.7-22.9-10.8-22.9-10.8L1088.2,1678.4z"/>
				</g>
			</g>
		</g>
	</g>
	<g>
		<path class="st28" d="M732,2338.4h4.4v-24.9c0,0,7.9,8.1,11.5,20c3.6,11.9,16.5,15.5,36.2,14.9c19.7-0.6,20-8.3,18.3-20
			c-1.7-11.6-18.3-17.7-18.3-17.7c-7.5-6.7-26.1-34.2-26.1-34.2s-11.9-3.2-21.3,4.4c-9.4,7.5-6.4,24.6-6.2,29
			C730.9,2314.3,732,2338.4,732,2338.4z"/>
	</g>
	<g>
		<path class="st29" d="M745.6,1744.3c0,0-23.4,30.5-29.8,66.7c-6.4,36.2,3.8,157.6,3.5,175.4c-0.3,17.9-16.9,62.4-13.6,96
			c3.3,33.7,16.4,201.3,16.4,201.3l35.9-7.1c0,0-2.1-170.9,0-185c2.1-14.1,6.3-65.7,7.1-71.5s52.8-158.6,52.8-184.7
			C817.9,1809.3,802.1,1701.7,745.6,1744.3z"/>
	</g>
	<g>
		<path class="st29" d="M863.4,1756.2c0,0,38.5,147,43.1,167.4s11.2,37.2,11.2,45.8c0,20.1-7.5,52.3-7.5,52.3l-48.9,234h-46.6
			c0,0,26-140.4,26.7-167.8c0.7-27.5,21.9-66.6,17.7-78.2s-66.9-145.9-66.9-145.9S744.6,1713.5,863.4,1756.2z"/>
	</g>
	<g>
		<path class="st8" d="M784.1,2310.7l-26.1-34.2l-21.3,4.4c0,0,5.7,15.3,16.1,26.8C765.1,2321.4,784.1,2310.7,784.1,2310.7z"/>
	</g>
	<g>
		<g>
			<path class="st30" d="M847.5,1506.3c0,0,15.9,1.5,27.9,14.4s23.3,33.4,26.4,40.2c3.1,6.9,47.2,70.4,49.5,71.8s24.4,8.8,39.1,13.8
				c22.6,7.6,68,24.1,68,24.1l-9,28.5c0,0-85.4-27.9-106.7-33.2c-26.1-6.4-86.3-83.6-86.3-83.6S811.5,1529.8,847.5,1506.3z"/>
		</g>
	</g>
	<g>
		<g>
			<path class="st31" d="M819.8,1495.2c0,0,20.6,9.7,27.7,11.1c7.1,1.4,34.9,37.4,39.7,50.6c4.9,13.1,0,32.9-10,56s-0.6,30.9-5.1,54
				c-4.6,23.1-3.1,109.7-2.2,122.6c0.9,12.9-133.7,32.3-160.3,8.9c0,0,18-78,39.3-100.3c4.6-4.8,4.1-36.9,1-44.9
				s-38.6-67.7-38.6-67.7s-2.6-60.6,12.9-72.6c13.4-10.4,50-14.1,56.6-16.4C787.2,1494.2,806.3,1493.2,819.8,1495.2z"/>
		</g>
	</g>
	<g>
		<g>
			<path class="st8" d="M829.6,1471.5c0,0-0.6,5.7-1.3,13.3c-0.3,3-0.6,6.4-0.8,9.8c-0.8,10.3-1.5,21.3-1.1,26.9
				c0,0-21.4,21.4-45.7-25c0,0,10.2-19.1,2.5-45.2C775.5,1425.2,829.6,1471.5,829.6,1471.5z"/>
		</g>
	</g>
	<g>
		<path class="st32" d="M889.4,1621.5c0,0,5.1-34.2-0.3-55c0,0,0,17.9-9.8,43.3L889.4,1621.5z"/>
	</g>
	<g>
		<path class="st8" d="M764.2,1499.8c0,0,14.7,43.4,55.1,40.2c40.4-3.2,19.1-36.7,19.1-36.7s-10.1-5.8-12.9-6.3
			c-2.8-0.5-44.6-1.1-44.6-1.1L764.2,1499.8z"/>
	</g>
	<g>
		<path class="st30" d="M838.4,1503.3c0,0,21.1,58.5,21.1,118.1s1.7,156.7,9.1,187.4c7.4,30.7,28.4,125.5,28.4,125.5l16.5-8.5
			c0,0-39.6-151.4-42.6-162.3s2.3-126.2,5.1-135.9c2.8-9.7,14.9-52.6,13-64.6c-2.4-15-16.4-37.3-39.1-56.4L838.4,1503.3z"/>
	</g>
	<g>
		<path class="st30" d="M772.2,1497.9c0,0,13.1,42.1,19.8,96s-20.4,304.1-38.6,360.9l-70.4-11.4c0,0,15.2-176.8,35.7-209
			c20.6-32.2,27.1-60.7,4.9-127.8c-22.2-67.2,9.7-100.4,9.7-100.4S766,1498.6,772.2,1497.9z"/>
	</g>
	<g>
		<polygon class="st33" points="848.2,1676.4 762.8,1824.3 667.9,1769.5 749.5,1619.5 		"/>
	</g>
	<g>
		<polygon class="st34" points="837.9,1681.5 762,1812.9 677.7,1764.2 750.3,1630.9 		"/>
	</g>
	<g>
		<polygon class="st33" points="809.9,1669.7 815.2,1660.5 781.1,1640.8 774.5,1649.3 		"/>
	</g>
	<g>
		<g>
			<g>
				<g>
					<g>
						<g>
							<path class="st8" d="M805.8,1774.6c0,0-3.9,0-5.6-0.8c0,0-3-1.7-5.2-2.8c-0.7-0.3-1.3-0.6-1.7-0.8c-1.7-0.6-5.7-1.4-9.5-4
								s-17.1-18.1-17.1-18.1l6.3-9.6l4.6-9.8c0,0,28.1,1.8,31.9,3.8c0.4,0.2,0.7,0.4,1,0.6c3,2,4.5,4.8,5.9,6.1
								c0.5,0.5,5.6,5.4,5.4,7.5c-0.2,2.9-1.6,4.9-3.4,5.8c0,0-0.7,5.7-3.5,8.4c0,0-0.5,5.3-4.9,7.6
								C810.1,1768.6,809,1773.9,805.8,1774.6z"/>
						</g>
					</g>
				</g>
			</g>
		</g>
	</g>
	<g>
		<g>
			<path class="st30" d="M748,1506.3c0,0-25.9-7.4-40.8,21.1c-14.9,28.6-14.8,40.8-16.8,54.7c-1.9,13.2-10.3,49.1-11.2,52.9
				c-0.9,3.7-20,48-11.2,63.5c8.8,15.6,98.6,61.4,98,64.8s15.5-34.6,15.5-34.6s-36.3-20.2-42.3-26.5c-9.7-10.1-30-21-25.9-33.6
				c4.9-14.8,19.7-64.5,23.1-71.8C740,1589.6,769.8,1515.6,748,1506.3z"/>
		</g>
	</g>
	<g>
		<g>
			<g>
				<g>
					<g>
						<path class="st13" d="M832.8,1358.9c0,0,46.2,14.5,21.1,94.2c-25.1,79.7-88.1-9.2-81.5-57.8
							C779,1346.8,832.8,1358.9,832.8,1358.9z"/>
					</g>
				</g>
			</g>
		</g>
	</g>
	<g>
		<g>
			<g>
				<g>
					<g>
						<path class="st27" d="M858.6,1405.4c0,0-22.9,22.5-61.3,25.3c0,0-14.8,17.3-15.9,24.1c0,0-34.3-58.4,7.9-93.4
							C831.3,1326.5,874.1,1391,858.6,1405.4z"/>
					</g>
				</g>
			</g>
		</g>
	</g>
	<g>
		<g>
			<g>
				<g>
					<g>
						<path class="st13" d="M797.7,1432.3c-0.3-5.8-3.9-19-12.5-15.3c-8.6,3.7,0.5,30.6,6.2,28.9
							C791.5,1446,798.4,1446.1,797.7,1432.3z"/>
					</g>
				</g>
			</g>
		</g>
	</g>
	<g>
		<path class="st10" d="M828.3,1484.8c-0.3,3-0.6,6.4-0.8,9.8c0,0-20.4-1.2-34-31.5C794.3,1464.4,809.2,1486.3,828.3,1484.8z"/>
	</g>
</g>
<g>
	
		<linearGradient id="SVGID_00000116199112507109942840000013857176881161403291_" gradientUnits="userSpaceOnUse" x1="-2809.9622" y1="1225.1874" x2="-2682.5623" y2="1225.1874" gradientTransform="matrix(-1 0 0 -1 -2230.8386 3198.7747)">
		<stop  offset="0" style="stop-color:#3076A1"/>
		<stop  offset="1" style="stop-color:#48C9B6"/>
	</linearGradient>
	<path style="fill:url(#SVGID_00000116199112507109942840000013857176881161403291_);" d="M454.5,2213.3
		c29.6-20.8,64.2-165.9,66.3-252.3c1.1-44.3,14.1-62.7,25.7-79c11-15.6,20.6-29,15-59.8c-10.6-58.9,17.3-84.4,17.6-84.6l-3.2-3.7
		c-1.2,1.1-30.3,27.3-19.2,89.2c5.2,28.8-3.4,40.9-14.2,56.1c-11.4,16-25.5,35.9-26.6,81.7c-2.2,92.7-37.6,229.7-64.2,248.4
		L454.5,2213.3z"/>
</g>
<g>
	
		<linearGradient id="SVGID_00000070094786649322002640000005169523827907120059_" gradientUnits="userSpaceOnUse" x1="-2710.9297" y1="1119.9283" x2="-2479.3728" y2="1119.9283" gradientTransform="matrix(-1 0 0 -1 -2230.8386 3198.7747)">
		<stop  offset="0" style="stop-color:#3076A1"/>
		<stop  offset="1" style="stop-color:#48C9B6"/>
	</linearGradient>
	<path style="fill:url(#SVGID_00000070094786649322002640000005169523827907120059_);" d="M392.4,2171c-2.8-6.3-5.7-12.9-9-19.8
		c-16.9-35.7-31.9-41.6-56.7-51.3c-6.1-2.4-12.9-5.1-20.5-8.5c-35.5-16-28.7-39.5-22.6-60.3c0.8-2.9,1.7-5.8,2.4-8.7
		c3.1-12.2-2.9-18.3-12-27.6c-6.8-6.9-15.2-15.5-21.7-29c-7.1-14.8-3.5-22.8,0.8-26.8c9-8.5,29.8-7,49.4,3.7
		c6.1,3.3,11.1,8.6,16.4,14.2c12.5,13.1,28.1,29.4,67.5,29.6c22.5,0.1,34.8,3.2,41.1,10.4c7.2,8.1,5.9,20.3,4,37.1
		c-0.7,5.8-1.4,12.4-1.8,19.6c-2.7,42.5,22.4,73.2,22.7,73.5c15,17.9,33.5,54.9,25.5,77.8c-3.3,9.6-10.8,15.6-22.2,17.9
		c-4.5,0.9-8.7,1.4-12.5,1.4C415.8,2224.1,405.8,2201.2,392.4,2171z M300.4,1947c-17.5-9.6-36.3-11.5-43.7-4.5
		c-5.6,5.3-3,14.5,0.2,21.2c6.1,12.8,13.9,20.7,20.7,27.7c9.5,9.7,17,17.4,13.2,32.3c-0.7,2.9-1.6,5.9-2.5,8.8
		c-6,20.7-11.8,40.2,19.9,54.5c7.4,3.3,14.2,6,20.3,8.4c25.1,9.8,41.6,16.3,59.3,53.8c3.3,7,6.2,13.5,9,19.9
		c15.3,34.7,24.6,55.7,58,48.9c9.6-1.9,15.8-6.9,18.6-14.7c7-20.1-9.8-55.3-24.6-73c-1.1-1.3-26.6-32.4-23.8-77
		c0.5-7.2,1.2-13.9,1.9-19.8c1.7-15.6,3-26.8-2.8-33.3c-5.3-5.9-16.9-8.6-37.5-8.7c-41.5-0.2-57.8-17.3-71-31.1
		C310.4,1954.7,305.8,1950,300.4,1947L300.4,1947z"/>
</g>
<g>
	
		<linearGradient id="SVGID_00000129927040049989681250000004081034313081950598_" gradientUnits="userSpaceOnUse" x1="-2691.1621" y1="1086.3873" x2="-2517.2622" y2="1086.3873" gradientTransform="matrix(-1 0 0 -1 -2230.8386 3198.7747)">
		<stop  offset="0" style="stop-color:#3076A1"/>
		<stop  offset="1" style="stop-color:#48C9B6"/>
	</linearGradient>
	<path style="fill:url(#SVGID_00000129927040049989681250000004081034313081950598_);" d="M455.4,2252.3l4.9-0.3
		c-0.2-4.6-6.4-112.9-49.9-144.5c-47.7-34.8-62.7-72.1-69.9-97.2c-8.4-29.5-51.4-37.4-53.2-37.8l-0.9,4.8
		c0.4,0.1,41.8,7.7,49.4,34.3c7.4,25.8,22.8,64.2,71.7,99.8C449.1,2141.8,455.3,2251.2,455.4,2252.3z"/>
</g>
<g>
	
		<linearGradient id="SVGID_00000183235430919439750100000005512463708146272908_" gradientUnits="userSpaceOnUse" x1="-2901.2913" y1="1263.1182" x2="-2640.219" y2="1263.1182" gradientTransform="matrix(-1 0 0 -1 -2230.8386 3198.7747)">
		<stop  offset="0" style="stop-color:#3076A1"/>
		<stop  offset="1" style="stop-color:#48C9B6"/>
	</linearGradient>
	<path style="fill:url(#SVGID_00000183235430919439750100000005512463708146272908_);" d="M447.1,2276.7
		c-10.2-5.1-9.9-25.6-9.3-56.6c0.7-39.2,1.7-92.8-18.8-142.2c-21.8-52.4-2.4-67.7,16.4-82.6c21-16.6,40.9-32.3,2.8-103
		c-17.5-32.5-23.1-54.5-17.5-69.2c5.5-14.5,21-20.2,37.4-26.2c28.3-10.3,60.3-22.1,56.2-81.9c-1.3-18.3,0.9-29.6,6.8-35.5
		c6.4-6.4,15.8-5.7,26.8-4.9c16.5,1.2,35.2,2.6,51.5-18.7c1.7-5.3,17.3-52.7,35.9-60.9c3.9-1.7,7.8-1.7,11.4,0.1l0,0
		c12.9,6.2,20.3,13.5,22.8,22.3c4.3,15.4-7,32.8-20,52.9c-20.5,31.6-43.8,67.5-19.7,110.2c31.9,56.4,15.1,76.2-8.3,103.5
		c-13.4,15.7-28.5,33.4-38.7,62.3c-8.1,23.3,5.8,45.5,19.2,66.9c16.9,26.9,34.3,54.8-2.4,78.9c-60.7,39.9-120.7,170.3-121.3,171.6
		l-0.2,0.5l-0.5,0.4c-11.2,8.8-19.3,12.9-25.5,12.9C450.3,2277.8,448.6,2277.4,447.1,2276.7z M596.9,2088.2c32.7-21.5,18-45,1-72.2
		c-13.4-21.4-28.6-45.7-19.7-71.1c10.4-29.8,25.9-47.9,39.6-63.9c22.9-26.8,38-44.5,7.7-97.9c-25.6-45.3-0.4-84.1,19.8-115.2
		c12.4-19.1,23.2-35.7,19.4-48.9c-2.1-7.4-8.7-13.7-20.2-19.2l0,0c-2.3-1.1-4.7-1.1-7.3,0c-17.3,7.5-33.2,57.7-33.3,58.2l-0.1,0.4
		l-0.3,0.3c-18,23.7-39.1,22.2-56,20.9c-10.1-0.7-18.1-1.3-23,3.5c-4.8,4.7-6.5,15.1-5.4,31.7c4.4,63.5-31,76.4-59.4,86.8
		c-16,5.8-29.7,10.9-34.5,23.3c-5,13.3,0.4,34,17.2,65.1c40.1,74.4,17.7,92.1-4.1,109.2c-18.2,14.3-35.3,27.8-14.9,76.8
		c20.9,50.3,19.9,104.5,19.2,144.1c-0.5,27-0.9,48.4,6.6,52.1c4.4,2.2,12.7-1.5,24.8-10.9C479,2250.8,536.4,2128,596.9,2088.2z"/>
</g>
<linearGradient id="SVGID_00000148638051281571643130000007355180526291495333_" gradientUnits="userSpaceOnUse" x1="514.9966" y1="977.9897" x2="363.0199" y2="1433.9211" gradientTransform="matrix(1 0 0 -1 0 3198.7747)">
	<stop  offset="0" style="stop-color:#008BE9"/>
	<stop  offset="1" style="stop-color:#004FD4"/>
</linearGradient>
<path style="fill:url(#SVGID_00000148638051281571643130000007355180526291495333_);" d="M351.3,1708.4c30.9-10.6,24.5,49,37.5,93
	c13.1,44.1,145.2,19.2,89.8,129.5s70.2,36.9,32.6,133.2c-37.5,96.3-3.3,199.2-44.1,173.1c-40.8-26.2-22.9-147.4-65.3-161.8
	c-42.4-14.4-49.4-31.2-7.3-70.4c42-39.2-110.1-78-72.5-157.1C359.4,1768.8,315.6,1720.7,351.3,1708.4z"/>
<g>
	<path class="st3" d="M452.9,2230.9c3.9-16.5,37.1-161.5,6.1-179.1c-27.3-15.5-26.6-75.6-22.4-132.3c3.8-50.2-60.8-73.7-63.5-74.7
		l-1.6,4.6c0.6,0.2,63.7,23.2,60.3,69.7c-4.4,58.3-4.8,120.1,24.8,136.9c23.5,13.3,1.9,129.9-8.5,173.7L452.9,2230.9z"/>
</g>
<linearGradient id="SVGID_00000026164542903098186900000002460529229075571099_" gradientUnits="userSpaceOnUse" x1="397.4231" y1="680.2249" x2="473.4118" y2="1007.7975" gradientTransform="matrix(1 0 0 -1 0 3198.7747)">
	<stop  offset="0" style="stop-color:#C9C4C1"/>
	<stop  offset="1" style="stop-color:#FFF6DE"/>
</linearGradient>
<polygon style="fill:url(#SVGID_00000026164542903098186900000002460529229075571099_);" points="569.5,2179.3 525.4,2346.6 
	426.8,2346.6 382.7,2179.3 "/>
<linearGradient id="SVGID_00000056403745231337967460000011603179054698063030_" gradientUnits="userSpaceOnUse" x1="363.1897" y1="935.7873" x2="549.9897" y2="935.7873" gradientTransform="matrix(1 0 0 -1 19.5338 3198.7747)">
	<stop  offset="0" style="stop-color:#C9C4C1"/>
	<stop  offset="1" style="stop-color:#FFF6DE"/>
</linearGradient>
<path style="fill:url(#SVGID_00000056403745231337967460000011603179054698063030_);" d="M569.5,2179.3c0,0-97.1,18.2-97.1,167.4
	h-45.6l-44.1-167.4H569.5z"/>
<path class="st24" d="M1677.9,1125.4h-291.1c-26.6,0-48.2-21.6-48.2-48.2V824.6c0-26.6,21.6-48.2,48.2-48.2h291.1
	c26.6,0,48.2,21.6,48.2,48.2v252.6C1726.1,1103.8,1704.5,1125.4,1677.9,1125.4z"/>
<g>
	<rect x="1515.5" y="1059.4" class="st21" width="30.7" height="5.7"/>
</g>
<g>
	<g>
		<g>
			<g>
				<path class="st42" d="M1558.7,745.8c0,0,24.8,13.6,16.9,47c-7.9,33.4-10.9,37.9-4.5,51.4s12,70.1,5.2,80.5s-75.9-50.5-83.6-99.2
					c-7.7-48.7,9.6-69.4,15.7-77.1S1536.8,733.4,1558.7,745.8z"/>
			</g>
		</g>
	</g>
	<g>
		<path class="st8" d="M1605.2,1022.2h-26.5c-1.3-13.1-2.5-22.2-2.2-23.5c0.4-2.2-26.4-72.4-28.9-78.3c-2.5-5.8-12.3-21.4-13.6-36
			c-1.3-14.7,17.8-20.6,17.8-20.6c25.8,4.6,34.6,40.3,34.6,40.3s10.8,72.4,16.3,92.8C1604.1,1002.1,1604.8,1011.4,1605.2,1022.2z"/>
	</g>
	<path class="st43" d="M1591.8,921.5l-39.5,16.6c0,0-36.3-90.1-5.9-80S1590.4,887.1,1591.8,921.5z"/>
	<g>
		<path class="st43" d="M1583,963.9c-1.2,8.9-5.9,40.6-4.8,49.2c0.2,1.4,0.8,4.7,1.6,9.1h-95.2c2.5-9,4.8-17,6.2-21.7
			c4.6-15.3,0.2-19.4-2.1-31.7c-0.9-4.8-4.1-13.9-7.6-24.2c-1.2-3.4-2.4-7-3.5-10.6c-4.2-13-6.1-26.3-7.3-34
			c-5.7-36.6,22.4-40.1,22.4-40.1c10.5-1.9,28.8-7.6,28.8-7.6l28.6,6c0,0,2.7,1,6.7,4l0,0c1.9,1.4,4.1,3.3,6.4,5.6
			c3.1,3.2,9.4,12.4,15.6,22.5c1.9,3.1,3.8,6.3,5.6,9.4c5.8,10.1,10,18.2,9.8,27.4C1594.2,936.1,1584.2,955,1583,963.9z"/>
	</g>
	<path class="st8" d="M1550.1,858.2c0,0,17.9,30.7,11.3,33c-6.7,2.3-41.8-5.5-55.6-34.4C1505.8,856.7,1528.9,846.2,1550.1,858.2z"/>
	<path class="st8" d="M1547.5,872.2c0,0-15.9,6.7-30.4-15.5c0,0,3.9-25.2-4.3-39.8c-8.2-14.6,35.8,17.5,35.8,17.5s-0.7,3-1.5,7.4
		c-0.4,2.3-0.8,4.9-1.1,7.7c-0.2,2.3-0.4,4.8-0.5,7.2C1545.5,862.5,1545.9,868.1,1547.5,872.2z"/>
	<path class="st44" d="M1508,906.5c-3.3,16.9-26.8,38-26.8,38c-1.2-3.4-2.4-7-3.5-10.6C1493.9,923.6,1508,906.5,1508,906.5z"/>
	<g>
		<path class="st8" d="M1502.1,920c-1.5,6.2-8.4,68.4-7.6,70.6c0.4,1.2,3.8,15.6,7.1,31.6h-30.7c-3.1-10.3-5-18.9-4.6-23.7
			c2-21-5.2-88-5.2-88s-6.4-40.5,27.2-45.6c0,0,19.9,2.6,21.1,17.3C1510.6,896.8,1503.6,913.8,1502.1,920z"/>
	</g>
	<path class="st43" d="M1458.6,928.6l41.7,9.7c0,0,33.1-64.3,3.3-76C1472.2,850,1451.1,893.5,1458.6,928.6z"/>
	<g>
		<g>
			<g>
				<path class="st13" d="M1554.8,749.4c0,0,36.3,13.3,13.3,75.9s-69.9-10.7-62.8-49.1C1512.4,737.7,1554.8,749.4,1554.8,749.4z"/>
			</g>
		</g>
	</g>
	<g>
		<g>
			<g>
				<path class="st42" d="M1573.7,787.4c0,0-19.1,17.1-49.9,17.9c0,0-7.2,17.5-8.3,22.9c0,0-30.3-52.1,4.5-78.4
					C1554.9,723.4,1586.5,776.5,1573.7,787.4z"/>
			</g>
		</g>
	</g>
	<g>
		<g>
			<g>
				<path class="st13" d="M1528,809.1c0-4.6-2.4-15.3-9.4-12.7c-7,2.6-0.7,24.4,3.9,23.3C1522.5,819.7,1528,820,1528,809.1z"/>
			</g>
		</g>
	</g>
	<path class="st10" d="M1545.7,855.8c-17-4.7-23.6-21-23.8-21.5c13.9,17.9,24.3,15.3,24.3,15.3
		C1545.9,851.9,1545.9,853.4,1545.7,855.8z"/>
</g>
<g>
	<path class="st21" d="M1624.5,839.6v5.6h32.8V876h5.6v-36.3L1624.5,839.6L1624.5,839.6z M1401.9,875.9h5.6v-30.8h32.8v-5.6H1402
		L1401.9,875.9L1401.9,875.9z M1657.2,1034.6v30.8h-32.7v5.6h38.3v-36.3h-5.6V1034.6z M1407.5,1034.6h-5.6v36.3h38.3v-5.5h-32.7
		V1034.6z"/>
</g>
<g>
	<rect x="1002.5" y="1320.2" class="st21" width="41.1" height="7.6"/>
</g>
<g>
	<path class="st21" d="M1146.1,1026.5v7.4h43.8v41.1h7.4v-48.5H1146.1z M848.8,1075h7.4v-41.1H900v-7.4h-51.2V1075z M1189.8,1287
		v41.1H1146v7.4h51.2V1287H1189.8z M856.2,1287h-7.4v48.5H900v-7.4h-43.8V1287z"/>
</g>
<g>
	<g>
		<path class="st45" d="M1940.1,1597.7h-34.7c-0.6-1.4-1.1-2.6-1.6-3.6c-10.3-24.3-63.4-80.1-63.4-80.1s0,0,0,0.1c0,0,0,0,0,0.1
			c0,0,0,0,0,0.1s-0.1,0.2-0.1,0.2c0,0.1-0.1,0.3-0.1,0.5c0,0.1-0.1,0.2-0.1,0.3s-0.1,0.2-0.1,0.2c-2.2,8.1-12.9,48.6-18.2,82.2
			h-235c-0.5-3.1-1.2-6.1-1.9-8.8c-2.1-8.3-3.6-16.6-4.5-24.3c0-0.4-0.1-0.8-0.1-1.1c-0.2-1.4-0.3-2.8-0.5-4.2
			c-2-21.1-0.5-37.3-0.4-38.9c-0.7,1.4-5.4,18.8-11.6,40.3c-3.4,11.8-7.3,24.8-11.1,37.1h-55.5l69.6-200.9
			c1.5-1.2,19.6-9.9,32.8-16.2c13.4-6.4,29.7-15.8,44.3-23.8c7.5-4.1,14.6-7.8,20.7-10.6l0.9-0.4l0,0c10.1-4.6,16.9-7.7,16.9-7.7
			l0,0c0.2,0,1.8-0.2,4.4-0.4c14.1-1.4,58-5.5,72.7-6.3c1.2-0.1,2.2-0.1,3-0.2c0.7,0,1.2,0,1.5,0c1.8,0.1,10.9,3.3,22.8,7.8
			c0.5,0.2,0.9,0.3,1.4,0.5c0.6,0.2,1.1,0.4,1.7,0.6c1,0.4,2.1,0.8,3.1,1.2c2.1,0.8,4.3,1.7,6.5,2.6c0.8,0.3,1.5,0.6,2.3,0.9
			c23.8,9.4,51,21.1,57.5,25.8c4.3,3.1,17.6,28.2,33.1,59.2C1913.1,1483,1933.4,1559.8,1940.1,1597.7z"/>
	</g>
	<g>
		<path class="st8" d="M1767.7,1324.3c-0.6,31.6-61.8,48.9-61.8,48.9s-25.6-32.1-19.5-35.1c2.4-1.2,3.4-6,3.7-11.4
			c0.3-5.1,0-10.7-0.3-14.3c-0.2-2.2-0.4-3.7-0.4-3.7s8.7-9.2,19.9-20.2c19.4-19.2,46.1-43.8,46.2-34c0,0.5-0.1,1.1-0.2,1.9
			C1750.5,1278.3,1767.7,1324.3,1767.7,1324.3z"/>
	</g>
	<g>
		<path class="st10" d="M1744.1,1278L1744.1,1278c-0.1,0.2-2.7,4.1-7.1,9.6c-9.4,11.8-27,31.2-46.9,39c0.3-5.1,0-10.7-0.3-14.3
			c-2-0.1-4.1-0.3-6.1-0.7c5.4-9.5,13.3-19.5,13.3-19.5l12.3-3.7L1744.1,1278z"/>
	</g>
	<g>
		<path class="st8" d="M1755.8,1254.9c-5.3,11.5-10.3,19.9-11.7,23.2l0,0c-0.9,2.2-3.5,5.7-7.1,9.6c-10.1,10.9-28.8,25.2-47.2,24.7
			c-2-0.1-4.1-0.3-6.1-0.7c-7.4-1.6-16.2-5.1-21-14.5c-38.2-74.7-10.5-135.8-10.5-135.8s104.3-29.5,120.6,1.9
			C1784.2,1185.2,1768.3,1227.8,1755.8,1254.9z"/>
	</g>
	<g>
		<path class="st14" d="M1652.1,1161.3c0,0-9.7-0.5-12.1-18.9c-2.4-18.1,2.4-23.2,2.4-23.2s43.1-18,58.5-20.4
			c15.5-2.3,53.5-4.6,62.4,5.6c0,0,21.7-5,27.6,30.9c9.4,57-31.9,112.4-31.9,112.4s0.4-37.3-7.9-42.2c-8.2-4.9-15.3,6.8-15.3,6.8
			l-16.8,3c0,0,25.5-55.1-5.1-57.2C1683.3,1156.2,1669.6,1164.5,1652.1,1161.3z"/>
	</g>
	<g>
		<path class="st8" d="M1736.3,1197.5c1.6-16.4,31.3-22.7,29.3-5.5c-2,17.2-16.6,33.7-23.4,33.2
			C1735.5,1224.6,1735.1,1210,1736.3,1197.5z"/>
	</g>
	<g>
		<path class="st7" d="M1910.1,1431.3c-9.7-31-18-55.5-21.8-58.1c-6.5-4.7-58-18.8-82.4-28.4c-0.8-0.3-1.6-0.6-2.3-0.9
			c-2.2-0.9-4.4-1.7-6.5-2.6c-1.1-0.4-2.1-0.8-3.1-1.2c-0.6-0.2-1.1-0.4-1.7-0.6c-0.5-0.2-0.9-0.4-1.4-0.5l-0.1,0.1
			c-2.2,2.4-13.5,15.3-27,34.5c-25.3,35.9-58.2,94.1-53.1,147.8c1.6,17.2,3.6,42,7,69.8c0.2,2.2,0.5,4.4,0.8,6.6h114
			c1.4-29.1,3.9-67.4,7.6-82.2c0-0.1,0.1-0.2,0.1-0.2c0-0.1,0-0.2,0.1-0.3c0-0.2,0.1-0.3,0.1-0.5c0-0.1,0.1-0.2,0.1-0.2v-0.1v-0.1
			c0,0,27.6,43.1,29,83.6h71.7C1937.6,1560.2,1926.7,1484.5,1910.1,1431.3z"/>
	</g>
	<g>
		<path class="st7" d="M1669.1,1346.5c0,0-8.6,28.7-19.7,100.2l0,0c-0.4,2.4-0.8,4.8-1.1,7.3c0,0.3-0.1,0.6-0.1,0.9
			c-0.3,1.6-0.5,3.3-0.8,5c0,0.2-0.1,0.4-0.1,0.6c-0.2,1.1-0.4,2.3-0.5,3.4c-0.4,2.8-0.8,5.7-1.3,8.6c-4.2,29.2-9.7,75.6-15.4,125.1
			H1585c-2.4-13.8-4.7-26.3-4.6-34.8c-0.1,0.2-0.2,0.4-0.2,0.6c-3.6,10-7.6,20.8-11.6,31.4c-0.4,1-0.7,1.9-1.1,2.9h-77.7l77.4-202.4
			c1.5-1.2,21.5-11.9,34.6-18.2c13.8-6.6,31.1-14.6,46.5-21.7c7.4-3.4,14.3-6.6,20.2-9.3L1669.1,1346.5z"/>
	</g>
	<g>
		<path class="st46" d="M1773.9,1417.3l-29.8,16.8l12.7,13l-27.9,150.7h-10.5c-3.9-30.5-6.1-57.8-7.8-76.4
			c-7.8-83.1,75.1-176.7,80.2-182.4c4,1.5,8.3,3.2,12.7,4.9L1773.9,1417.3z"/>
	</g>
	<g>
		<path class="st46" d="M1669.5,1345.7c0,0-11.1,36.3-24.1,126.9c-4.2,29.2-9.8,75.6-15.4,125.1h-4.4l-5.8-142.4l14.2-15.4
			l-12.6-15.7l27-68.8c7.4-3.4,14.3-6.6,20.2-9.3L1669.5,1345.7z"/>
	</g>
	<g>
		<path class="st47" d="M1792.3,1339.3l-24.7-15c0,0-0.7,13.5-61.8,48.9l17.3,48.9L1792.3,1339.3z"/>
	</g>
	<g>
		<path class="st47" d="M1689.6,1331.1c0,0,1,14.6,16.3,42.1l-33.9,44.1l-2.5-71.6L1689.6,1331.1z"/>
	</g>
	<g>
		<path class="st48" d="M1706,1373.2c0,0,6.6,26.2,4.2,33.6c0,0-14.4,5.2-24.8-1.3C1685.4,1405.4,1692.7,1387.1,1706,1373.2z"/>
	</g>
	<g>
		<path class="st48" d="M1698,1462.4c-6.9,47.1-6.9,94.8-4.4,135.3h-28.9c-0.4-5.7-0.8-11.7-1.1-17.9
			c-5.4-93.4,27.6-176.8,27.6-176.8l14.7-3.7C1706,1399.4,1701.2,1440.6,1698,1462.4z"/>
	</g>
	<g>
		<path class="st49" d="M1581.4,1520.6c-1.1,22.4-0.9,42.3-0.9,42.3l0,0c0,0.1,0,0.7-0.1,1.7c0-0.4-0.1-0.8-0.1-1.1
			c-3.6,10-7.6,20.8-11.6,31.4c-0.9-12.2-1.2-23.6-0.9-34.2c1.6-62.8,21.4-95.7,21.4-95.7
			C1584.6,1475.9,1582.4,1499.3,1581.4,1520.6z"/>
	</g>
</g>
<g>
	<g>
		<polygon class="st50" points="1311,1598 1218.6,1648.8 1125.8,1502.8 1238.1,1463.8 		"/>
	</g>
	<g>
		<polygon class="st3" points="1305.2,1593.6 1218.8,1641.1 1132,1504.5 1236.9,1468.1 		"/>
	</g>
	<g>
		<path class="st8" d="M1336.8,1568.1c0,0-16.1-7.7-23.1-11.7c-7.1-4-25.2-9.5-26.7-10.9c-1.5-1.3-53.8-4.5-57-7.3
			c-3.2-2.7-6.3,6.4,7.3,9.4c13.6,3,32.5,10.2,33.5,15.5c1,5.3-13.9,6.6-15.5,10.9c-1.5,4.4,0.4,3.4,2.6,4.3
			c2.1,0.9,17.8-7.7,24.7-5.3c6.9,2.5,17.4-0.9,22.7,0.9c5.3,1.8,31,10.4,31,10.4L1336.8,1568.1z"/>
	</g>
	<g>
		<path class="st8" d="M1214.1,1630.5c0,0-13.5-12.2-20.1-17.2c-6.5-5.1-18.8-20.1-20.6-20.9c-1.8-0.9-25.2-49-29.1-50.9
			c-3.8-1.9,3.6-8.4,11.7,3.2c8.1,11.6,22.3,26.6,27.7,25.5s0.8-15.7,4.3-18.8s3.4-0.9,5.1,0.7c1.7,1.7-0.4,19.8,4.6,25.3
			s5.9,16.8,9.6,21.1c3.8,4.3,21.9,25.1,21.9,25.1L1214.1,1630.5z"/>
	</g>
	<g>
		<path class="st51" d="M1505.1,2280.5c0,0,2.9,20.3,3.3,23.3s32.5-1.8,32.5-1.8l2.6-24.2
			C1543.5,2277.9,1509.2,2277.6,1505.1,2280.5z"/>
	</g>
	<g>
		<path class="st50" d="M1508.1,2301.3c0,0-10.2,12.2-20,17.6c-9.9,5.3-25.3,7.4-31.2,13c-4.2,4-15.3,21.1,25.6,20.8
			s60.6,2.4,65-4.2c4.4-6.6-6.3-48.5-6.3-48.5S1531.5,2303.4,1508.1,2301.3z"/>
	</g>
	<g>
		<path class="st51" d="M1274.8,2280.5c0,0,2.9,20.3,3.3,23.3s32.5-1.8,32.5-1.8l2.6-24.2
			C1313.2,2277.9,1278.8,2277.6,1274.8,2280.5z"/>
	</g>
	<g>
		<path class="st50" d="M1277.7,2301.3c0,0-10.2,12.2-20,17.6c-9.9,5.3-46.1,9.7-51.9,15.2c-4.2,4-11.2,20,46.4,18.5
			c40.9-1.1,60.6,2.4,65-4.2c4.4-6.6-6.3-48.5-6.3-48.5S1301.7,2303.6,1277.7,2301.3z"/>
	</g>
	<g>
		<path class="st50" d="M1478.5,1759.2c0,0,30.2,48,28,91.4c-2.3,43.4,11,90.8,15.5,136.1c5.1,50.5,25.8,170.1,26.5,197.2
			c0.8,27-3.2,113.3-3.2,113.3l-41.4,0.9c0,0-34.8-209.1-43.8-230.5c-9-21.3-53.7-173.5-55.2-190.5
			C1403.3,1860,1478.5,1759.2,1478.5,1759.2z"/>
	</g>
	<g>
		<path class="st50" d="M1319.5,1765.7c0,0-22.8,118.9-25.8,145.5s-5,128.5-6.5,145.1c-1.5,16.6-10,217.2-18,241.8h53
			c0,0,40.7-145.8,40.7-214.8s31.4-150,51.7-195.5c20.3-45.5,66.7-46.6,79.2-131C1493.7,1756.7,1336.4,1738.9,1319.5,1765.7z"/>
	</g>
	<g>
		<path class="st8" d="M1428.1,1355.7c0,0-40.5-15.1-59.2,15.7c-18.7,30.8-16.9,92.7,3.5,100.3s51.1,3.6,61.6-15.7
			c10.5-19.3,19.9-47.2,19.5-65.9C1453,1371.4,1438.7,1361.1,1428.1,1355.7z"/>
	</g>
	<g>
		<path class="st8" d="M1376.8,1473.1c0,0,1.7,10.9-1.1,16.3c-2.8,5.4,52.5,5.5,52.5,5.5s4.5-29.3,13-54.1
			C1449.8,1416,1376.8,1473.1,1376.8,1473.1z"/>
	</g>
	<g>
		<path class="st52" d="M1441.2,1440.8c0,0-3.8,6.3-19.4,3.9c-15.6-2.4-34.6-23.2-41.1-25.5c-6.5-2.3-6.6-6.1-6.6-6.1l-4.1,6
			l-6.9,0.4c0,0,6.3-18.5-3.2-26.1s9.9-60,59.9-42.6c0,0,38.4,10.6,37,32.4C1455.4,1405.1,1449.8,1429.9,1441.2,1440.8z"/>
	</g>
	<g>
		<path class="st53" d="M1372.4,1488.7c0,0,0.2-10.3,4.8-11.3c4.7-1,51.6-5.5,57.3-3.2v12C1434.5,1486.2,1423.5,1493,1372.4,1488.7z
			"/>
	</g>
	<g>
		<path class="st8" d="M1375.2,1405.2c0.9-3.7,10.2-14.1,13.8-2.9c3.6,11.2-5.4,26.3-10.4,25
			C1373.6,1425.9,1373,1414.5,1375.2,1405.2z"/>
	</g>
	<g>
		<path class="st18" d="M1186.4,1610.5L1186.4,1610.5C1186.1,1610.6,1186.1,1610.6,1186.4,1610.5z"/>
	</g>
	<g>
		<path class="st54" d="M1512.6,1873.5c0,0-24.9,7.3-67.3,12s-148.4-1.7-149-6.7c-0.7-5,22.8-186.5,21.5-195.9
			c-1.3-9.3-2.1-42.7-2.1-42.7c-0.5,9.1-9.8,46.4-21,66.7c-4.1,7.3-17.7,30.4-24.2,25.1c-31.7-25.3-80.9-120.8-84-121.6
			c2.6-1.1,23.3-10.7,26.2-11.6c2.5-0.8,25.4,23.4,39.3,38.4c6.2,6.7,10.6,11.6,10.6,11.6c4-9,18.6-65.8,23.1-85.5
			c10.2-44.3,8.7-46.2,8.7-46.2c31-9.4,78.1-28.5,78.1-28.5l62.1-2.5c0,0,57,12.6,79.5,22.7c2.1,1,2.1,50.9,8,64l-18.6,39.3
			c0,0-10.8,77.8-13,112.4C1489.4,1740.4,1512.6,1873.5,1512.6,1873.5z"/>
	</g>
	<g>
		<path class="st54" d="M1524.6,1637.7c-1.6,5.2-9,9.7-13.8,11.6c-3.1,1.2-6.5,1.6-9.9,1l-2.4-0.5l0,0l-42.6-7.9
			c0,0-9.3-107.3,58.2-133C1515.8,1509.5,1539.5,1589.6,1524.6,1637.7z"/>
	</g>
	<g>
		<path class="st55" d="M1510.8,1649.3L1510.8,1649.3c-3.1,1.2-6.5,1.6-9.9,1l-2.4-0.5l0,0l4.2-54.8L1510.8,1649.3z"/>
	</g>
	<g>
		<path class="st55" d="M1262.5,1648.8l-5.2,22c0,0-5.6-22.1-5.4-33.6C1258.1,1644,1262.5,1648.8,1262.5,1648.8z"/>
	</g>
	<g>
		<path class="st52" d="M1439.6,1359.3c0,0,53.1-6.7,0.9,82.1L1439.6,1359.3z"/>
	</g>
	<g>
		<polygon class="st50" points="1168.6,1494.9 1163.2,1485.6 1205.7,1471 1211.1,1480.2 		"/>
	</g>
</g>
<g class="st56">
	
		<linearGradient id="SVGID_00000028314680122779554470000015212459055621685129_" gradientUnits="userSpaceOnUse" x1="1970.8236" y1="2111.1372" x2="2010.2235" y2="2111.1372" gradientTransform="matrix(1 0 0 -1 0 3198.7747)">
		<stop  offset="0" style="stop-color:#D1D7E0"/>
		<stop  offset="1" style="stop-color:#EBEBFF"/>
	</linearGradient>
	<polygon style="fill:url(#SVGID_00000028314680122779554470000015212459055621685129_);" points="1980.1,1097.2 2010.2,1097.2 
		2001,1078.1 1970.8,1078.1 	"/>
	
		<linearGradient id="SVGID_00000141413452181142602890000011572171839792187275_" gradientUnits="userSpaceOnUse" x1="1956.7487" y1="2111.1372" x2="1973.1487" y2="2111.1372" gradientTransform="matrix(1 0 0 -1 0 3198.7747)">
		<stop  offset="0" style="stop-color:#D1D7E0"/>
		<stop  offset="1" style="stop-color:#EBEBFF"/>
	</linearGradient>
	<polygon style="fill:url(#SVGID_00000141413452181142602890000011572171839792187275_);" points="1966,1097.2 1973.1,1097.2 
		1963.9,1078.1 1956.7,1078.1 	"/>
	
		<linearGradient id="SVGID_00000047766443281860471580000009796229260473221049_" gradientUnits="userSpaceOnUse" x1="1857.8236" y1="2129.1372" x2="1983.9236" y2="2129.1372" gradientTransform="matrix(1 0 0 -1 0 3198.7747)">
		<stop  offset="0" style="stop-color:#D1D7E0"/>
		<stop  offset="1" style="stop-color:#EBEBFF"/>
	</linearGradient>
	<polygon style="fill:url(#SVGID_00000047766443281860471580000009796229260473221049_);" points="1861.8,1074.4 1983.9,1074.4 
		1979.8,1064.9 1857.8,1064.9 	"/>
</g>
<g>
	<g>
		
			<linearGradient id="SVGID_00000031184984001115114850000013445829890386415272_" gradientUnits="userSpaceOnUse" x1="1157.4236" y1="2437.1873" x2="1209.1235" y2="2437.1873" gradientTransform="matrix(1 0 0 -1 0 3198.7747)">
			<stop  offset="0" style="stop-color:#D1D7E0"/>
			<stop  offset="1" style="stop-color:#EBEBFF"/>
		</linearGradient>
		<path style="fill:url(#SVGID_00000031184984001115114850000013445829890386415272_);" d="M1206.3,769.4h-46.1
			c-1.6,0-2.8-1.3-2.8-2.8v-10c0-1.6,1.3-2.8,2.8-2.8h46.1c1.6,0,2.8,1.3,2.8,2.8v10C1209.1,768.1,1207.9,769.4,1206.3,769.4z"/>
	</g>
	<g>
		
			<linearGradient id="SVGID_00000161599849245185673710000015430275660984511679_" gradientUnits="userSpaceOnUse" x1="1157.4236" y1="2399.8872" x2="1209.1235" y2="2399.8872" gradientTransform="matrix(1 0 0 -1 0 3198.7747)">
			<stop  offset="0" style="stop-color:#D1D7E0"/>
			<stop  offset="1" style="stop-color:#EBEBFF"/>
		</linearGradient>
		<path style="fill:url(#SVGID_00000161599849245185673710000015430275660984511679_);" d="M1206.3,806.7h-46.1
			c-1.6,0-2.8-1.3-2.8-2.8v-10c0-1.6,1.3-2.8,2.8-2.8h46.1c1.6,0,2.8,1.3,2.8,2.8v10C1209.1,805.5,1207.9,806.7,1206.3,806.7z"/>
	</g>
	<g>
		
			<linearGradient id="SVGID_00000021832926516474166000000018145990844097250449_" gradientUnits="userSpaceOnUse" x1="1157.4236" y1="2362.4873" x2="1209.1235" y2="2362.4873" gradientTransform="matrix(1 0 0 -1 0 3198.7747)">
			<stop  offset="0" style="stop-color:#D1D7E0"/>
			<stop  offset="1" style="stop-color:#EBEBFF"/>
		</linearGradient>
		<path style="fill:url(#SVGID_00000021832926516474166000000018145990844097250449_);" d="M1206.3,844.1h-46.1
			c-1.6,0-2.8-1.3-2.8-2.8v-10c0-1.6,1.3-2.8,2.8-2.8h46.1c1.6,0,2.8,1.3,2.8,2.8v10C1209.1,842.8,1207.9,844.1,1206.3,844.1z"/>
	</g>
	<g>
		
			<linearGradient id="SVGID_00000047023936128080544510000002417876843480789940_" gradientUnits="userSpaceOnUse" x1="1230.5236" y1="2437.1873" x2="1245.2394" y2="2437.1873" gradientTransform="matrix(1 0 0 -1 0 3198.7747)">
			<stop  offset="0" style="stop-color:#D1D7E0"/>
			<stop  offset="1" style="stop-color:#EBEBFF"/>
		</linearGradient>
		<path style="fill:url(#SVGID_00000047023936128080544510000002417876843480789940_);" d="M1242.4,769.4h-9.1
			c-1.6,0-2.8-1.3-2.8-2.8v-10c0-1.6,1.3-2.8,2.8-2.8h9.1c1.6,0,2.8,1.3,2.8,2.8v10C1245.2,768.1,1244,769.4,1242.4,769.4z"/>
	</g>
	<g>
		
			<linearGradient id="SVGID_00000048479254033647257120000015696056474246965895_" gradientUnits="userSpaceOnUse" x1="1230.5236" y1="2399.8872" x2="1245.2394" y2="2399.8872" gradientTransform="matrix(1 0 0 -1 0 3198.7747)">
			<stop  offset="0" style="stop-color:#D1D7E0"/>
			<stop  offset="1" style="stop-color:#EBEBFF"/>
		</linearGradient>
		<path style="fill:url(#SVGID_00000048479254033647257120000015696056474246965895_);" d="M1242.4,806.7h-9.1
			c-1.6,0-2.8-1.3-2.8-2.8v-10c0-1.6,1.3-2.8,2.8-2.8h9.1c1.6,0,2.8,1.3,2.8,2.8v10C1245.2,805.5,1244,806.7,1242.4,806.7z"/>
	</g>
	<g>
		
			<linearGradient id="SVGID_00000150785782981492996630000009253199054244497079_" gradientUnits="userSpaceOnUse" x1="1230.5236" y1="2362.4873" x2="1245.2394" y2="2362.4873" gradientTransform="matrix(1 0 0 -1 0 3198.7747)">
			<stop  offset="0" style="stop-color:#D1D7E0"/>
			<stop  offset="1" style="stop-color:#EBEBFF"/>
		</linearGradient>
		<path style="fill:url(#SVGID_00000150785782981492996630000009253199054244497079_);" d="M1242.4,844.1h-9.1
			c-1.6,0-2.8-1.3-2.8-2.8v-10c0-1.6,1.3-2.8,2.8-2.8h9.1c1.6,0,2.8,1.3,2.8,2.8v10C1245.2,842.8,1244,844.1,1242.4,844.1z"/>
	</g>
</g>
<g>
	
		<linearGradient id="SVGID_00000028327166913173213010000016508338710648049834_" gradientUnits="userSpaceOnUse" x1="1025.6235" y1="1604.8373" x2="1096.3235" y2="1604.8373" gradientTransform="matrix(1 0 0 -1 0 3198.7747)">
		<stop  offset="0" style="stop-color:#D1D7E0"/>
		<stop  offset="1" style="stop-color:#EBEBFF"/>
	</linearGradient>
	<polygon style="fill:url(#SVGID_00000028327166913173213010000016508338710648049834_);" points="1042.2,1611.1 1096.3,1611.1 
		1079.7,1576.8 1025.6,1576.8 	"/>
	
		<linearGradient id="SVGID_00000021799323745208394570000016963335972442796959_" gradientUnits="userSpaceOnUse" x1="1000.3235" y1="1604.8373" x2="1029.7766" y2="1604.8373" gradientTransform="matrix(1 0 0 -1 0 3198.7747)">
		<stop  offset="0" style="stop-color:#D1D7E0"/>
		<stop  offset="1" style="stop-color:#EBEBFF"/>
	</linearGradient>
	<polygon style="fill:url(#SVGID_00000021799323745208394570000016963335972442796959_);" points="1016.8,1611.1 1029.7,1611.1 
		1013.2,1576.8 1000.3,1576.8 	"/>
</g>
</svg>
