<?xml version="1.0" encoding="utf-8"?>
<!-- Generator: Adobe Illustrator 26.0.1, SVG Export Plug-In . SVG Version: 6.00 Build 0)  -->
<svg version="1.1" id="Layer_1" xmlns="http://www.w3.org/2000/svg" xmlns:xlink="http://www.w3.org/1999/xlink" x="0px" y="0px"
	 viewBox="0 0 439.1 365.5" style="enable-background:new 0 0 439.1 365.5;" xml:space="preserve">
<style type="text/css">
	.st0{opacity:0.1;fill:url(#SVGID_1_);}
	.st1{opacity:0.1;fill:url(#SVGID_00000065036681922826499390000016992394613387610251_);}
	.st2{opacity:0.1;fill:url(#SVGID_00000085946215243369020220000015498050126150111107_);}
	.st3{fill:#112B46;}
	.st4{fill:#1D262D;}
	.st5{fill:#606BF1;}
	.st6{fill:#FBD15B;}
	.st7{fill:#FF8578;}
	.st8{fill:#F9FBFC;}
	.st9{fill:url(#SVGID_00000134250050130997155440000009877090684060445322_);}
	.st10{fill:#F1F2F2;}
	.st11{fill:url(#SVGID_00000165922395795729153770000017052953895498911627_);}
	.st12{fill:url(#SVGID_00000035516166757699409260000016410459757720062133_);}
	.st13{fill:#F7B094;}
	.st14{fill:#3D3D7A;}
	.st15{fill:#0A2033;}
	.st16{fill:#30475E;}
	.st17{fill:url(#SVGID_00000173875923961683277220000006169233178786611115_);}
	.st18{fill:#56548C;}
	.st19{fill:url(#SVGID_00000155129186920566440350000015113375695124416952_);}
	.st20{fill:url(#SVGID_00000062191978357540409650000016688967963436180149_);}
	.st21{fill:url(#SVGID_00000157991545515544217760000000016607822221834895_);}
	.st22{fill:url(#SVGID_00000048494686531901029920000012842233794019865217_);}
	.st23{fill:url(#SVGID_00000052787926219951368370000009906829420405128368_);}
	.st24{fill:#E8987C;}
	.st25{fill:url(#SVGID_00000021077515596548797880000014367513219979802520_);}
	.st26{fill:url(#SVGID_00000025402116324087797300000011025703546057074340_);}
	.st27{fill:url(#SVGID_00000165939042213556596530000010649038513213481917_);}
	.st28{fill:url(#SVGID_00000167386583369712210400000014733669774231607709_);}
	.st29{fill:#ABB5BA;}
	.st30{fill:#8495A0;}
	.st31{fill:none;}
	.st32{fill:#141B56;}
	.st33{fill:#A5B7C6;}
	.st34{fill:url(#SVGID_00000018923494243901507190000005064910112316912812_);}
	.st35{fill:#747DED;}
	.st36{fill:url(#SVGID_00000034048546083160927210000016622925606880451726_);}
	.st37{fill:url(#SVGID_00000065773984493762374000000003684641783965839497_);}
	.st38{fill:#95A8B5;}
</style>
<linearGradient id="SVGID_1_" gradientUnits="userSpaceOnUse" x1="0.7915" y1="233.5253" x2="429.7265" y2="233.5253">
	<stop  offset="0" style="stop-color:#C51C24"/>
	<stop  offset="1" style="stop-color:#FF0000"/>
</linearGradient>
<path class="st0" d="M429.5,243.7l-15.8,110.7H12.8L1,269.9c-1.3-9.5,3.9-18.6,12.7-22.3l35.6-14.8v-35.4c0-10.4,7.6-19.3,17.9-20.8
	l8.4-1.2l14.1-47.8c2.6-8.9,10.8-15,20.1-15h144.6c5.5,0,10.5,2.1,14.3,5.6c3.8,3.5,6.2,8.4,6.6,13.9l68.8,7.3
	c10.2,1.1,18.1,9.4,18.8,19.6l2.8,47.8l48.6,13.7C424.6,223.4,431,233.3,429.5,243.7z"/>
<linearGradient id="SVGID_00000165202912151702069450000004898649453608531361_" gradientUnits="userSpaceOnUse" x1="36.7032" y1="258.4531" x2="377.1747" y2="258.4531">
	<stop  offset="0" style="stop-color:#C51C24"/>
	<stop  offset="1" style="stop-color:#FF0000"/>
</linearGradient>
<path style="opacity:0.1;fill:url(#SVGID_00000165202912151702069450000004898649453608531361_);" d="M36.9,266.5l12.5,87.9h318.2
	l9.4-67c1-7.5-3.1-14.8-10.1-17.7l-28.2-11.7v-28.1c0-8.3-6.1-15.3-14.2-16.5l-6.7-1l-11.2-37.9c-2.1-7.1-8.6-11.9-16-11.9H175.8
	c-4.4,0-8.4,1.7-11.3,4.5c-3,2.8-4.9,6.6-5.3,11l-54.6,5.8c-8.1,0.9-14.4,7.5-14.9,15.6l-2.2,37.9l-38.6,10.9
	C40.8,250.4,35.7,258.3,36.9,266.5z"/>
<linearGradient id="SVGID_00000044175237250737235660000006689313854021683895_" gradientUnits="userSpaceOnUse" x1="37.1463" y1="299.4916" x2="300.8487" y2="299.4916">
	<stop  offset="0" style="stop-color:#C51C24"/>
	<stop  offset="1" style="stop-color:#FF0000"/>
</linearGradient>
<path style="opacity:0.1;fill:url(#SVGID_00000044175237250737235660000006689313854021683895_);" d="M299.4,321.6
	c0-9.5-6.9-17.5-16.3-18.9l-7.6-1.1l-12.8-43.4c-2.4-8.1-9.8-13.7-18.3-13.7H113c-5,0-9.6,1.9-13,5.1c-3.4,3.2-5.7,7.6-6,12.6
	l-56.9,6l12.3,86.1h251.4l-1.4-0.6V321.6z"/>
<g>
	<g>
		<rect x="94.1" y="38.2" class="st3" width="97.6" height="91.1"/>
	</g>
	<g>
		<rect x="94.1" y="38.2" class="st4" width="97.6" height="9.6"/>
	</g>
	<g>
		<g>
			<path class="st5" d="M170.5,43.1c0,1-0.8,1.8-1.8,1.8c-1,0-1.8-0.8-1.8-1.8s0.8-1.8,1.8-1.8C169.7,41.4,170.5,42.2,170.5,43.1z"
				/>
		</g>
		<g>
			<path class="st6" d="M177.9,43.1c0,1-0.8,1.8-1.8,1.8c-1,0-1.8-0.8-1.8-1.8s0.8-1.8,1.8-1.8C177.1,41.4,177.9,42.2,177.9,43.1z"
				/>
		</g>
		<g>
			<path class="st7" d="M184.7,43.3c0,1-0.8,1.8-1.8,1.8c-1,0-1.8-0.8-1.8-1.8c0-1,0.8-1.8,1.8-1.8C184,41.6,184.7,42.4,184.7,43.3z
				"/>
		</g>
	</g>
	<g>
		<g>
			<g>
				<rect x="111.4" y="56.8" class="st7" width="13.8" height="1.2"/>
			</g>
			<g>
				<rect x="127.6" y="56.8" class="st6" width="13.8" height="1.2"/>
			</g>
			<g>
				<rect x="115.7" y="63.1" class="st5" width="21.4" height="1.2"/>
			</g>
			<g>
				<rect x="140.7" y="63.1" class="st7" width="10.9" height="1.2"/>
			</g>
			<g>
				<rect x="123.1" y="69.3" class="st6" width="9.4" height="1.2"/>
			</g>
			<g>
				<rect x="138" y="69.3" class="st6" width="31.2" height="1.2"/>
			</g>
			<g>
				<rect x="130.4" y="75.6" class="st5" width="35.7" height="1.2"/>
			</g>
			<g>
				<rect x="121.5" y="81.8" class="st7" width="11" height="1.2"/>
			</g>
			<g>
				<rect x="137.2" y="81.8" class="st5" width="11" height="1.2"/>
			</g>
		</g>
		<g>
			<g>
				<rect x="111.4" y="114.3" class="st7" width="16" height="1.2"/>
			</g>
			<g>
				<rect x="133" y="114.3" class="st6" width="16" height="1.2"/>
			</g>
			<g>
				<rect x="154" y="114.3" class="st7" width="16" height="1.2"/>
			</g>
			<g>
				<rect x="115.7" y="108" class="st5" width="31.2" height="1.2"/>
			</g>
			<g>
				<rect x="151.8" y="108" class="st7" width="31.2" height="1.2"/>
			</g>
			<g>
				<rect x="123.1" y="101.8" class="st7" width="31" height="1.2"/>
			</g>
			<g>
				<rect x="156.8" y="101.8" class="st6" width="8.6" height="1.2"/>
			</g>
			<g>
				<rect x="121.1" y="95.5" class="st6" width="11.7" height="1.2"/>
			</g>
			<g>
				<rect x="139" y="95.5" class="st5" width="11.7" height="1.2"/>
			</g>
			<g>
				<rect x="158.1" y="95.5" class="st7" width="11.7" height="1.2"/>
			</g>
			<g>
				<rect x="134.6" y="89.3" class="st6" width="16.4" height="1.2"/>
			</g>
			<g>
				<rect x="112.1" y="89.3" class="st5" width="16.4" height="1.2"/>
			</g>
		</g>
	</g>
	<g>
		<g>
			<g>
				<rect x="102.4" y="55.7" class="st8" width="1.5" height="1.5"/>
			</g>
		</g>
		<g>
			<g>
				<path class="st8" d="M103.9,110.2h-1.5v-3h1.5V110.2z M103.9,102.6h-1.5v-3h1.5V102.6z M103.9,95.1h-1.5v-3h1.5V95.1z
					 M103.9,87.5h-1.5v-3h1.5V87.5z M103.9,79.9h-1.5v-3h1.5V79.9z M103.9,72.3h-1.5v-3h1.5V72.3z M103.9,64.7h-1.5v-3h1.5V64.7z"/>
			</g>
		</g>
		<g>
			<g>
				<rect x="102.4" y="114.8" class="st8" width="1.5" height="1.5"/>
			</g>
		</g>
	</g>
</g>
<g>
	
		<linearGradient id="SVGID_00000165918058442960381070000005431685455843693498_" gradientUnits="userSpaceOnUse" x1="227.7069" y1="43.6307" x2="277.8466" y2="43.6307">
		<stop  offset="0" style="stop-color:#C51C24"/>
		<stop  offset="1" style="stop-color:#FF0000"/>
	</linearGradient>
	
		<rect x="227.7" y="18.9" style="fill:url(#SVGID_00000165918058442960381070000005431685455843693498_);" width="50.1" height="49.5"/>
</g>
<g>
	<g>
		<rect x="290.2" y="114.8" class="st5" width="45.8" height="32.6"/>
	</g>
	<g>
		<path class="st10" d="M309.3,121.8c-1.5,0-2,0.4-2,1.5v4.9c0,1.9-0.8,2.5-2.1,2.9c1.3,0.4,2.1,0.9,2.1,2.8v4.9
			c0,1.1,0.5,1.5,2,1.5v2.1c-3.7,0-4.8-1.2-4.8-3.7v-4.6c0-1.3-0.4-1.8-1.6-1.8v-2.5c1.2,0,1.6-0.5,1.6-1.9v-4.6
			c0-2.5,1.1-3.7,4.8-3.7V121.8z"/>
		<path class="st10" d="M321.6,123.4v4.6c0,1.3,0.4,1.9,1.6,1.9v2.5c-1.2,0-1.6,0.5-1.6,1.8v4.6c0,2.5-1.1,3.7-4.8,3.7v-2.1
			c1.4,0,2-0.4,2-1.5v-4.9c0-1.9,0.8-2.5,2.1-2.8c-1.3-0.4-2.1-1-2.1-2.9v-4.9c0-1.1-0.5-1.5-2-1.5v-2.1
			C320.5,119.7,321.6,120.9,321.6,123.4z"/>
	</g>
</g>
<g>
	<rect x="52.4" y="10.1" class="st6" width="62.3" height="49.8"/>
</g>
<g>
	
		<radialGradient id="SVGID_00000090995234270165258790000014773440641093616275_" cx="251.3553" cy="131.4771" r="12.9255" gradientUnits="userSpaceOnUse">
		<stop  offset="0" style="stop-color:#FFC8AF"/>
		<stop  offset="1" style="stop-color:#FFBB9C"/>
	</radialGradient>
	<path style="fill:url(#SVGID_00000090995234270165258790000014773440641093616275_);" d="M263.7,132c-0.1,1.1-1.7,13-13.8,13
		c-12.8,0-10.6-12.7-10.6-12.7l0-0.1c1.2-0.3,2.6-0.4,4-0.2v-6l14.5-8.1h0.5v14C258.2,131.9,260.5,131.7,263.7,132z"/>
	<g>
		<g id="XMLID_43_">
			<g>
				
					<radialGradient id="SVGID_00000037655400396630991460000010183267573049887111_" cx="254.9198" cy="86.3078" r="20.3775" gradientTransform="matrix(0.9776 -0.2105 0.2105 0.9776 -23.5001 77.3673)" gradientUnits="userSpaceOnUse">
					<stop  offset="0" style="stop-color:#FFC8AF"/>
					<stop  offset="1" style="stop-color:#FFBB9C"/>
				</radialGradient>
				<path style="fill:url(#SVGID_00000037655400396630991460000010183267573049887111_);" d="M256.6,91.2c2.1,2.1,3.6,4.8,4.4,8.1
					c1.4,6.1,0.1,12.6-1.7,18.6c-0.3,1-0.7,2-1.3,2.9c-0.4,0.6-1,1.1-1.6,1.6c-2.6,2.2-5.2,4.5-7.7,6.7c-1.7,1.5-12.5,2.8-14.5,1.3
					c-7.9-5.6-9.4-22-7.8-30.4C228.9,86.2,246.8,81.2,256.6,91.2z"/>
			</g>
		</g>
		<path class="st13" d="M252.2,109c0.1-1.3,1.5-2.8,2.9-1.9c1.4,0.9,1.1,3.3,0.5,4.6c-0.5,1-2,2.1-3.1,1.2c-0.9-0.8,0.5-1.7,0.5-2.5
			c0-0.7-1.3-1.1-0.7-1.8"/>
		<path class="st13" d="M252.4,115.2c1.4,0.4,3.9-0.7,4.5-2.7c0.6-2,0.6-4.3,0.6-4.3s0.7,1.8,0.4,4.7c-0.4,2.9-1.4,5.7-3.7,5.7
			C251.8,118.7,252.4,115.2,252.4,115.2z"/>
		<path class="st14" d="M250.7,113.1c0,0-0.1,0-0.2,0c-0.9,0.1-1.2-1-1.4-1.6c-0.3-1.6-0.3-3.2-0.3-4.8c0-0.4,0-0.9-0.1-1.3
			c-0.5-1.1-1.8-1.9-2.2-3.1c-0.5-1.4,0.9-2.8,0.3-4.3c-0.8-2.3-3.8-2.8-5.9-2.8c-3.2,0-6.4,0.6-9.5,1.1c-3.4,0.5-7.6,1-10.6-1.1
			c-3.6-2.6-5.1-9.2-2.4-12.9c1.4-2,4.2-3,6.6-3.1c2.6-0.1,4.7,1.5,7.1,2.2c1.9,0.6,3.7-1.2,5.4-1.5c2.2-0.4,3.1,2,5.1,2
			c1.9,0.1,3.7-1.4,5.6-1.7c3.7-0.7,3.4,3,5.9,4.3c1.5,0.8,3.5,0.3,5,1.1c1.2,0.6,1.3,1.7,1.6,2.9c0.2,1,0.2,2.2,0.6,3.2
			c0.3,0.9,1,1.4,1.6,2.1c0.6,0.8,1,1.6,1.4,2.6c0.7,2.1,0.9,4.4,0.7,6.6c-0.3,3.7-1.5,7.3-2.7,10.8c-0.8,2.3-1.1,4.6-2.3,6.7
			c-0.3,0.6-1.8,2.2-2.3,1c-0.1-0.3-0.1-0.6-0.1-0.9c0.2-2.3,2.3-17.3-3.3-15.5c-1.2,0.4-2,1.4-2.4,2.5c-0.5,1.4-0.6,2.7-0.5,4.1
			c0,0.2,0,0.4,0,0.6C251,112.7,250.9,113,250.7,113.1z"/>
	</g>
</g>
<path class="st13" d="M243.2,130.7c6.4-1,10.7-6.1,10.7-6.1s-1.7,8.6-11.1,9L243.2,130.7z"/>
<g>
	<path class="st15" d="M253.8,247.7h9.2v88.5c0,0.9-0.7,1.6-1.6,1.6h-6c-0.9,0-1.6-0.7-1.6-1.6V247.7z"/>
	<path class="st16" d="M233,248.9h50.7v1.4c0,3.5-2.8,6.3-6.3,6.3h-38.1c-3.5,0-6.3-2.8-6.3-6.3V248.9z"/>
	<g>
		<path class="st15" d="M253.8,327.3h9.2v20.5c0,0.9-0.7,1.6-1.6,1.6h-6c-0.9,0-1.6-0.7-1.6-1.6V327.3z"/>
		<path class="st15" d="M210.5,344.1c0,3,2.4,5.4,5.4,5.4c3,0,5.4-2.4,5.4-5.4c0-3-2.4-5.4-5.4-5.4
			C212.9,338.7,210.5,341.1,210.5,344.1z"/>
		<path class="st15" d="M295.5,344.1c0,3,2.4,5.4,5.4,5.4c3,0,5.4-2.4,5.4-5.4c0-3-2.4-5.4-5.4-5.4
			C297.9,338.7,295.5,341.1,295.5,344.1z"/>
		
			<rect x="249.1" y="320.4" transform="matrix(-1 -1.224647e-16 1.224647e-16 -1 516.745 657.1171)" class="st16" width="18.6" height="16.2"/>
		<path class="st6" d="M210.5,340.5h95.8v-1.9c0-3.2-2.6-5.8-5.8-5.8h-84.3c-3.2,0-5.8,2.6-5.8,5.8V340.5z"/>
	</g>
	<rect x="255.2" y="258.5" class="st16" width="3.2" height="60.5"/>
</g>
<path class="st6" d="M294.6,183.5c-2.2-0.1-4,1.8-3.9,4c0.6,11-1.7,37.8-11.9,46.9c-12.5,11.2-48,9.7-48,9.7s-5.9,7.2,5.9,8.8
	c11.7,1.6,44.7,0.5,52.7-6.9c7.7-7.2,12.3-26.1,8.9-59C298.1,185,296.5,183.6,294.6,183.5L294.6,183.5z"/>
<radialGradient id="SVGID_00000013167212750920896500000016356123949590428036_" cx="223.7982" cy="326.6464" r="8.1259" gradientUnits="userSpaceOnUse">
	<stop  offset="0" style="stop-color:#FFC8AF"/>
	<stop  offset="1" style="stop-color:#FFBB9C"/>
</radialGradient>
<polygon style="fill:url(#SVGID_00000013167212750920896500000016356123949590428036_);" points="228.2,319 232.4,328.6 
	219.5,334.3 215.2,324.6 "/>
<path class="st18" d="M289.1,212.1c-0.8,1.6-58.2,0-63.7,0.5c0,0-35.1,16.8-40.2,32.5c-0.5,1.6-0.7,3.7-0.5,6.2
	c1.4,22.1,26.6,75.1,26.6,75.1l3.9-1.7l12.9-5.6l1.8-0.8c0,0-20-59.5-16-62.7c4-3.2,49.3-11.2,65-15.4
	C294.7,235.8,289.1,212.1,289.1,212.1z"/>
<radialGradient id="SVGID_00000017487732672351861850000001793324044106515609_" cx="172.3341" cy="328.6845" r="7.4015" gradientUnits="userSpaceOnUse">
	<stop  offset="0" style="stop-color:#FFC8AF"/>
	<stop  offset="1" style="stop-color:#FFBB9C"/>
</radialGradient>
<polygon style="fill:url(#SVGID_00000017487732672351861850000001793324044106515609_);" points="178.9,321.5 179.9,335.9 
	165.8,335.9 164.8,321.4 "/>
<path class="st14" d="M225.2,212.1l-0.5,0.2c0,0-58.8,8.3-68.4,24.8c-6.2,10.7,5.8,89.2,5.8,89.2l20.8,0c0,0-3.1-65.4-2.1-69
	c1.2-4.2,3.2-5.7,4-6.1c-0.2-2.5,0-4.6,0.5-6.2c5-15.7,40.2-32.5,40.2-32.5C225.3,212.5,225.3,212.4,225.2,212.1z"/>
<linearGradient id="SVGID_00000115500023033755646110000010745185529626164636_" gradientUnits="userSpaceOnUse" x1="224.3148" y1="193.9957" x2="290.3602" y2="193.9957">
	<stop  offset="0" style="stop-color:#C51C24"/>
	<stop  offset="1" style="stop-color:#FF0000"/>
</linearGradient>
<path style="fill:url(#SVGID_00000115500023033755646110000010745185529626164636_);" d="M282,157.8l-3.9,0.5c0,0-1,10.6-3.3,21.3
	l-49.2,18.7l-0.7,3.6c-0.2,0-0.4,0-0.6,0c0,0.7,0,1.5,0,2.1c0.1,4.1,0.4,7.1,0.8,8.2c0.1,0.2,0.2,0.4,0.3,0.5
	c1.3,1.1,18.7-1,37.5,5.9c16.3,6,25.4,12.5,25.9,11.6C294,219.5,284.6,177.7,282,157.8z"/>
<linearGradient id="SVGID_00000127747282972917607480000014269367744168354962_" gradientUnits="userSpaceOnUse" x1="224.3148" y1="181.3754" x2="278.2654" y2="181.3754">
	<stop  offset="0" style="stop-color:#C51C24"/>
	<stop  offset="1" style="stop-color:#FF0000"/>
</linearGradient>
<path style="fill:url(#SVGID_00000127747282972917607480000014269367744168354962_);" d="M276.9,182.1c-1.3,6.3-4.7,18.8-11.3,20.5
	c-8.7,2.2-25.5,2.1-41.2,1.2c0-0.7,0-1.4,0-2.1c0.2,0,0.4,0,0.6,0l0.7-3.6l49.2-18.7c2.3-10.6,3.3-21.3,3.3-21.3s0,0.1,0,0.2
	C278.2,160.1,278.8,172.8,276.9,182.1z"/>
<linearGradient id="SVGID_00000107555814142422568370000005043967524746531517_" gradientUnits="userSpaceOnUse" x1="214.7231" y1="159.8846" x2="227.6007" y2="159.8846">
	<stop  offset="0" style="stop-color:#C51C24"/>
	<stop  offset="1" style="stop-color:#FF0000"/>
</linearGradient>
<path style="fill:url(#SVGID_00000107555814142422568370000005043967524746531517_);" d="M227.6,142.1c-0.9,1.6-2.1,18.7-2.8,35.7
	l-10-9.4C219,160.1,227.6,142.1,227.6,142.1z"/>
<path class="st13" d="M221.6,190.1c-8.5,1.5-16.3,2.7-16.3,2.7l0,0.4c-9.4-7.5-23.8-28.9-23.8-28.9s4.3-5.2,5.4-6.5
	c0.2-0.2,23.6,15.9,24.8,15.8c0.3,0,1.5-2.1,3.1-5.3l10,9.4c-0.2,4-0.3,8.1-0.4,11.9C223.5,189.8,222.5,189.9,221.6,190.1z"/>
<radialGradient id="SVGID_00000100375309768377993710000017047355566818296762_" cx="217.3961" cy="189.7959" r="41.4442" gradientUnits="userSpaceOnUse">
	<stop  offset="0" style="stop-color:#FFC8AF"/>
	<stop  offset="1" style="stop-color:#FFBB9C"/>
</radialGradient>
<path style="fill:url(#SVGID_00000100375309768377993710000017047355566818296762_);" d="M205.3,192.8l-0.2,7h-25.6
	c0,0,2.5-10,9.5-10c6.9,0,9.6,3.7,9.6,3.7L205.3,192.8z"/>
<path class="st13" d="M186.7,157.7l0.2,0.2c-1.1,1.4-5.4,6.5-5.4,6.5l-2.7-1.9c0,0-2.9,1.8-6.4-0.1c-3.6-1.9-1.4-6.5-1.2-7.1
	c-0.7,0.2-5,3.6-5.6,3.3c-0.7-0.4-1.2-1.6,3.6-6.3c4.8-4.7,11.2,1.3,11.4,1.3L186.7,157.7z"/>
<path class="st13" d="M173,161.6c0,0-1,1.9,0.8,2.8c1.8,0.8,5.4,1.4,6.9,1.3c1.5-0.1,2.7-2.3,2.7-2.3l-4.6-4.3h-3.7L173,161.6z"/>
<path class="st24" d="M172.7,162.5c0.3-0.9,2.9-0.4,4.5-0.4c1.2,0,1.9-0.3,2.2-1.2c0.4-0.9-1.4-2.4-1.7-1.9
	c-0.3,0.5,0.6,1.1,0.7,1.7c0,0.6-1.7,0.8-3.1,0.8s-3.7,0.4-3.7,0.4L172.7,162.5z"/>
<radialGradient id="SVGID_00000173137847497301475030000011237095108455764123_" cx="217.3961" cy="189.7959" r="41.444" gradientUnits="userSpaceOnUse">
	<stop  offset="0" style="stop-color:#FFC8AF"/>
	<stop  offset="1" style="stop-color:#FFBB9C"/>
</radialGradient>
<path style="fill:url(#SVGID_00000173137847497301475030000011237095108455764123_);" d="M272.3,188.7l-25-8.9
	c-1.8,3.4-3.8,6-5.7,6.5c-2.9,0.8-10,2.1-17.1,3.3c-0.9,0.2-1.9,0.3-2.8,0.5c-8.5,1.5-16.3,2.7-16.3,2.7l0,0.4v0.3l-0.2,6.3v1.6
	c0,0,8.5-0.4,19.2,0.3c15,1.1,34.4,1.7,40.8-1.3C268.1,199,270.5,194.4,272.3,188.7C272.3,188.6,272.3,188.6,272.3,188.7z"/>
<polygon class="st13" points="247.2,179.8 272.3,188.7 271.1,192 246.3,181.4 "/>
<linearGradient id="SVGID_00000080201216661662025240000000030227293836128418_" gradientUnits="userSpaceOnUse" x1="224.4052" y1="160.8112" x2="282.0031" y2="160.8112">
	<stop  offset="0" style="stop-color:#C51C24"/>
	<stop  offset="1" style="stop-color:#FF0000"/>
</linearGradient>
<path style="fill:url(#SVGID_00000080201216661662025240000000030227293836128418_);" d="M247.2,179.8c-1.8,3.4-3.8,6-5.7,6.5
	c-2.9,0.8-10,2.1-17.1,3.3c0.1-3.8,0.2-7.8,0.4-11.9c0.7-17,1.9-34.1,2.8-35.7c1.4-2.7,5.4-8.5,11.6-9.8l0,0.1
	c0,0-2.1,12.7,10.6,12.7c12.2,0,13.7-11.8,13.8-13c6.3,0.7,15.9,3.8,17.2,16.4c0.3,2.5,0.7,5.7,1.2,9.3l-3.9,0.5
	c0,0-1.6,17.7-5.7,30.3c0,0-0.1,0-0.1,0L247.2,179.8z"/>
<linearGradient id="SVGID_00000122714310818946650530000008225777599761932973_" gradientUnits="userSpaceOnUse" x1="246.9617" y1="165.8732" x2="256.959" y2="165.8732">
	<stop  offset="0" style="stop-color:#C51C24"/>
	<stop  offset="1" style="stop-color:#FF0000"/>
</linearGradient>
<polygon style="fill:url(#SVGID_00000122714310818946650530000008225777599761932973_);" points="247,177.5 257,153.3 249.6,178.5 
	"/>
<linearGradient id="SVGID_00000048462652926196203300000017463335190951678353_" gradientUnits="userSpaceOnUse" x1="226.8398" y1="143.7015" x2="265.7446" y2="143.7015">
	<stop  offset="0" style="stop-color:#C51C24"/>
	<stop  offset="1" style="stop-color:#FF0000"/>
</linearGradient>
<path style="fill:url(#SVGID_00000048462652926196203300000017463335190951678353_);" d="M263.7,132h-5.4c0,0-7.8,8.5-12.7,8.5
	s-2.3-8.5-2.3-8.5h-2.4c-7,0-12.9,5.2-13.7,12.2c-0.1,0.8-0.2,1.5-0.2,2.2c-0.5,5.2,20.3,8.9,20.3,8.9l10.7-0.6l6.5-12.7l1.3-5.2
	L263.7,132z"/>
<g>
	<g>
		<g id="XMLID_39_">
			<g>
				<path class="st10" d="M197.9,345.4c0.5,2.6,2.3,4.5,4.9,4l34.7-6.5c0.9-0.2,1.5-1,1.3-1.9l-0.6-3.1
					C238.2,337.9,201.7,344.3,197.9,345.4L197.9,345.4z"/>
				<path class="st14" d="M208.2,336.6c0.4-0.3,0.7-0.6,1.1-0.9c0.7-0.6,1.4-1.2,2-1.8c0.3-0.3,0.7-0.6,1-0.9
					c0.6-0.6,1.2-1.1,1.8-1.6c0.4-0.3,0.7-0.7,1.1-1c0.6-0.5,1.1-1,1.4-1.3c0.3-0.3,0.7-0.3,1,0c1.4,1.2,6,3.9,14.4-1.2
					c0.4-0.2,0.9-0.1,1.1,0.3l5.1,9.7c0,0-36.5,6.4-40.3,7.4C199.2,344.6,203.8,340.5,208.2,336.6z"/>
			</g>
		</g>
	</g>
</g>
<g>
	<g>
		<g id="XMLID_44_">
			<g>
				<path class="st10" d="M143.3,345c0.1,2.6,1.6,4.8,4.2,4.7l35.3-0.9c0.9,0,1.6-0.8,1.6-1.7l-0.1-3.1
					C184.3,344.1,147.2,344.6,143.3,345L143.3,345z"/>
				<path class="st14" d="M154.9,338c0.4-0.3,0.8-0.5,1.2-0.8c0.8-0.5,1.6-1,2.3-1.5c0.4-0.3,0.8-0.5,1.2-0.7c0.7-0.5,1.4-0.9,2-1.3
					c0.4-0.3,0.8-0.5,1.2-0.8c0.7-0.4,1.2-0.8,1.6-1c0.3-0.2,0.8-0.2,1,0.1c1.2,1.4,5.3,4.9,14.4,1.1c0.4-0.2,0.9,0,1.1,0.5
					l3.4,10.4c0,0-37,0.5-41,0.9C144.6,344.4,149.9,341.2,154.9,338z"/>
			</g>
		</g>
	</g>
</g>
<g>
	<polygon class="st29" points="118.2,201.4 99.3,151.2 153,151.2 171.8,201.4 	"/>
	<polygon class="st30" points="175.1,201.4 171.8,201.4 153,151.2 156,151.3 173.4,196.8 	"/>
	<polyline class="st31" points="102.2,196 102.5,196 169.8,196 	"/>
	<g>
		<path class="st30" d="M174.1,201.4h35.5l-0.1-3.2c0,0-35.5,0-36.1,0"/>
	</g>
</g>
<g>
	<g>
		<rect x="316.6" y="211" class="st30" width="8.5" height="140.2"/>
	</g>
	<g>
		<rect x="270.3" y="211" class="st29" width="8.5" height="140.2"/>
	</g>
	<g>
		<rect x="121.8" y="211" class="st30" width="8.5" height="140.2"/>
	</g>
	<g>
		<rect x="75.5" y="211" class="st29" width="8.5" height="140.2"/>
	</g>
	<path class="st32" d="M333.7,211.6H67.3c-2.3,0-4.1-1.9-4.1-4.1v-1.8c0-2.3,1.9-4.1,4.1-4.1h266.4c2.3,0,4.1,1.9,4.1,4.1v1.8
		C337.8,209.7,336,211.6,333.7,211.6z"/>
</g>
<polygon class="st30" points="108.3,156.5 109.2,158.9 119.9,158.9 119,156.5 "/>
<polygon class="st24" points="214.7,168.3 214,169.8 224.8,181 224.8,177.7 "/>
<g>
	<rect x="3.6" y="349.5" class="st33" width="431.9" height="9.9"/>
	<g>
		<g>
			
				<linearGradient id="SVGID_00000036218431663853633650000006528154529696423310_" gradientUnits="userSpaceOnUse" x1="483.7595" y1="-32.8135" x2="444.4195" y2="16.7788" gradientTransform="matrix(0.7834 -0.6215 0.6215 0.7834 -0.8787 564.2341)">
				<stop  offset="0" style="stop-color:#606BF1"/>
				<stop  offset="1" style="stop-color:#58479F"/>
			</linearGradient>
			<path style="fill:url(#SVGID_00000036218431663853633650000006528154529696423310_);" d="M367,276.3c-1.7,8.3-1.2,22.5-12.2,24.8
				c-3,0.6-5.8-1.5-7.6-3.8c-2.3-3.1-2.8-9.6-2.8-13.3c0-3,1-6.3,1.4-9.2c0.4-3.2,0.6-6.5,1-9.7c1.4-11.6,7.4-21.3,17.7-27.1
				c0.8,3.8,2.6,7,4.2,10.7c0.7,1.7,1.4,3.4,1.9,5.2c0.8,3.1-0.2,6.2-0.9,9.2C368.6,267.3,367.9,271.9,367,276.3z"/>
			<path class="st35" d="M352.9,301.3c0.1-0.7,0.2-1.4,0.3-2.1c1.3,0,2.7-0.8,3.8-1.3c1.9-1,3.5-2.4,5-3.9c0.1-0.1-0.1-0.2-0.1-0.1
				c-1.5,1.3-3.1,2.5-4.8,3.3c-1,0.5-2.5,1.2-3.7,1.4c0.1-0.8,0.2-1.7,0.4-2.5c1.4-0.2,2.6-1.1,3.8-1.8c2-1.2,3.7-2.7,5.4-4.1
				c0,0,0,0,0,0c-2.7,2-5.7,4.7-9.1,5.3c0.2-1,0.4-2.1,0.6-3.1c0-0.1,0-0.1,0-0.2c3.9-1,6.6-4.1,9.6-6.6c0,0,0-0.1-0.1-0.1
				c-3,2.3-5.8,4.9-9.4,6.1c0.3-1.5,0.6-2.9,1-4.4c3.6-1.3,6.4-3.4,8.9-6.3c0,0,0-0.1-0.1-0.1c-2.6,2.7-5.4,4.2-8.7,5.7
				c0.3-1.5,0.7-2.9,1-4.4c1.5-0.8,3.2-1.2,4.6-2.2c1.4-1,2.7-2.2,3.6-3.6c0-0.1-0.1-0.1-0.1-0.1c-2,2.9-5,3.8-7.9,5.3
				c0.3-1.4,0.5-2.7,0.8-4.1c3.2-1.8,6.8-3.4,8.6-6.8c0,0,0-0.1,0,0c-1.9,3.1-5.3,4.5-8.4,6.2c0-0.2,0.1-0.5,0.1-0.7
				c0.2-1.3,0.4-2.5,0.6-3.8c1.9-0.7,3.6-1.8,5.3-2.9c1.2-0.8,2.5-1.5,3.2-2.8c0-0.1-0.1-0.2-0.1-0.1c-1.7,2.5-5.5,3.9-8.3,5.2
				c0.2-1.3,0.4-2.6,0.5-3.9c3.1-1.9,6.8-2.9,8.7-6.3c0.1-0.1-0.1-0.2-0.2-0.1c-2,3.1-5.5,4.1-8.5,5.8c0.1-0.8,0.2-1.6,0.4-2.4
				c3.4-1.2,7.3-4.1,9.1-7.1c0.1-0.2-0.1-0.3-0.3-0.2c-1.8,2.7-5.4,5.6-8.7,6.6c0.2-1.3,0.4-2.6,0.6-3.9c0,0,0-0.1,0.1-0.1
				c1.5-0.4,3-1.5,4.3-2.3c1.6-1,3.1-2.1,4.1-3.7c0.1-0.2-0.2-0.3-0.3-0.2c-1.5,2.7-5,4.5-8,5.5c0.1-0.5,0.2-0.9,0.3-1.4
				c0.1-0.7,0.3-1.4,0.4-2.1c1.2-0.8,2.7-1.2,3.9-2.1c1-0.8,2-1.7,2.9-2.6c0.1-0.1,0-0.2-0.1-0.1c-1.2,1.1-2.5,2.2-4,3
				c-0.8,0.4-1.8,0.7-2.6,1.2c0.2-1.1,0.5-2.3,0.7-3.4c0,0,0,0,0,0c0,0,0,0,0,0c0.1,0,0.1,0,0.2-0.1c1.6-0.4,2.9-1.8,4-3
				c0,0,0-0.1,0,0c-1.2,1.1-2.5,2.2-4,2.7c0,0,0,0,0,0c0,0-0.1,0-0.1,0c0.2-0.9,0.3-1.9,0.5-2.8c0.1,0,0.2-0.1,0.2-0.2
				c0.9-0.6,1.7-1.3,2.4-2c0.1-0.1,0-0.1-0.1-0.1c-0.8,0.7-1.5,1.2-2.4,1.7c0.3-1.9,0.5-3.9,0.7-5.8c0-0.2-0.3-0.2-0.3,0
				c-0.2,1.9-0.4,3.8-0.8,5.6c-0.9-1.2-1.9-2.4-2.5-3.8c0-0.1-0.1,0-0.1,0c0.3,0.8,0.7,1.6,1.2,2.3c0.4,0.7,0.7,1.4,1.3,2
				c-0.2,1-0.4,2-0.6,3c-1.1-0.2-2.1-0.4-3-1.2c-1.1-1-1.7-2.3-1.8-3.8c0-0.2-0.3-0.2-0.3,0c0.1,1.4,0.7,2.6,1.6,3.7
				c1,1.1,2.1,1.4,3.5,1.7c-0.2,1.1-0.5,2.3-0.7,3.4c-1-0.6-1.9-1.4-2.8-2.1c-1.4-1.2-2.3-2.5-3.6-3.8c-0.1-0.1-0.3,0.1-0.2,0.2
				c1.2,1.3,2,2.6,3.3,3.7c1,0.8,2,1.8,3.2,2.4c0,0.1,0,0.1,0,0.2c0,0,0,0,0,0c-0.1,0.1-0.1,0.2,0,0.3c-0.2,1.1-0.5,2.2-0.7,3.3
				c0,0.1,0,0.1,0,0.2c-2.6-1.2-6.4-3.2-6.7-6.2c0-0.3-0.5-0.2-0.4,0.1c0.8,3.4,4.5,4.9,7,6.7c-0.3,1.2-0.5,2.5-0.7,3.7
				c-1.7-0.6-3.2-1.3-4.6-2.4c-1.3-1-3.1-2.2-3.6-3.8c0,0-0.1,0-0.1,0c0.5,1.5,2.1,2.6,3.3,3.7c1.5,1.3,3,2.5,4.9,3
				c0,0.1,0,0.1,0,0.2c-0.1,0.8-0.3,1.6-0.4,2.4c-3.1-0.2-7.5-2.6-9.1-5c0,0,0,0,0,0c1.1,1.8,2.7,2.8,4.6,3.8
				c1.4,0.7,2.9,1.5,4.4,1.6c-0.2,1.5-0.4,2.9-0.7,4.4c-1.3-0.5-2.8-0.7-4.1-1.3c-2-0.8-3.5-2.2-4.7-4c-0.1-0.1-0.2,0-0.2,0.1
				c2.2,3.4,5.3,4.4,8.9,5.7c-0.2,1.2-0.4,2.4-0.6,3.6c-3-0.6-6.8-2.4-8.3-5c-0.1-0.2-0.4,0-0.3,0.2c1,1.7,2.6,2.7,4.3,3.5
				c1.2,0.6,2.9,1.6,4.3,1.7c0,0,0,0.1,0,0.1c-0.3,1.7-0.6,3.5-1,5.2c-3.3-0.8-5.5-3.3-7.9-5.6c-0.2-0.2-0.4,0.1-0.3,0.2
				c2.5,2.4,4.6,5,8,5.8c-0.3,1.4-0.6,2.8-1,4.2c-2.8-0.8-5.6-2.8-7.5-5.1c-0.1-0.2-0.4,0.1-0.2,0.2c1.9,2.5,4.6,4.4,7.6,5.4
				c-0.4,1.5-0.7,3-1.1,4.5c-2.9-0.4-5.1-2.3-6.9-4.6c0-0.1-0.1,0-0.1,0.1c1.6,2.2,4,4.8,6.9,5c-0.1,0.5-0.2,1-0.4,1.4
				c-0.1,0.3-0.2,0.6-0.2,0.9c-2.2-0.6-4.2-1.4-6-2.9c-0.1,0-0.1,0-0.1,0.1c1.7,1.5,3.8,2.6,6,3.3c-0.2,0.9-0.5,1.8-0.8,2.8
				c-0.5-0.3-1.1-0.5-1.7-0.7c-1.1-0.3-1.8-1-2.7-1.6c-0.1-0.1-0.2,0.1-0.1,0.1c0.8,0.5,1.4,1.2,2.4,1.6c0.7,0.3,1.4,0.6,2,0.9
				c-1,3.7-1.9,7.7-1.4,11.2c0.1,0.8,1.4,1,1.6,0.2C352.7,306.8,352.6,304,352.9,301.3z"/>
		</g>
		<g>
			
				<linearGradient id="SVGID_00000151504608658292492110000016341754717575074487_" gradientUnits="userSpaceOnUse" x1="620.5621" y1="-176.0326" x2="581.2233" y2="-126.4417" gradientTransform="matrix(0.4479 -0.8941 0.8941 0.4479 186.9369 876.7006)">
				<stop  offset="0" style="stop-color:#606BF1"/>
				<stop  offset="1" style="stop-color:#58479F"/>
			</linearGradient>
			<path style="fill:url(#SVGID_00000151504608658292492110000016341754717575074487_);" d="M332.2,273.9c2,8.3,8.4,20.9-0.6,27.6
				c-2.4,1.8-5.9,1.1-8.5-0.3c-3.3-1.8-6.6-7.5-8.1-10.9c-1.2-2.7-1.7-6.1-2.7-9c-1-3.1-2.1-6.1-3.2-9.2
				c-3.7-11.1-2.3-22.5,4.6-32.1c2.3,3.1,5.3,5.3,8.3,7.9c1.4,1.2,2.7,2.5,3.9,3.9c2.1,2.5,2.5,5.7,3,8.7
				C329.8,265.1,331.1,269.5,332.2,273.9z"/>
			<path class="st35" d="M330,302.6c-0.2-0.7-0.4-1.3-0.7-2c1.2-0.6,2.1-1.8,2.9-2.8c1.3-1.7,2.1-3.7,2.8-5.7c0-0.1-0.1-0.2-0.2-0.1
				c-0.8,1.8-1.7,3.5-3,5c-0.7,0.8-1.7,2.1-2.8,2.8c-0.2-0.8-0.5-1.6-0.7-2.4c1.2-0.7,1.9-2.1,2.7-3.2c1.3-1.9,2.2-4,3.2-6
				c0,0,0,0,0,0c-1.6,2.9-3.2,6.7-6,8.7c-0.3-1-0.5-2-0.8-3.1c0-0.1,0-0.1,0-0.2c3.1-2.6,4.3-6.5,5.9-10c0-0.1-0.1-0.1-0.1-0.1
				c-1.7,3.3-3.1,6.9-6,9.5c-0.3-1.5-0.7-2.9-1-4.4c2.7-2.7,4.4-5.8,5.4-9.5c0-0.1-0.1-0.1-0.1,0c-1.2,3.5-3.1,6.1-5.4,8.9
				c-0.3-1.5-0.6-2.9-1-4.4c1.1-1.3,2.4-2.4,3.2-3.9c0.9-1.5,1.5-3.1,1.7-4.8c0-0.1-0.1-0.1-0.1,0c-0.6,3.4-2.9,5.5-4.9,8.1
				c-0.3-1.4-0.7-2.7-1-4c2.2-3,4.7-6,4.9-9.8c0,0-0.1,0-0.1,0c-0.4,3.7-2.9,6.3-5,9.2c-0.1-0.2-0.1-0.5-0.2-0.7
				c-0.4-1.2-0.7-2.5-1.1-3.7c1.4-1.5,2.5-3.2,3.6-4.9c0.8-1.2,1.6-2.4,1.8-3.9c0-0.1-0.1-0.1-0.1,0c-0.5,3-3.4,5.9-5.4,8.2
				c-0.4-1.2-0.8-2.5-1.1-3.7c2-3,4.9-5.5,5.2-9.4c0-0.1-0.2-0.1-0.2,0c-0.5,3.7-3.3,6-5.2,8.8c-0.2-0.8-0.5-1.5-0.7-2.3
				c2.5-2.5,4.9-6.7,5.2-10.3c0-0.2-0.3-0.2-0.3,0c-0.5,3.2-2.6,7.3-5.1,9.7c-0.4-1.3-0.7-2.5-1.1-3.8c0,0,0-0.1,0-0.1
				c1.2-1,2.1-2.6,2.9-3.9c1-1.5,1.9-3.2,2.1-5.1c0-0.2-0.3-0.2-0.3,0c-0.2,3-2.7,6.2-4.9,8.3c-0.1-0.5-0.2-0.9-0.4-1.4
				c-0.2-0.7-0.3-1.4-0.5-2.1c0.7-1.3,2-2.3,2.7-3.6c0.6-1.1,1.1-2.4,1.5-3.6c0-0.1-0.1-0.2-0.2-0.1c-0.6,1.6-1.3,3.1-2.3,4.4
				c-0.6,0.8-1.3,1.4-1.8,2.2c-0.3-1.1-0.5-2.3-0.8-3.4c0,0,0,0,0,0c0,0,0,0,0,0c0.1,0,0.1-0.1,0.2-0.1c1.3-1.1,1.8-2.9,2.3-4.4
				c0,0,0-0.1-0.1,0c-0.6,1.5-1.3,3.1-2.5,4.1c0,0,0,0,0,0c0,0-0.1,0-0.1,0c-0.2-0.9-0.5-1.8-0.7-2.8c0.1-0.1,0.1-0.2,0.1-0.3
				c0.5-0.9,0.9-1.9,1.3-2.9c0-0.1-0.1-0.1-0.1,0c-0.4,0.9-0.9,1.7-1.5,2.5c-0.5-1.9-1.1-3.7-1.9-5.6c-0.1-0.2-0.3-0.1-0.3,0.1
				c0.6,1.8,1.2,3.6,1.7,5.4c-1.3-0.7-2.7-1.4-3.8-2.4c-0.1-0.1-0.1,0-0.1,0.1c0.6,0.6,1.3,1.1,2.1,1.6c0.7,0.4,1.3,1,2,1.3
				c0.3,1,0.5,2,0.7,3c-1.1,0.3-2.1,0.5-3.2,0.2c-1.4-0.4-2.5-1.3-3.3-2.6c-0.1-0.2-0.3,0-0.3,0.1c0.7,1.2,1.7,2.1,3,2.6
				c1.3,0.6,2.5,0.4,3.8,0.1c0.3,1.1,0.5,2.3,0.8,3.4c-1.2-0.1-2.3-0.4-3.4-0.7c-1.8-0.4-3.2-1.3-4.8-2c-0.2-0.1-0.3,0.2-0.1,0.3
				c1.6,0.6,2.9,1.5,4.6,2c1.2,0.3,2.6,0.8,3.9,0.9c0,0.1,0,0.1,0,0.2c0,0,0,0,0,0c0,0.1,0,0.2,0.1,0.2c0.2,1.1,0.5,2.2,0.7,3.3
				c0,0.1,0,0.1,0.1,0.2c-2.8,0-7.1-0.2-8.7-2.8c-0.1-0.2-0.5,0-0.3,0.2c2.1,2.7,6.1,2.5,9.2,3.1c0.3,1.2,0.6,2.5,1,3.7
				c-1.7,0.2-3.5,0.2-5.2-0.2c-1.6-0.4-3.7-0.7-4.9-1.9c0,0-0.1,0-0.1,0.1c1.1,1.2,3,1.5,4.5,1.9c1.9,0.6,3.8,1,5.7,0.7
				c0,0.1,0,0.1,0.1,0.2c0.2,0.8,0.4,1.5,0.7,2.3c-2.9,1.1-7.9,0.8-10.3-0.7c0,0,0,0,0,0c1.7,1.2,3.7,1.4,5.7,1.5
				c1.5,0,3.2,0.1,4.7-0.4c0.4,1.4,0.8,2.9,1.3,4.3c-1.4,0.1-2.8,0.5-4.3,0.6c-2.1,0.1-4.1-0.5-5.9-1.6c-0.1-0.1-0.2,0.1-0.1,0.2
				c3.4,2.2,6.6,1.8,10.5,1.4c0.3,1.2,0.7,2.3,1,3.5c-2.9,0.7-7.2,0.7-9.6-1c-0.2-0.1-0.4,0.1-0.2,0.3c1.6,1.1,3.5,1.4,5.4,1.4
				c1.3,0,3.3,0.3,4.6-0.3c0,0,0,0.1,0,0.1c0.5,1.7,0.9,3.4,1.3,5.1c-3.4,0.6-6.3-0.7-9.5-1.7c-0.2-0.1-0.4,0.3-0.1,0.3
				c3.2,1.2,6.3,2.5,9.7,1.9c0.3,1.4,0.6,2.8,0.9,4.2c-2.9,0.5-6.3-0.2-8.9-1.5c-0.2-0.1-0.3,0.2-0.1,0.3c2.8,1.5,6.1,2,9.1,1.7
				c0.3,1.5,0.6,3,0.9,4.5c-2.8,0.8-5.6,0.1-8.2-1.2c-0.1,0-0.1,0.1-0.1,0.1c2.4,1.3,5.6,2.6,8.4,1.7c0.1,0.5,0.2,1,0.3,1.4
				c0.1,0.3,0.1,0.6,0.2,0.9c-2.3,0.3-4.4,0.5-6.7-0.1c-0.1,0-0.1,0.1,0,0.1c2.2,0.7,4.5,0.8,6.8,0.4c0.2,0.9,0.3,1.9,0.5,2.8
				c-0.6,0-1.2,0-1.8,0.1c-1.1,0.2-2.1-0.2-3.2-0.3c-0.1,0-0.1,0.1,0,0.2c1,0.1,1.8,0.5,2.8,0.5c0.7-0.1,1.5,0,2.2,0
				c0.7,3.8,1.5,7.8,3.5,10.8c0.4,0.7,1.7,0.3,1.6-0.5C332,307.6,330.8,305.1,330,302.6z"/>
		</g>
		<g>
			
				<linearGradient id="SVGID_00000162315137242058613860000009544152947801473184_" gradientUnits="userSpaceOnUse" x1="564.0345" y1="-128.9585" x2="515.3509" y2="-67.5873" gradientTransform="matrix(0.6073 -0.7945 0.7945 0.6073 88.3425 750.6603)">
				<stop  offset="0" style="stop-color:#606BF1"/>
				<stop  offset="1" style="stop-color:#58479F"/>
			</linearGradient>
			<path style="fill:url(#SVGID_00000162315137242058613860000009544152947801473184_);" d="M351.3,267.5
				c0.5,10.5,5.4,27.4-7.1,33.4c-3.4,1.6-7.4,0-10.2-2.3c-3.6-3-6.3-10.7-7.4-15.2c-0.9-3.6-0.6-7.8-1.2-11.5
				c-0.6-4-1.2-7.9-1.7-11.9c-1.9-14.3,2.4-27.9,13-37.9c2.1,4.3,5.3,7.7,8.3,11.6c1.4,1.8,2.7,3.7,3.8,5.6
				c1.9,3.5,1.7,7.5,1.7,11.3C350.4,256.3,351,261.9,351.3,267.5z"/>
			<path class="st35" d="M342,301.8c-0.1-0.9-0.2-1.7-0.3-2.6c1.6-0.4,3-1.7,4.1-2.7c2-1.8,3.4-4,4.8-6.2c0.1-0.1-0.1-0.2-0.2-0.1
				c-1.4,2-2.9,3.9-4.8,5.4c-1.1,0.9-2.6,2.2-4,2.8c-0.1-1-0.2-2.1-0.3-3.1c1.6-0.6,2.8-2.1,4-3.3c2-2,3.6-4.3,5.3-6.6
				c0,0,0-0.1,0,0c-2.6,3.2-5.4,7.4-9.3,9.2c-0.1-1.3-0.2-2.6-0.2-3.9c0-0.1,0-0.1,0-0.2c4.4-2.4,6.7-6.9,9.5-10.8
				c0-0.1,0-0.1-0.1-0.1c-2.9,3.7-5.4,7.7-9.5,10.1c-0.1-1.9-0.1-3.7-0.2-5.6c3.9-2.7,6.7-6,8.8-10.3c0-0.1-0.1-0.1-0.1-0.1
				c-2.3,4-5.2,6.7-8.7,9.5c0-1.8-0.1-3.7-0.2-5.5c1.6-1.4,3.4-2.4,4.8-4c1.4-1.6,2.5-3.4,3.2-5.4c0-0.1-0.1-0.2-0.2-0.1
				c-1.5,4-4.9,6-7.9,8.7c-0.1-1.7-0.2-3.4-0.3-5.1c3.3-3.1,7.1-6.2,8.2-10.8c0,0-0.1-0.1-0.1,0c-1.4,4.4-5,7-8.2,10
				c0-0.3,0-0.6-0.1-0.9c-0.1-1.6-0.3-3.2-0.5-4.7c2-1.5,3.8-3.3,5.5-5.1c1.2-1.3,2.5-2.6,3-4.3c0-0.1-0.1-0.2-0.2-0.1
				c-1.3,3.5-5.5,6.4-8.4,8.7c-0.2-1.6-0.3-3.2-0.5-4.8c3.2-3.2,7.2-5.6,8.5-10.2c0-0.1-0.2-0.2-0.2-0.1c-1.4,4.3-5.3,6.5-8.4,9.5
				c-0.1-1-0.2-2-0.3-3c3.7-2.5,7.5-7.1,8.7-11.3c0.1-0.2-0.3-0.3-0.4-0.1c-1.4,3.8-4.8,8.3-8.4,10.6c-0.2-1.6-0.3-3.2-0.4-4.8
				c0,0,0-0.1,0-0.2c1.7-1,3.1-2.7,4.5-4.1c1.6-1.6,3.1-3.4,3.7-5.7c0.1-0.2-0.3-0.4-0.4-0.1c-1,3.7-4.7,6.9-7.9,9
				c0-0.6-0.1-1.2-0.1-1.8c0-0.9-0.1-1.8-0.1-2.6c1.2-1.4,2.9-2.3,4.1-3.7c1-1.2,1.8-2.6,2.6-4c0.1-0.1-0.1-0.3-0.2-0.1
				c-1.1,1.7-2.3,3.4-3.8,4.8c-0.9,0.8-1.9,1.4-2.7,2.2c-0.1-1.4-0.1-2.9-0.2-4.3c0,0,0,0,0,0c0,0,0,0,0.1,0c0.1,0,0.2-0.1,0.2-0.1
				c1.8-1,2.9-3.1,3.9-4.8c0,0,0-0.1-0.1,0c-1.1,1.6-2.3,3.4-4,4.5c0,0,0,0,0,0c0,0-0.1,0-0.1,0c-0.1-1.2-0.1-2.3-0.2-3.5
				c0.1-0.1,0.2-0.2,0.2-0.3c0.9-1,1.6-2.1,2.2-3.2c0-0.1-0.1-0.2-0.1-0.1c-0.7,1-1.5,1.9-2.4,2.7c-0.2-2.4-0.5-4.8-1-7.2
				c0-0.2-0.4-0.1-0.3,0.1c0.4,2.3,0.6,4.6,0.8,7c-1.4-1.1-3-2.3-4.1-3.8c-0.1-0.1-0.2,0-0.1,0.1c0.6,0.9,1.4,1.7,2.1,2.4
				c0.7,0.7,1.3,1.5,2.1,2.1c0.1,1.3,0.2,2.5,0.2,3.8c-1.4,0.1-2.6,0.2-4-0.5c-1.6-0.8-2.8-2.2-3.4-3.9c-0.1-0.2-0.4-0.1-0.3,0.1
				c0.6,1.6,1.6,3,3,3.9c1.5,1,3,1,4.7,1c0.1,1.5,0.1,2.9,0.2,4.4c-1.4-0.4-2.7-1.1-4-1.7c-2.1-0.9-3.5-2.4-5.4-3.5
				c-0.2-0.1-0.4,0.2-0.2,0.3c1.8,1.1,3.2,2.5,5.1,3.5c1.4,0.7,3,1.6,4.6,1.9c0,0.1,0,0.2,0,0.2c0,0,0,0,0,0.1c-0.1,0.1,0,0.2,0,0.3
				c0,1.4,0.1,2.8,0.1,4.2c0,0.1,0,0.2,0,0.3c-3.4-0.6-8.6-1.9-9.9-5.4c-0.1-0.3-0.6-0.1-0.4,0.2c1.9,3.8,6.8,4.5,10.4,5.9
				c0.1,1.6,0.2,3.1,0.3,4.7c-2.2-0.2-4.3-0.5-6.3-1.5c-1.8-0.8-4.3-1.7-5.5-3.4c0-0.1-0.1,0-0.1,0.1c1.1,1.7,3.3,2.5,5.1,3.4
				c2.2,1.2,4.3,2.1,6.8,2.1c0,0.1,0,0.1,0,0.2c0.1,1,0.2,2,0.3,3c-3.8,0.7-9.7-0.9-12.4-3.2c0,0,0,0,0,0c1.8,1.8,4.1,2.6,6.6,3.1
				c1.9,0.4,3.9,0.9,5.8,0.6c0.2,1.8,0.4,3.7,0.5,5.5c-1.8-0.2-3.6,0-5.3-0.3c-2.6-0.4-4.9-1.6-6.8-3.4c-0.1-0.1-0.3,0.1-0.2,0.2
				c3.6,3.5,7.6,3.7,12.4,4.2c0.1,1.5,0.3,3,0.4,4.5c-3.7,0.2-8.9-0.8-11.5-3.4c-0.2-0.2-0.5,0.1-0.3,0.3c1.6,1.7,3.9,2.5,6.2,3
				c1.6,0.4,3.9,1.1,5.7,0.8c0,0,0,0.1,0,0.1c0.2,2.2,0.3,4.3,0.4,6.5c-4.2,0-7.6-2.3-11.1-4.3c-0.2-0.1-0.5,0.2-0.2,0.4
				c3.7,2.2,7,4.5,11.4,4.6c0.1,1.8,0.1,3.5,0.1,5.3c-3.6-0.1-7.6-1.6-10.5-3.9c-0.2-0.2-0.4,0.2-0.2,0.3c3,2.4,6.9,3.9,10.7,4.2
				c0,1.9,0,3.8,0,5.7c-3.6,0.3-6.9-1.2-9.7-3.4c-0.1-0.1-0.2,0.1-0.1,0.1c2.6,2.2,6.2,4.5,9.8,3.9c0,0.6,0,1.2,0,1.8
				c0,0.4,0,0.7,0,1.1c-2.8-0.1-5.5-0.4-8.1-1.7c-0.1,0-0.1,0.1,0,0.1c2.5,1.3,5.3,2,8.2,2.1c0,1.1-0.1,2.3-0.1,3.5
				c-0.7-0.1-1.4-0.3-2.2-0.3c-1.4-0.1-2.5-0.7-3.8-1.1c-0.1,0-0.2,0.1-0.1,0.2c1.2,0.4,2.1,1.1,3.3,1.2c0.9,0.1,1.8,0.3,2.7,0.5
				c-0.1,4.8,0.1,9.8,1.7,13.9c0.4,0.9,2,0.8,2-0.3C343.3,308.4,342.4,305.1,342,301.8z"/>
		</g>
		<polygon class="st38" points="358.2,305.8 357.7,314.3 357,327.6 355.8,349.5 326.2,349.5 325,327.6 324.3,314.3 323.8,305.8 		
			"/>
		<polygon class="st33" points="357.7,314.3 357.6,316 357.5,317.8 357,327.6 325,327.6 324.5,317.8 324.4,316 324.3,314.3 		"/>
		<polygon class="st38" points="357.6,316 357.5,317.8 324.5,317.8 324.4,316 		"/>
	</g>
</g>
<path id="path8615" class="st8" d="M252.4,26.8c-8.7,0-8.1,3.8-8.1,3.8l0,3.9h8.3v1.2H241c0,0-5.5-0.6-5.5,8.1s4.8,8.4,4.8,8.4h2.9
	v-4.1c0,0-0.2-4.8,4.8-4.8s8.2,0,8.2,0s4.6,0.1,4.6-4.5s0-7.5,0-7.5S261.4,26.8,252.4,26.8z M247.8,29.5c0.8,0,1.5,0.7,1.5,1.5
	c0,0.8-0.7,1.5-1.5,1.5c-0.8,0-1.5-0.7-1.5-1.5C246.3,30.1,247,29.5,247.8,29.5z"/>
<path id="path8620" class="st8" d="M252.6,60.8c8.7,0,8.1-3.8,8.1-3.8l0-3.9h-8.3V52H264c0,0,5.5,0.6,5.5-8.1s-4.8-8.4-4.8-8.4h-2.9
	v4.1c0,0,0.2,4.8-4.8,4.8c-4.9,0-8.2,0-8.2,0s-4.6-0.1-4.6,4.5s0,7.5,0,7.5S243.6,60.8,252.6,60.8z M257.2,58.2
	c-0.8,0-1.5-0.7-1.5-1.5s0.7-1.5,1.5-1.5s1.5,0.7,1.5,1.5S258,58.2,257.2,58.2z"/>
<g>
	<path class="st8" d="M74.6,31.5L65,35.6l9.6,4l-1.3,2.9l-11.5-5.1v-3.5l11.5-5.2L74.6,31.5z"/>
	<path class="st8" d="M88.7,22l-6.9,26.6l-3.3-0.8l7-26.6L88.7,22z"/>
	<path class="st8" d="M105.3,33.8v3.5l-11.5,5.1l-1.2-2.9l9.5-4l-9.5-4.1l1.2-2.8L105.3,33.8z"/>
</g>
</svg>
