<?xml version="1.0" encoding="utf-8"?>
<!-- Generator: Adobe Illustrator 22.0.1, SVG Export Plug-In . SVG Version: 6.00 Build 0)  -->
<svg version="1.1" id="_x2018_лой_x5F_1" xmlns="http://www.w3.org/2000/svg" xmlns:xlink="http://www.w3.org/1999/xlink"
	 x="0px" y="0px" viewBox="0 0 2557.5 1685.2" style="enable-background:new 0 0 2557.5 1685.2;" xml:space="preserve">
<style type="text/css">
	.st0{opacity:0.11;}
	.st1{fill:#E71B23;}
	.st2{fill:#F8FCFF;}
	.st3{opacity:0.5;}
	.st4{fill:#C5DDFF;}
	.st5{fill:#DFEBF9;}
	.st6{fill:#CDE0FB;}
	.st7{fill:#AFCDFB;}
	.st8{fill:#D9EAFF;}
	.st9{fill:#FFFFFF;}
	.st10{fill:#739AF0;}
	.st11{fill:#163560;}
	.st12{fill:#EBF2FF;}
	.st13{fill:#2B478B;}
	.st14{fill:#C2CFFF;}
	.st15{fill:#AABDF2;}
	.st16{fill:#F78248;}
	.st17{opacity:0.3;}
	.st18{fill:#1F4777;}
	.st19{fill:#C65528;}
	.st20{fill:#F99746;}
	.st21{fill:#ED7D2B;}
	.st22{fill:#FFB27D;}
	.st23{fill:#F1A34F;}
	.st24{fill:#D86713;}
	.st25{fill:#5283DB;}
	.st26{fill:#0B2442;}
	.st27{fill:#1C468A;}
	.st28{fill:#233862;}
	.st29{fill:#E8945B;}
	.st30{fill:#BDD1F9;}
	.st31{fill:#A8D29F;}
	.st32{fill:#2D4C7F;}
	.st33{fill:#BC111D;}
	.st34{fill:#ED975D;}
	.st35{fill:#83B0FF;}
	.st36{fill:#2E3552;}
</style>
<g class="st0">
	<path class="st1" d="M317.2,1663.2c0,0-251.3-174.1-70.2-544.7c119.8-245,251.7-217.2,230.1-698.7
		c-18.5-412,653.2-447.6,865.5-328.1c212.3,119.5,192.4,211.3,630.8,165.2c305.1-32.1,459.4,410.8,345.4,613.2
		c-161.8,287.1,336.5,492.7,145.1,793.1H317.2z"/>
</g>
<g>
	<path class="st2" d="M1729.7,454.5c0,0,24.4-42.7,82.6-38c0,0,84.6-71.2,174.8-9.5c0,0,95.9-15.3,166.9,13.2c47.4,19,63,39,63,39
		L1729.7,454.5z"/>
</g>
<g>
	<g class="st3">
		<path class="st4" d="M1106.7,683.1c0,0-21.6-103.4-80.6-161.1c-7.8-7.7-21-1.2-19.8,9.7c0,0.2,0,0.4,0.1,0.6
			C1008.6,550.8,1075.5,624.2,1106.7,683.1z"/>
	</g>
	<g class="st3">
		<path class="st4" d="M1115.8,712.4c0,0-64.8-126-160.9-175.8c-5.9-3-13.3-1.1-16.5,4.6c-2.1,3.7-2.7,9.4,0.7,17.7
			C948.3,581.3,1056.7,649.8,1115.8,712.4z"/>
	</g>
</g>
<g>
	<g class="st3">
		<path class="st4" d="M1895.8,1151.5c0,0,40.8-97.5,109.6-143c9.1-6,20.8,2.8,17.6,13.3c-0.1,0.2-0.1,0.4-0.2,0.5
			C2017,1040.2,1937.5,1099.6,1895.8,1151.5z"/>
	</g>
	<g class="st3">
		<path class="st4" d="M1881.3,1178.6c0,0,87.4-111.4,191.3-142.2c6.3-1.9,13.2,1.4,15.4,7.7c1.4,4.1,0.9,9.7-4.1,17.3
			C2070.5,1081.6,1951.1,1128.3,1881.3,1178.6z"/>
	</g>
</g>
<g>
	<path class="st5" d="M2272.2,1182.1c-24.1-68.5-140.4-38-140.4-38s-71.1,128.2-94.1,132.8c-23.1,4.6,39.4-121.4,39.4-121.4
		c-45.4-1-156.4,62.7-156.4,62.7s17.8,142.1-5.7,140.9c-23.5-1.2-9.3-126.6-9.3-126.6c-42.7,16.3-79.7,70.3-79.7,70.3
		c-44.8,86.7,68.8,139.8,68.8,139.8s5.1,49.4-21.3,108.4l0,0c0,0-6.1,11-11.8,29.3l11.9-0.9c0.7-3.3,1.6-6.4,2.5-9.5c0,0,0,0,0-0.1
		c0,0,0-0.1,0-0.1c0.7-1.9,1.7-4.6,2.9-7.9c0,0,0,0,0,0c0,0,0,0,0,0c3.1-7.4,5.2-12.8,6.5-16.7c0,0,0,0,0,0
		c9.3-23.2,22.8-53.4,32.8-60.3c0,0-1.5-1.8-3-5.3c0.9,1.7,1.9,3.4,3,5.3c23.6,42.2,126,41.9,181.9,26.1c55.9-15.8,30-30-2.5-53.7
		c-32.5-23.7-96-12.2-115.7-21c-19.7-8.8,7.2-21,45.3-20.9c38.1,0.1,59.8,36.6,121.3,37.9c61.6,1.3,99.7-117.1,99.7-117.1
		c-41.2,16.2-118.6-1.5-122.6-15.9c-4-14.3,108.2-21.1,125.3-26.8C2268.3,1287.8,2296.3,1250.6,2272.2,1182.1z"/>
</g>
<g>
	<path class="st5" d="M658.4,621.8c23.2-65.9,135.1-36.5,135.1-36.5s68.4,123.3,90.6,127.8c22.2,4.5-37.9-116.9-37.9-116.9
		c43.7-1,150.5,60.4,150.5,60.4s-17.1,136.8,5.5,135.6c22.6-1.2,9-121.9,9-121.9c41.1,15.7,76.7,67.6,76.7,67.6
		c43.2,83.5-66.2,134.6-66.2,134.6s-4.9,47.5,20.5,104.3l0,0c0,0,5.9,10.6,11.4,28.2l-11.5-0.8c-0.7-3.1-1.5-6.2-2.5-9.1
		c0,0,0,0,0-0.1c0,0,0-0.1,0-0.1c-0.7-1.8-1.6-4.4-2.8-7.6c0,0,0,0,0,0c0,0,0,0,0,0c-3-7.1-5-12.3-6.2-16.1c0,0,0,0,0,0
		c-8.9-22.3-22-51.4-31.6-58c0,0,1.4-1.7,2.8-5.1c-0.9,1.6-1.8,3.3-2.8,5.1c-22.7,40.6-121.3,40.4-175.1,25.1
		c-53.8-15.2-28.9-28.9,2.4-51.7c31.3-22.8,92.4-11.7,111.3-20.2c18.9-8.5-7-20.2-43.6-20.1c-36.6,0.1-57.5,35.2-116.8,36.5
		c-59.3,1.3-95.9-112.7-95.9-112.7c39.7,15.6,114.2-1.5,118-15.3c3.8-13.8-104.1-20.3-120.6-25.8
		C662.2,723.4,635.3,687.7,658.4,621.8z"/>
</g>
<g>
	<rect x="1236.7" y="466.2" class="st6" width="710" height="1193.7"/>
</g>
<g>
	<g>
		<g>
			<g>
				<g>
					<rect x="1737.7" y="574.3" class="st7" width="136" height="197"/>
				</g>
				<g>
					<path class="st8" d="M1800.3,574.3c0,0,1.5,65.7-62.6,116.6V574.3H1800.3z"/>
				</g>
				<g>
					<path class="st8" d="M1813.7,574.3c0,0-1.4,65.7,59.9,116.6V574.3H1813.7z"/>
				</g>
			</g>
			<g>
				<rect x="1805.7" y="574.3" class="st9" width="3.4" height="197"/>
			</g>
			<g>
				<rect x="1737.7" y="632.6" class="st9" width="136" height="2.7"/>
			</g>
			<g>
				<rect x="1737.7" y="704" class="st9" width="136" height="2.7"/>
			</g>
			<g>
				<path class="st9" d="M1876.7,774.4h-142.2V571.2h142.2V774.4z M1740.8,768.2h129.8V577.4h-129.8V768.2z"/>
			</g>
		</g>
	</g>
	<g>
		<g>
			<g>
				<g>
					<rect x="1523.7" y="574.3" class="st7" width="136" height="197"/>
				</g>
				<g>
					<path class="st8" d="M1586.4,574.3c0,0,1.5,65.7-62.6,116.6V574.3H1586.4z"/>
				</g>
				<g>
					<path class="st8" d="M1599.8,574.3c0,0-1.4,65.7,59.9,116.6V574.3H1599.8z"/>
				</g>
			</g>
			<g>
				<rect x="1591.7" y="574.3" class="st9" width="3.4" height="197"/>
			</g>
			<g>
				<rect x="1523.7" y="632.6" class="st9" width="136" height="2.7"/>
			</g>
			<g>
				<rect x="1523.7" y="704" class="st9" width="136" height="2.7"/>
			</g>
			<g>
				<path class="st9" d="M1662.8,774.4h-142.2V571.2h142.2V774.4z M1526.8,768.2h129.8V577.4h-129.8V768.2z"/>
			</g>
		</g>
	</g>
	<g>
		<g>
			<g>
				<g>
					<rect x="1309.8" y="574.3" class="st7" width="136" height="197"/>
				</g>
				<g>
					<path class="st8" d="M1372.4,574.3c0,0,1.5,65.7-62.6,116.6V574.3H1372.4z"/>
				</g>
				<g>
					<path class="st8" d="M1385.9,574.3c0,0-1.4,65.7,59.9,116.6V574.3H1385.9z"/>
				</g>
			</g>
			<g>
				<rect x="1377.8" y="574.3" class="st9" width="3.4" height="197"/>
			</g>
			<g>
				<rect x="1309.8" y="632.6" class="st9" width="136" height="2.7"/>
			</g>
			<g>
				<rect x="1309.8" y="704" class="st9" width="136" height="2.7"/>
			</g>
			<g>
				<path class="st9" d="M1448.9,774.4h-142.2V571.2h142.2V774.4z M1312.9,768.2h129.8V577.4h-129.8V768.2z"/>
			</g>
		</g>
	</g>
</g>
<g>
	<g>
		<g>
			<g>
				<g>
					<rect x="1737.7" y="870.1" class="st7" width="136" height="197"/>
				</g>
				<g>
					<path class="st8" d="M1800.3,870.1c0,0,1.5,65.7-62.6,116.6V870.1H1800.3z"/>
				</g>
				<g>
					<path class="st8" d="M1813.7,870.1c0,0-1.4,65.7,59.9,116.6V870.1H1813.7z"/>
				</g>
			</g>
			<g>
				<rect x="1805.7" y="870.1" class="st9" width="3.4" height="197"/>
			</g>
			<g>
				<rect x="1737.7" y="928.4" class="st9" width="136" height="2.7"/>
			</g>
			<g>
				<rect x="1737.7" y="999.8" class="st9" width="136" height="2.7"/>
			</g>
			<g>
				<path class="st9" d="M1876.7,1070.2h-142.2V867h142.2V1070.2z M1740.8,1064h129.8V873.2h-129.8V1064z"/>
			</g>
		</g>
	</g>
	<g>
		<g>
			<g>
				<g>
					<rect x="1523.7" y="870.1" class="st7" width="136" height="197"/>
				</g>
				<g>
					<path class="st8" d="M1586.4,870.1c0,0,1.5,65.7-62.6,116.6V870.1H1586.4z"/>
				</g>
				<g>
					<path class="st8" d="M1599.8,870.1c0,0-1.4,65.7,59.9,116.6V870.1H1599.8z"/>
				</g>
			</g>
			<g>
				<rect x="1591.7" y="870.1" class="st9" width="3.4" height="197"/>
			</g>
			<g>
				<rect x="1523.7" y="928.4" class="st9" width="136" height="2.7"/>
			</g>
			<g>
				<rect x="1523.7" y="999.8" class="st9" width="136" height="2.7"/>
			</g>
			<g>
				<path class="st9" d="M1662.8,1070.2h-142.2V867h142.2V1070.2z M1526.8,1064h129.8V873.2h-129.8V1064z"/>
			</g>
		</g>
	</g>
	<g>
		<g>
			<g>
				<g>
					<rect x="1309.8" y="870.1" class="st7" width="136" height="197"/>
				</g>
				<g>
					<path class="st8" d="M1372.4,870.1c0,0,1.5,65.7-62.6,116.6V870.1H1372.4z"/>
				</g>
				<g>
					<path class="st8" d="M1385.9,870.1c0,0-1.4,65.7,59.9,116.6V870.1H1385.9z"/>
				</g>
			</g>
			<g>
				<rect x="1377.8" y="870.1" class="st9" width="3.4" height="197"/>
			</g>
			<g>
				<rect x="1309.8" y="928.4" class="st9" width="136" height="2.7"/>
			</g>
			<g>
				<rect x="1309.8" y="999.8" class="st9" width="136" height="2.7"/>
			</g>
			<g>
				<path class="st9" d="M1448.9,1070.2h-142.2V867h142.2V1070.2z M1312.9,1064h129.8V873.2h-129.8V1064z"/>
			</g>
		</g>
	</g>
</g>
<g>
	<g>
		<g>
			<g>
				<g>
					<rect x="1523.7" y="1165.9" class="st7" width="136" height="197"/>
				</g>
				<g>
					<path class="st8" d="M1586.4,1165.9c0,0,1.5,65.7-62.6,116.6v-116.6H1586.4z"/>
				</g>
				<g>
					<path class="st8" d="M1599.8,1165.9c0,0-1.4,65.7,59.9,116.6v-116.6H1599.8z"/>
				</g>
			</g>
			<g>
				<rect x="1591.7" y="1165.9" class="st9" width="3.4" height="197"/>
			</g>
			<g>
				<rect x="1523.7" y="1224.2" class="st9" width="136" height="2.7"/>
			</g>
			<g>
				<rect x="1523.7" y="1295.6" class="st9" width="136" height="2.7"/>
			</g>
			<g>
				<path class="st9" d="M1662.8,1365.9h-142.2v-203.2h142.2V1365.9z M1526.8,1359.8h129.8V1169h-129.8V1359.8z"/>
			</g>
		</g>
	</g>
	<g>
		<g>
			<g>
				<g>
					<rect x="1309.8" y="1165.9" class="st7" width="136" height="197"/>
				</g>
				<g>
					<path class="st8" d="M1372.4,1165.9c0,0,1.5,65.7-62.6,116.6v-116.6H1372.4z"/>
				</g>
				<g>
					<path class="st8" d="M1385.9,1165.9c0,0-1.4,65.7,59.9,116.6v-116.6H1385.9z"/>
				</g>
			</g>
			<g>
				<rect x="1377.8" y="1165.9" class="st9" width="3.4" height="197"/>
			</g>
			<g>
				<rect x="1309.8" y="1224.2" class="st9" width="136" height="2.7"/>
			</g>
			<g>
				<rect x="1309.8" y="1295.6" class="st9" width="136" height="2.7"/>
			</g>
			<g>
				<path class="st9" d="M1448.9,1365.9h-142.2v-203.2h142.2V1365.9z M1312.9,1359.8h129.8V1169h-129.8V1359.8z"/>
			</g>
		</g>
	</g>
</g>
<g>
	<rect x="1228.7" y="1496.6" class="st7" width="729.6" height="163.2"/>
</g>
<g>
	<g>
		<path class="st10" d="M1466.6,705.4l-0.3,894.5c0,29.4-23.8,53.2-53.2,53.2l-467.6-0.2c-29.4,0-53.2-23.8-53.2-53.2l0.3-894.5
			c0-29.4,23.8-53.2,53.2-53.2l467.6,0.2C1442.8,652.2,1466.6,676,1466.6,705.4z"/>
	</g>
	<g>
		<path class="st11" d="M1413,1659.8l-467.6-0.2c-33,0-59.9-26.9-59.9-59.9l0.3-894.5c0-33,26.9-59.9,59.9-59.9l467.6,0.2
			c33,0,59.9,26.9,59.9,59.9l-0.3,894.5C1472.9,1632.9,1446.1,1659.8,1413,1659.8z M945.8,658.7c-25.7,0-46.5,20.9-46.5,46.5
			l-0.3,894.5c0,25.7,20.9,46.5,46.5,46.5l467.6,0.2c25.7,0,46.5-20.9,46.5-46.5l0.3-894.5c0-25.7-20.9-46.5-46.5-46.5L945.8,658.7z
			"/>
	</g>
	<g>
		<path class="st12" d="M1415.9,1223v331c0,22-17.8,39.8-39.8,39.8H991.1c-21.9,0-39.7-17.8-39.7-39.8v-331
			c0-22,17.8-39.8,39.7-39.8h385.1c2.9,0,5.7,0.3,8.4,0.9C1402.5,1188,1415.9,1203.9,1415.9,1223z"/>
	</g>
	<g>
		<g>
			<path class="st12" d="M1388.9,1149.9H978.4c-14.9,0-27-12.1-27-27V987.4c0-14.9,12.1-27,27-27h410.5c14.9,0,27,12.1,27,27v135.5
				C1415.9,1137.8,1403.8,1149.9,1388.9,1149.9z"/>
		</g>
		<g>
			<g>
				<path class="st13" d="M1230.1,1034.6H1118c-1.4,0-2.5-1.1-2.5-2.5l0,0c0-1.4,1.1-2.5,2.5-2.5h112.1c1.4,0,2.5,1.1,2.5,2.5l0,0
					C1232.6,1033.5,1231.5,1034.6,1230.1,1034.6z"/>
			</g>
			<g>
				<path class="st13" d="M1305.1,1052.7H1118c-1.4,0-2.5-1.1-2.5-2.5l0,0c0-1.4,1.1-2.5,2.5-2.5h187.1c1.4,0,2.5,1.1,2.5,2.5l0,0
					C1307.6,1051.6,1306.5,1052.7,1305.1,1052.7z"/>
			</g>
		</g>
		<g>
			<rect x="983.5" y="1006" class="st14" width="107.2" height="107.2"/>
		</g>
		<g>
			<g>
				<polygon class="st15" points="1003.4,1085.1 1026.8,1042.9 1044,1066.4 1052.6,1057 1070.8,1085.1 				"/>
			</g>
			<g>
				<path class="st15" d="M1038,1036.8c0-3.3,2.7-6.1,6.1-6.1c3.3,0,6.1,2.7,6.1,6.1s-2.7,6.1-6.1,6.1
					C1040.7,1042.9,1038,1040.2,1038,1036.8z"/>
			</g>
		</g>
		<g>
			<path class="st13" d="M1301.6,1017h-183.9c-1.4,0-2.5-1.1-2.5-2.5v-6c0-1.4,1.1-2.5,2.5-2.5h183.9c1.4,0,2.5,1.1,2.5,2.5v6
				C1304.1,1015.9,1302.9,1017,1301.6,1017z"/>
		</g>
		<g>
			<g>
				<polygon class="st16" points="1142.6,1083.2 1158,1085.4 1146.9,1096.3 1149.5,1111.7 1135.7,1104.4 1121.9,1111.7 
					1124.5,1096.3 1113.4,1085.5 1128.8,1083.2 1135.7,1069.2 				"/>
			</g>
			<g>
				<polygon class="st16" points="1196.1,1083.2 1211.5,1085.4 1200.4,1096.3 1203,1111.7 1189.2,1104.4 1175.4,1111.7 1178,1096.3 
					1166.8,1085.5 1182.3,1083.2 1189.2,1069.2 				"/>
			</g>
			<g>
				<polygon class="st16" points="1249.6,1083.2 1265,1085.4 1253.8,1096.3 1256.5,1111.7 1242.7,1104.4 1228.9,1111.7 
					1231.5,1096.3 1220.3,1085.5 1235.8,1083.2 1242.6,1069.2 				"/>
			</g>
			<g>
				<polygon class="st16" points="1303,1083.2 1318.5,1085.4 1307.3,1096.3 1310,1111.7 1296.2,1104.4 1282.4,1111.7 1285,1096.3 
					1273.8,1085.5 1289.2,1083.2 1296.1,1069.2 				"/>
			</g>
			<g>
				<polygon class="st16" points="1356.5,1083.2 1372,1085.4 1360.8,1096.3 1363.5,1111.7 1349.6,1104.4 1335.8,1111.7 
					1338.5,1096.3 1327.3,1085.5 1342.7,1083.2 1349.6,1069.2 				"/>
			</g>
		</g>
	</g>
	<g>
		<g>
			<path class="st12" d="M1388.9,930.3H978.4c-14.9,0-27-12.1-27-27V767.7c0-14.9,12.1-27,27-27h410.5c14.9,0,27,12.1,27,27v135.5
				C1415.9,918.2,1403.8,930.3,1388.9,930.3z"/>
		</g>
		<g>
			<g>
				<path class="st13" d="M1230.1,815H1118c-1.4,0-2.5-1.1-2.5-2.5l0,0c0-1.4,1.1-2.5,2.5-2.5h112.1c1.4,0,2.5,1.1,2.5,2.5l0,0
					C1232.6,813.8,1231.5,815,1230.1,815z"/>
			</g>
			<g>
				<path class="st13" d="M1305.1,833.1H1118c-1.4,0-2.5-1.1-2.5-2.5l0,0c0-1.4,1.1-2.5,2.5-2.5h187.1c1.4,0,2.5,1.1,2.5,2.5l0,0
					C1307.6,832,1306.5,833.1,1305.1,833.1z"/>
			</g>
		</g>
		<g>
			<rect x="983.5" y="786.4" class="st14" width="107.2" height="107.2"/>
		</g>
		<g>
			<g>
				<polygon class="st15" points="1003.4,865.5 1026.8,823.3 1044,846.7 1052.6,837.3 1070.8,865.5 				"/>
			</g>
			<g>
				<path class="st15" d="M1038,817.2c0-3.3,2.7-6.1,6.1-6.1c3.3,0,6.1,2.7,6.1,6.1c0,3.3-2.7,6.1-6.1,6.1
					C1040.7,823.3,1038,820.6,1038,817.2z"/>
			</g>
		</g>
		<g>
			<path class="st13" d="M1301.6,797.3h-183.9c-1.4,0-2.5-1.1-2.5-2.5v-6c0-1.4,1.1-2.5,2.5-2.5h183.9c1.4,0,2.5,1.1,2.5,2.5v6
				C1304.1,796.2,1302.9,797.3,1301.6,797.3z"/>
		</g>
		<g>
			<g>
				<polygon class="st16" points="1142.6,863.5 1158,865.8 1146.9,876.7 1149.5,892 1135.7,884.8 1121.9,892.1 1124.5,876.7 
					1113.4,865.8 1128.8,863.6 1135.7,849.6 				"/>
			</g>
			<g>
				<polygon class="st16" points="1196.1,863.5 1211.5,865.8 1200.4,876.7 1203,892 1189.2,884.8 1175.4,892.1 1178,876.7 
					1166.8,865.8 1182.3,863.6 1189.2,849.6 				"/>
			</g>
			<g>
				<polygon class="st16" points="1249.6,863.5 1265,865.8 1253.8,876.7 1256.5,892 1242.7,884.8 1228.9,892.1 1231.5,876.7 
					1220.3,865.8 1235.8,863.6 1242.6,849.6 				"/>
			</g>
			<g>
				<polygon class="st16" points="1303,863.5 1318.5,865.8 1307.3,876.7 1310,892 1296.2,884.8 1282.4,892.1 1285,876.7 
					1273.8,865.8 1289.2,863.6 1296.1,849.6 				"/>
			</g>
			<g>
				<polygon class="st16" points="1356.5,863.5 1372,865.8 1360.8,876.7 1363.5,892 1349.6,884.8 1335.8,892.1 1338.5,876.7 
					1327.3,865.8 1342.7,863.6 1349.6,849.6 				"/>
			</g>
		</g>
	</g>
	<g class="st17">
		<g>
			<path class="st10" d="M1125,1309.5c-3.1-0.4-6.2-0.6-9.3-0.6c-0.5,0-1,0-1.5,0c-38,0.8-68.6,31.9-68.6,70.1
				c0,3.7,0.3,7.3,0.8,10.9c5.2,33.1,33.4,58.5,67.7,59.2c0.5,0,1,0,1.5,0c3.2,0,6.3-0.2,9.3-0.6c30.7-4.1,55.2-28.1,60-58.6
				c0.5-3.6,0.8-7.2,0.8-10.9C1185.8,1343.4,1159.3,1314,1125,1309.5z M1125,1425.3c-3,0.6-6.1,0.9-9.3,0.9c-0.5,0-1,0-1.5,0
				c-21.7-0.7-39.6-16-44.4-36.3c-0.8-3.5-1.3-7.1-1.3-10.9c0-25.6,20.3-46.4,45.7-47.2c0.5,0,1,0,1.5,0c3.2,0,6.3,0.3,9.3,0.9
				c21.6,4.3,37.9,23.4,37.9,46.3c0,3.7-0.4,7.4-1.3,10.9C1157.4,1407.7,1143,1421.7,1125,1425.3z"/>
		</g>
		<g>
			<path class="st10" d="M1068.4,1379c0,3.7,0.4,7.4,1.3,10.9h-86.9V1379H1068.4z"/>
		</g>
		<g>
			<path class="st10" d="M1384.5,1379v10.9h-222.9c0.8-3.5,1.3-7.1,1.3-10.9H1384.5z"/>
		</g>
		<g>
			<path class="st10" d="M1125,1198.2v134.5c-3-0.6-6.1-0.9-9.3-0.9c-0.5,0-1,0-1.5,0v-133.5H1125z"/>
		</g>
		<g>
			<path class="st10" d="M1125,1425.3v145.3h-10.9v-144.4c0.5,0,1,0,1.5,0C1118.8,1426.2,1121.9,1425.9,1125,1425.3z"/>
		</g>
		<g>
			<polygon class="st10" points="1373.6,1198.2 1373.6,1386.4 1373.6,1396.6 1384.5,1396.6 1384.5,1386.4 1384.5,1199.1 			"/>
		</g>
		<g>
			<rect x="1250.7" y="1198.2" class="st10" width="10.9" height="372.4"/>
		</g>
		<g>
			<rect x="1139.3" y="1212" class="st10" width="53.9" height="83.7"/>
		</g>
		<g>
			<rect x="982.7" y="1275" class="st10" width="52.5" height="60.1"/>
		</g>
		<g>
			<rect x="982.7" y="1212" class="st10" width="105.7" height="52.5"/>
		</g>
		<g>
			<rect x="1202.2" y="1212" class="st10" width="37.7" height="52"/>
		</g>
		<g>
			<rect x="1202.2" y="1275" class="st10" width="37.7" height="86.9"/>
		</g>
		<g>
			<rect x="1202.2" y="1400.2" class="st10" width="37.7" height="51.5"/>
		</g>
		<g>
			<rect x="1285.8" y="1212" class="st10" width="30.4" height="149.9"/>
		</g>
		<g>
			<rect x="1326.1" y="1212" class="st10" width="37.7" height="149.9"/>
		</g>
		<g>
			<rect x="1280" y="1405.7" class="st10" width="104.5" height="165"/>
		</g>
		<g>
			<rect x="1135.9" y="1508.2" class="st10" width="104" height="62.4"/>
		</g>
		<g>
			<rect x="1135.9" y="1463.4" class="st10" width="104" height="33.1"/>
		</g>
		<g>
			<rect x="982.7" y="1463.4" class="st10" width="93.4" height="107.2"/>
		</g>
		<g>
			<rect x="982.7" y="1395.7" class="st10" width="39.3" height="57.8"/>
		</g>
	</g>
</g>
<g>
	<g>
		<g>
			<rect x="741.8" y="1616.1" class="st11" width="17.6" height="24"/>
		</g>
		<g>
			<rect x="841.3" y="1616.1" class="st11" width="17.6" height="24"/>
		</g>
		<g>
			<path class="st18" d="M738.1,1643.7c0-6.9,5.6-12.5,12.5-12.5s12.5,5.6,12.5,12.5c0,6.9-5.6,12.5-12.5,12.5
				S738.1,1650.6,738.1,1643.7z"/>
		</g>
		<g>
			<path class="st11" d="M743,1643.7c0-4.2,3.4-7.6,7.6-7.6c4.2,0,7.6,3.4,7.6,7.6c0,4.2-3.4,7.6-7.6,7.6
				C746.4,1651.3,743,1647.9,743,1643.7z"/>
		</g>
		<g>
			<path class="st18" d="M837.5,1643.7c0-6.9,5.6-12.5,12.5-12.5c6.9,0,12.5,5.6,12.5,12.5c0,6.9-5.6,12.5-12.5,12.5
				C843.1,1656.2,837.5,1650.6,837.5,1643.7z"/>
		</g>
		<g>
			<path class="st11" d="M842.5,1643.7c0-4.2,3.4-7.6,7.6-7.6c4.2,0,7.6,3.4,7.6,7.6c0,4.2-3.4,7.6-7.6,7.6
				C845.9,1651.3,842.5,1647.9,842.5,1643.7z"/>
		</g>
		<g>
			<path class="st19" d="M892.3,1629.5H710.2c-17.5,0-31.6-14.2-31.6-31.6v-4.1h242.9v6.5C921.5,1616.4,908.5,1629.5,892.3,1629.5z"
				/>
		</g>
		<g>
			<path class="st20" d="M929.9,1293.7v289.9c0,3.5-0.4,6.9-1.1,10.2h-34c-5.3,0-10.2,1.5-14.3,4.2c-2.6,1.6-4.8,3.7-6.7,6.1
				c-3.5,4.5-5.6,10.2-5.6,16.4v9H734.8v-9c0-9.3-4.8-17.5-12-22.3c-2-1.3-4.3-2.4-6.7-3.2c-2.5-0.8-5.2-1.2-8-1.2h-36.8
				c-0.7-3.3-1.1-6.7-1.1-10.2v-289.9c0-25.4,20.5-45.9,45.9-45.9H884C909.3,1247.8,929.9,1268.3,929.9,1293.7z"/>
		</g>
		<g>
			<path class="st11" d="M848.9,1247.6c-31.4-12.4-57.6-11.8-74-9.1c-17.8,2.9-28.3,8.9-28.5,8.9l-2.2-3.8
				c0.4-0.3,11.2-6.3,29.7-9.4c17-2.8,44.1-3.5,76.6,9.3L848.9,1247.6z"/>
		</g>
		<g>
			<path class="st21" d="M722.8,1247.8v350.4c-2-1.3-4.3-2.4-6.7-3.2v-347.2H722.8z"/>
		</g>
		<g>
			<rect x="769.7" y="1247.8" class="st21" width="6.7" height="381.8"/>
		</g>
		<g>
			<rect x="819.7" y="1247.8" class="st21" width="6.7" height="381.8"/>
		</g>
		<g>
			<path class="st21" d="M880.4,1247.8V1598c-2.6,1.6-4.8,3.7-6.7,6.1v-356.3H880.4z"/>
		</g>
	</g>
	<g>
		<g>
			<path class="st22" d="M525.3,1097.7c0-0.5,7.3-15.6,5-16.8c-2.3-1.2-6.5-1-7,1.7C522.8,1085.2,525.3,1097.7,525.3,1097.7z"/>
		</g>
		<g>
			<path class="st22" d="M528,1106.7c0-1.5-1.7-24.1-5.5-28.7c-3.8-4.5-11.6-10.9-14.1-10.7c-2.5,0.2-12.1,13-9.2,22.7
				c2.9,9.8,15.1,23,15.1,23L528,1106.7z"/>
		</g>
		<g>
			<g>
				<path class="st23" d="M542.6,1079.2l-22.3,6.7c-0.7,0.2-1.5-0.2-1.7-0.9l-12.7-42.4c-0.2-0.7,0.2-1.5,0.9-1.7l22.3-6.7
					c0.7-0.2,1.5,0.2,1.7,0.9l12.7,42.4C543.8,1078.2,543.3,1079,542.6,1079.2z"/>
			</g>
			<g>
				<path class="st24" d="M536.8,1081l-20.2,6.1c-1.3,0.4-2.7-0.4-3.1-1.7l-12.1-40.4c-0.4-1.3,0.4-2.7,1.7-3.1l20.2-6.1
					c1.3-0.4,2.7,0.4,3.1,1.7l12.1,40.4C538.9,1079.2,538.1,1080.6,536.8,1081z"/>
			</g>
		</g>
		<g>
			<path class="st22" d="M506.1,1069c0,0,9.3-14.3,11.5-13.5c3.2,1.1-8.4,19.2-8.4,19.2s8.6-13.5,10-12.5c3.1,2.3-1.8,10.8-6.7,17.3
				c0,0,8.7-7.9,9-6.5c1,5-9.5,17.1-9.5,17.1l-5.9-13.4V1069z"/>
		</g>
		<g>
			<path class="st22" d="M499.2,1082.2c0.4-1.7,2.7-35.8,3.7-32.6c1,3.2,3.3,21.1,3.3,21.1L499.2,1082.2z"/>
		</g>
		<g>
			<path class="st10" d="M647.1,1072.8c0,0-1,37-11.6,66.9c-8.4,23.6-22.9,42.7-47.8,35.7c-2.5-0.7-5-1.5-7.4-2.3c0,0,0,0,0,0
				c-50.5-17.6-66.8-57.9-66.8-57.9c3.8-6.2,14.7-8.5,14.7-8.5c10.2,0.5,54.9,19.5,57.7,20.1c10.3,2.1,18.7-54.7,25.4-74.4
				c6.7-19.7,34.2-28.5,34.2-28.5L647.1,1072.8z"/>
		</g>
		<g>
			<path class="st25" d="M636.4,1113l-1,26.7c-8.4,23.6-22.9,42.7-47.8,35.7c-2.5-0.7-5-1.5-7.4-2.3c0.8,0.1,16,2.2,22.4-4.2
				c6.5-6.6,5.9-28.3,17.9-42.7C632.6,1111.7,636.4,1113,636.4,1113z"/>
		</g>
		<g>
			<path class="st26" d="M637.8,1601c0,0,12.4,11.3,10,19.4c-2.4,8.1-13.6,13.4-15.2,23.3c-1.5,9.9-7.6,15.2-13,15.2
				c-5.5,0-26,0-26,0s-4-6.9,5.7-9c9.7-2.1,13.4-13.7,12.8-24.4c-0.6-10.7,0.9-25.1,0.9-25.1l20.6-4.8L637.8,1601z"/>
		</g>
		<g>
			<path class="st26" d="M500.8,1656.8h76.6c3,0,5.5-2.4,5.6-5.4c0.1-4.5-0.3-11-2.7-16.5c-4.1-9.1-6.7-10.7,10.6-37
				c-5.2,5.3-19.2,2.9-31,1.3c-1.4,2.3-23.4,36.2-28.2,39.7C526.3,1642.7,502.5,1641.3,500.8,1656.8z"/>
		</g>
		<g>
			<path class="st11" d="M620.2,1232c0,0-55.5,104.8-70.6,162.5c-11.7,44.8,59.8,218.1,59.8,218.1s5.8-0.4,15.4-4.1
				c9.4-3.7,12.9-13.5,12.9-13.5s-4.2-123.9-18.7-183.9c-3.2-13.5,15.7-56.9,47.8-80.6c32-23.8,45.4-100.3,26.3-105.4
				C673.9,1219.8,620.2,1232,620.2,1232z"/>
		</g>
		<g>
			<path class="st27" d="M667.7,1202.3c0,0-58.4,214-76.1,262.1c-17.7,48.1-45.8,150.1-45.8,150.1s17.8,8.3,40.5,4.4
				c0,0,85.4-125.1,89.1-180.3c1.7-25.6,87.6-126.8,78-192.9L667.7,1202.3z"/>
		</g>
		<g>
			<path class="st10" d="M753.3,1269.1c0,0-12.4,6.3-34.4,8.1h0c-25.1,2.1-62.8-1.6-108.7-27.1c0,0-12.8-10.5,2.9-55.4
				c11.9-33.9,17.7-105.5,32.2-170.7c0,0,47.1-14.8,84.9-2c28.9,9.8,26,54.1,31.3,100.2c0.5,4.3,1.1,8.6,1.7,12.9
				C771.2,1185.6,753.3,1269.1,753.3,1269.1z"/>
		</g>
		<g>
			<path class="st28" d="M628.8,927.4c0,0,32.2-52.3,57.1-25.4c0,0,16.3,4.2,25.6,29.5c9.5,25.9-5.3,48.7-15.2,45
				c-6.3-2.4-9.3,8.6-9.3,8.6L628.8,927.4z"/>
		</g>
		<g>
			<path class="st28" d="M680.9,897.8c0,0,2.2-21.7,33.9-19.6c0,0-15,0.3-18.2,6.5c0,0,10.9-7,18.8-3.6c7.9,3.4,11.3,18.3,10.9,23
				c-0.4,4.7-6.5,19.5-11.9,20.3c-5.3,0.8-12.3-3-12.3-3L680.9,897.8z"/>
		</g>
		<g>
			<path class="st22" d="M696.8,1020.6c-3-7.9-7.4-16.2-11-41.6l-1.9,0.7l-32,11.3c0,0,2.2,10.2,3.7,20c0.6,4,1,11.1,1.3,17.3
				c0.3,6.4,6.5,7,12.9,6.7C686.7,1034.1,696,1027.8,696.8,1020.6z"/>
		</g>
		<g>
			<path class="st29" d="M652,990.9c0,0,2.2,10.2,3.7,20c18.3-3.2,25.6-21.4,28.3-31.3L652,990.9z"/>
		</g>
		<g>
			<path class="st28" d="M686.9,975.6c0,0,7.5-16.6,7.9-30c0.3-9.5-9.4-43.4-43.4-33.4c0,0-9.9,2.4-18.5,10.2
				c-6.8,6.2-16.1,18.7,0.4,47.1l4.6,9.7L686.9,975.6z"/>
		</g>
		<g>
			<path class="st22" d="M647.2,1001.1c0,0,43.7-5.6,39.8-32.7c-3.9-27.1-0.9-46.1-28.9-43.7c-28,2.4-32,13.5-32.9,22.9
				C624.3,956.9,635.7,1001.8,647.2,1001.1z"/>
		</g>
		<g>
			<path class="st28" d="M638.1,926.8c0,0,16.5,30.1,35.5,32.2c19,2.1,26.2-4,26.2-4s-15.6-9.1-21.4-28.2
				C678.5,926.8,644.9,910.4,638.1,926.8z"/>
		</g>
		<g>
			<path class="st28" d="M641.5,929c0,0-7.9,8.4-9.1,15.6c-1.2,7.2-0.1,21.6-4.3,21.7c0,0-12.1-20.3-3.8-34
				C633.2,917.7,641.5,929,641.5,929z"/>
		</g>
		<g>
			<path class="st28" d="M640,930.3c0,0,13.3,32.1,37.9,39.5c0,0-26-17.2-31.2-38.9S640,930.3,640,930.3z"/>
		</g>
		<g>
			<path class="st25" d="M753.3,1269.1c0,0-12.4,6.3-34.4,8.1h0c0,0-18-22.6,2.1-48c20.1-25.4-1.6-72.1,13.9-97.6
				c10.8-17.7,21.3-13.6,26.7-9.4c0.5,4.3,1.1,8.6,1.7,12.9C771.2,1185.6,753.3,1269.1,753.3,1269.1z"/>
		</g>
		<g>
			<path class="st22" d="M832.5,1231.4c0,0,2.7,6.2,6.4,6.6c6.1,0.7,17.7,5.8,19.6,6.9c4.9,2.9,4.6,16.1-0.3,17.3
				c-4.9,1.2-7.4-9.8-22.9-12.7c-5.2-1-12.9,2.6-16-9.9L832.5,1231.4z"/>
		</g>
		<g>
			<path class="st10" d="M730.3,1021.9c45,16.5,46.6,96.2,66.7,131.3c20.7,36.2,40.8,83.8,40.8,83.8s-0.4,1.4-8.1,3.6
				c-5.4,1.6-11.1,0.9-11.1,0.9s-42.5-38.4-54-53.6c-11.5-15.2-38.8-85.5-38.8-85.5S712.4,1015.3,730.3,1021.9z"/>
		</g>
		<g>
			<path class="st22" d="M820.4,1242.7c0,0,1.1,5.4,7.7,9.7c6.6,4.3,11.9,8.7,12.6,6c0.6-2.7-3.7-5.6-4.7-10.5
				C835,1242.9,820.4,1242.7,820.4,1242.7z"/>
		</g>
	</g>
</g>
<g>
	<polygon class="st16" points="1973.4,507.9 1213.7,507.9 1254.2,327.9 1932.9,327.9 	"/>
</g>
<g>
	<g>
		<rect x="1351.8" y="381.3" class="st30" width="69.7" height="69.7"/>
	</g>
	<g>
		<g>
			<g>
				<path class="st11" d="M1348.5,378.1v76.1h76.1v-76.1H1348.5z M1418.2,447.8H1355v-63.2h63.2V447.8z"/>
			</g>
		</g>
		<g>
			
				<rect x="1351.8" y="413" transform="matrix(-1.836970e-16 1 -1 -1.836970e-16 1802.7629 -970.4359)" class="st11" width="69.7" height="6.3"/>
		</g>
	</g>
	<g>
		<rect x="1334.7" y="365.1" class="st11" width="100.9" height="14.6"/>
	</g>
</g>
<g>
	<g>
		<rect x="1559.1" y="381.3" class="st30" width="69.7" height="69.7"/>
	</g>
	<g>
		<g>
			<g>
				<path class="st11" d="M1555.9,378.1v76.1h76.1v-76.1H1555.9z M1625.6,447.8h-63.2v-63.2h63.2V447.8z"/>
			</g>
		</g>
		<g>
			
				<rect x="1559.1" y="413" transform="matrix(-1.836970e-16 1 -1 -1.836970e-16 2010.1379 -1177.8109)" class="st11" width="69.7" height="6.3"/>
		</g>
	</g>
	<g>
		<rect x="1541.3" y="365.1" class="st11" width="100.9" height="14.6"/>
	</g>
</g>
<g>
	<g>
		<rect x="1765.7" y="381.3" class="st30" width="69.7" height="69.7"/>
	</g>
	<g>
		<g>
			<g>
				<path class="st11" d="M1762.5,378.1v76.1h76.1v-76.1H1762.5z M1832.2,447.8H1769v-63.2h63.2V447.8z"/>
			</g>
		</g>
		<g>
			
				<rect x="1765.7" y="413" transform="matrix(-1.836970e-16 1 -1 -1.836970e-16 2216.7478 -1384.4208)" class="st11" width="69.7" height="6.3"/>
		</g>
	</g>
	<g>
		<rect x="1747.9" y="365.1" class="st11" width="100.9" height="14.6"/>
	</g>
</g>
<g>
	<path class="st31" d="M351.9,1658.5h99.2c5.3-4.5-3.7-14.8-13.1-15.4c-4.1-0.3-9.2,0.5-15.1,1.8c-1.4-18.1-9.2-99.7-38.6-96.4
		c-33,3.7,0,35.9,9.3,55c6.9,14.1,14.2,34.4,17.6,44c-2.7,0.6-5.5,1.2-8.3,1.7c-4.4-13.4-20.7-58.7-41.4-56.1
		c-24.3,3.1-14.6,21.2,2.7,32c12.7,7.9,28.2,19.2,35.6,24.6c-6.3,1-12.8,1.7-19.4,1.6C363.4,1650.8,355.1,1655.8,351.9,1658.5z"/>
</g>
<g>
	<path class="st31" d="M2394.8,1656.9H2320c-4-3.4,2.8-11.1,9.9-11.6c3.1-0.2,7,0.4,11.4,1.4c1-13.7,6.9-75.1,29-72.6
		c24.9,2.8,0,27.1-7,41.4c-5.2,10.7-10.7,25.9-13.2,33.1c2,0.4,4.1,0.9,6.3,1.3c3.3-10.1,15.6-44.2,31.2-42.2c18.3,2.3,11,16-2,24.1
		c-9.5,6-21.2,14.4-26.8,18.5c4.7,0.8,9.6,1.3,14.6,1.2C2386.1,1651.1,2392.4,1654.9,2394.8,1656.9z"/>
</g>
<g>
	<path class="st22" d="M1601.8,1010.6c3.5,9.4,9.6,20.4,16,23.1c7.2,3.1,10.3,7.5,10.3,7.5l5.8-3.4l7-4.1c0,0-0.2-0.8-0.5-2
		c-0.3-1.3-0.9-3-1.6-5c0,0-2.1-2.8-0.8-6.2c1.3-3.5,1-8.8-1.2-12.1c-2.2-3.3-4.4-11.3-5.7-11c-3.3,0.6,1.6,11.6,0.2,13.6
		c-1.3,1.8-2.8,1.2-3.1,1.1c0,0,0,0-0.1,0c-9.2-4-20.3-25.7-25.2-22.8C1601,990.4,1600.3,1006.6,1601.8,1010.6z"/>
</g>
<g>
	<g>
		<path class="st13" d="M1633.5,1023.7l-11.5,8.1c-0.8,0.6-1.9,0.4-2.5-0.4l-29.4-41.8c-0.6-0.8-0.4-1.9,0.4-2.5l11.5-8.1
			c0.8-0.6,1.9-0.4,2.5,0.4l29.4,41.8C1634.5,1022,1634.3,1023.2,1633.5,1023.7z"/>
	</g>
	<g>
		<path class="st28" d="M1623,1031.1l-6.7,4.7c-0.6,0.4-1.5,0.3-1.9-0.3l-29.9-42.5c-0.4-0.6-0.3-1.5,0.3-1.9l6.7-4.7
			c0.6-0.4,1.5-0.3,1.9,0.3l29.9,42.5C1623.8,1029.8,1623.6,1030.7,1623,1031.1z"/>
	</g>
</g>
<g>
	<path class="st28" d="M1798.2,963.7c0,0-58.4,101.9-79.6,120.6l-77.7-57.9c0,0-11.3,3.5-16.2,14.8c0,0,59.7,96.2,93.6,100.2
		c46.3,5.4,111.6-115.2,111.6-115.2L1798.2,963.7z"/>
</g>
<g>
	<path class="st32" d="M1907.3,1658.2h33.7c4.2-2.3,8-7.6,9.2-15.5c1.6-10.9,13.8-16.8,16.5-25.7c2.6-8.9-10.9-21.4-10.9-21.4
		l-2.3-2.9l-2.3-3l-22.4,5.3c0,0-0.6,5.3-0.9,12.1c-0.2,4.9-0.4,10.6-0.1,15.5c0.7,11.9-3.3,24.6-13.8,26.9
		C1906.2,1651.3,1906.6,1655.9,1907.3,1658.2z"/>
</g>
<g>
	<path class="st32" d="M1734.5,1656.5h77.2c3.7-4.5,2.3-21.2,1.8-26.7c-0.1-1.1-0.2-1.7-0.2-1.7s-26.3-21.1-30-4.9
		c-0.1,0.5-0.2,1-0.4,1.5c-4.6,15.1-25,22-36.8,23.9C1738.4,1649.7,1735.5,1653.7,1734.5,1656.5z"/>
</g>
<g>
	<path class="st1" d="M1749.2,1225.8c0,0,4,49.9,8.7,109.9c6.4,81.5,14.1,181.6,14.8,200.6c1.3,32.9,6.6,85.6,6.6,85.6
		s12.5,12.5,37.5,7.2c0,0,22.3-75.2,28.7-154.8c0.1-1.3,0.2-2.6,0.3-3.9c5.9-81,15.1-251.6,15.1-251.6L1749.2,1225.8z"/>
</g>
<g>
	<path class="st33" d="M1749.2,1225.8c0,0,4,49.9,8.7,109.9l87.6,138.7c0.1-1.3,0.2-2.6,0.3-3.9c5.9-81,15.1-251.6,15.1-251.6
		L1749.2,1225.8z"/>
</g>
<g>
	<path class="st1" d="M1768.7,1217.6c0,0,60.5,184.5,102.2,271.9c41.7,87.4,54.9,111.9,54.9,111.9s27.2-9.4,30-16.6
		c0,0-14.4-153.4-43.3-195.1c-16.3-23.5-27.3-103.7-26.9-127.4c0.4-23.7-2.3-70.9-2.3-70.9L1768.7,1217.6z"/>
</g>
<g>
	<path class="st22" d="M1785.4,968.1c28.2,8.9,76.9-15.1,76.9-15.1s-26-19.5-24.6-60l-21.8,17.6l-14.8,11.9c0,0,0.1,7,1.7,19.4
		c0,0,0,0.1,0,0.1c0.8,6.2-1.7,12.3-6.6,16.1C1789.3,963.2,1785.4,968.1,1785.4,968.1z"/>
</g>
<g>
	<path class="st34" d="M1801.1,922.5c0,0,0.1,7,1.7,19.4c16.4-2.8,35-29.3,35-29.3c-8.4-2.4-15.7-2.8-21.9-2L1801.1,922.5z"/>
</g>
<g>
	<path class="st22" d="M1792.5,921.8c0,0,46.5,7.7,50.9-21.3c4.4-29.1,13.3-47.6-16.2-53.8c-29.5-6.2-37,4.1-40.8,13.4
		C1782.6,869.4,1780.5,919,1792.5,921.8z"/>
</g>
<g>
	<path class="st13" d="M1746.1,1229.9c0.8,0.7,1.8,1.1,3,1.1c10.6-0.1,41.4,5.7,67.6,3.1c22-2.1,41.5-8.6,62.4-18
		c2.8-1.2,9.2-4.7,9-7.8c-0.1-3.4-0.4-8.3-0.9-14.5c-1.5-21.6-4.1-58.7-1.5-101.6c0.5-8,0.7-15.9,0.7-23.7
		c0.2-58.1-11.3-109.2-34.4-126.5c-2-1.4-14.1,4.5-25.3,10c-10.3,5.1-18.2,5.6-28,3.6l-12.1,8.7c-11.9,11-24.8,26-30.5,48.7
		c-4.8,19.3-7.6,54.2-9.2,90.3c-0.7,16.4-1.3,32.9-1.4,48.5v0.6c-0.1,1.6-0.1,3.3-0.1,4.8
		C1744.8,1197.5,1745.4,1229.3,1746.1,1229.9z"/>
</g>
<g>
	<path class="st28" d="M1887.2,1193.8c-1.5-21.6-4.1-58.7-1.5-101.6c0.5-8,0.7-15.9,0.7-23.7c-9.6-23.4-17.5-40.3-17.5-40.3h-24.3
		C1844.5,1028.1,1826.7,1149.8,1887.2,1193.8z"/>
</g>
<g>
	<path class="st13" d="M1843.5,897.7c0,0-4.8-0.8-4-7.4c0.8-6.6,0.8-15.2-4.6-13.6c-5.3,1.6-5.6,5.9-7.8,3.4
		c-2.2-2.5-2.2-13-18.2-13.8c-15.9-0.7-22.4,4.8-29.8,1.6c-7.4-3.3-7.8-14.5-7.8-14.5s2.1,4,5.3,5.3c0,0-12.3-16.9,1.9-28.5
		c14.3-11.6,28.9-4,37.2-3.5c18.2,1.1,30,2.2,36,14.2C1857.6,852.9,1855.2,886.2,1843.5,897.7z"/>
</g>
<g>
	<g>
		<path class="st27" d="M2198,1636.2c-1.4,9,5.3,19.5,15.1,23.3c9.8,3.8,18.9-0.4,20.4-9.4c1.4-9-5.3-19.5-15.1-23.3
			C2208.6,1622.9,2199.4,1627.1,2198,1636.2z"/>
	</g>
	<g>
		<path class="st27" d="M2073.6,1636.4c-1.4,9,5.3,19.5,15.1,23.3c9.8,3.8,18.9-0.4,20.4-9.4c1.4-9-5.3-19.5-15.1-23.3
			C2084.1,1623.2,2075,1627.4,2073.6,1636.4z"/>
	</g>
	<g>
		<path class="st10" d="M2233.3,1633.9l-22.3,9.1c-2.3,0.9-4.8,1.4-7.4,1.4l-140.3-1.2l-22-26L2233.3,1633.9z"/>
	</g>
	<g>
		<g>
			<path class="st27" d="M2089.6,1333.2l-53.7-78.6l-0.1-0.2c-0.3-0.7-8.9-17.5-54.3-22.1l-0.2,0l-37.4-5.1
				c-4.8-0.9-18.8-2.5-25,0.8c-2.8,1.4-3.8,3.7-3.2,7c1.2,6.5,36.9,57.5,60.6,90.2l-7,1.8c-6.1-8.4-59.5-82.3-61.2-91.7
				c-0.9-4.9,1-8.7,5.7-11.1c10.2-5.3,29.7-2,31.8-1.6l36.9,5c48.9,4.9,59.7,23.5,60.8,25.6l53.5,78.4L2089.6,1333.2z"/>
		</g>
	</g>
	<g>
		<path class="st10" d="M1997.5,1317.6l-71.6,15.6c0,0-19.7,9.2-5.1,48.8c12.8,34.8,79.8,230.3,79.8,230.3s14,40.7,95.6,28.7
			L1997.5,1317.6z"/>
	</g>
	<g>
		<path class="st35" d="M1969.5,1371.5l76.5,218.9c3.1,8.9,8.2,17,14.7,23.8c12,12.6,28.4,20.8,44.5,20.9l70.2,0.3l1.7,0l43.9,0.2
			c4.4,0,8.5-0.6,12.3-1.7c0.9-0.3,1.7-0.5,2.6-0.9c13.9-5.2,22.3-17.9,22.6-33.5c0.1-6.6-1.2-13.8-4.2-21.1l-85.6-209.4
			c-9.1-22.3-31.3-39.4-53.7-41.5l-12.7-1.2l-3-0.3l0,0l-2.5-0.2l-42.4-4l-5.2-0.5l-40.9-3.8c-6.4-0.6-12.3,0.1-17.5,1.7
			c-0.3,0.1-0.7,0.2-1,0.3l-2.1,0.8C1969.8,1327.9,1961.4,1348.3,1969.5,1371.5z"/>
	</g>
	<g class="st3">
		<path class="st10" d="M2060.7,1614.2c12,12.6,28.4,20.8,44.5,20.9l70.2,0.3l1.7,0l43.9,0.2c4.4,0,8.5-0.6,12.3-1.7
			c0.9-0.3,1.7-0.5,2.6-0.9c13.9-5.2,26.5-24.1,21.6-44.1c0,0-148.7-1.7-178.4,3.3C2063.8,1594.8,2062,1606.3,2060.7,1614.2z"/>
	</g>
	<g>
		<g>
			<g>
				<path class="st10" d="M2096.7,1325.7c0.4,0.2,38.1,20.4,46.9,38.3c9.1,18.3,93.3,232.1,94.1,234.2c0.1,0.2,6.2,20.8-6.6,36.3
					l2.1-0.6c0.9-0.3,1.7-0.5,2.6-0.9c11.6-16,4.7-34.4,4.4-35.2c-3.5-8.8-85.1-216-94.3-234.5c-8-16.2-35.1-32.3-43.7-37.1l-3-0.3
					l0,0L2096.7,1325.7z"/>
			</g>
		</g>
		<g>
			<g>
				<path class="st10" d="M2049.1,1321.3c5.5,3.2,26.9,17.1,37.3,42.8c12.2,30.1,85.8,248.9,86.5,251.1l0.1,0.2l0.1,0.1
					c0.1,0.1,5.6,11.9,0.5,20l1.8,0l1.7,0c4.7-8.6-0.8-19.2-1.6-20.6c-2.3-6.8-74.5-221.2-86.6-251.1c-9-22.1-25.8-35.9-34.6-41.9
					L2049.1,1321.3z"/>
			</g>
		</g>
		<g>
			<g>
				<path class="st10" d="M1987.6,1320.3c0.2,0.1,7.9,4,15.5,10.7c7.6,6.8,16.6,17.2,22.5,31.9c12.2,30.1,82,248.1,82.7,250.3
					l0.1,0.2l0.1,0.2c0.1,0.1,4.1,13.5-1,21.5l4.4,0c3.6-7.3-0.1-20.6-1-22.2c-2.2-7-70.6-220.5-82.7-250.4
					c-11.4-28.1-32.9-40.9-37.4-43.4c-0.3,0.1-0.7,0.2-1,0.3L1987.6,1320.3z"/>
			</g>
		</g>
	</g>
</g>
<g>
	<path class="st22" d="M1936.6,1184.6c0,0,3.1,22.3,3.3,25.2c1.5,19.6-1.3,21.5,9.4,25c3,1,11,1,15.6-4.7c0,0-7.5-0.5-6.2-11.3
		c1.5-12.4,0.7-8.9-6.8-19l-1.8-18.6L1936.6,1184.6z"/>
</g>
<g>
	<path class="st13" d="M1946.7,1203.5c-8.8,1.7-18.2,1-18.2,1s-26-80.3-29.3-87.6c-3.3-7.3-77.2-94.1-77.2-94.1l30.8-77
		c0,0,79.8,133.4,88,152.1c13.4,31,18,100.4,18,100.4S1953.6,1202.2,1946.7,1203.5z"/>
</g>
<g>
	<path class="st22" d="M1939.9,1209.8c0,0-1.9,4.9-2,7.2c-0.2,7.4-2.3,10.8-1,11.4c2.7,1.3,5.4-4.4,6.5-9.4
		C1944.5,1214,1939.9,1209.8,1939.9,1209.8z"/>
</g>
<g>
	<g>
		<path class="st11" d="M1395.2,713.8c0-3.3-2.7-6-6-6s-6,2.7-6,6c0,3.3,2.7,6,6,6S1395.2,717.2,1395.2,713.8z"/>
	</g>
	<g>
		<path class="st11" d="M1400,707.4c-0.5,0-1-0.2-1.4-0.5c-3.2-3-6.4-4.4-9.7-4.3c-5.1,0.2-8.8,4.1-8.8,4.2c-0.7,0.8-2,0.9-2.8,0.1
			c-0.8-0.7-0.9-2-0.1-2.8c0.2-0.2,4.8-5.2,11.6-5.5c4.4-0.2,8.7,1.6,12.7,5.4c0.8,0.8,0.8,2,0.1,2.8
			C1401.1,707.2,1400.5,707.4,1400,707.4z"/>
	</g>
	<g>
		<path class="st11" d="M1406.3,698.7c-0.5,0-1-0.2-1.4-0.5c-5.3-4.9-10.7-7.4-16.3-7.1c-8.6,0.3-14.7,6.9-14.8,7
			c-0.7,0.8-2,0.9-2.8,0.1c-0.8-0.7-0.9-2-0.2-2.8c0.3-0.3,7.2-7.9,17.5-8.3c6.7-0.3,13.1,2.5,19.2,8.2c0.8,0.8,0.8,2,0.1,2.8
			C1407.3,698.5,1406.8,698.7,1406.3,698.7z"/>
	</g>
	<g>
		<path class="st11" d="M1412.8,690.2c-0.5,0-1-0.2-1.4-0.5c-7.5-7-15.3-10.4-23.2-10.1c-12.3,0.5-20.9,9.9-21,10
			c-0.7,0.8-2,0.9-2.8,0.1c-0.8-0.7-0.9-2-0.2-2.8c0.4-0.4,9.8-10.7,23.8-11.3c9.1-0.4,17.8,3.4,26.1,11.2c0.8,0.8,0.8,2,0.1,2.8
			C1413.9,690,1413.4,690.2,1412.8,690.2z"/>
	</g>
</g>
<g>
	<g>
		<path class="st11" d="M1003.1,688.4h-39.2c-1.4,0-2.6-1.2-2.6-2.6l0,0c0-1.4,1.2-2.6,2.6-2.6h39.2c1.4,0,2.6,1.2,2.6,2.6l0,0
			C1005.7,687.2,1004.6,688.4,1003.1,688.4z"/>
	</g>
	<g>
		<path class="st11" d="M1003.1,699.9h-39.2c-1.4,0-2.6-1.2-2.6-2.6l0,0c0-1.4,1.2-2.6,2.6-2.6h39.2c1.4,0,2.6,1.2,2.6,2.6l0,0
			C1005.7,698.7,1004.6,699.9,1003.1,699.9z"/>
	</g>
	<g>
		<path class="st11" d="M1003.1,712.2h-39.2c-1.4,0-2.6-1.2-2.6-2.6l0,0c0-1.4,1.2-2.6,2.6-2.6h39.2c1.4,0,2.6,1.2,2.6,2.6l0,0
			C1005.7,711.1,1004.6,712.2,1003.1,712.2z"/>
	</g>
</g>
<g>
	<path class="st2" d="M533.2,347.2c0,0,14.4-25.7,48.8-22.9c0,0,49.9-42.9,103.1-5.7c0,0,56.6-9.2,98.5,8
		c27.9,11.5,37.2,23.5,37.2,23.5L533.2,347.2z"/>
</g>
<g>
	<path class="st2" d="M768.2,238.2c0,0,32-57.3,108.6-51c0,0,111.2-95.5,229.7-12.7c0,0,126-20.5,219.3,17.8
		c62.2,25.5,82.8,52.3,82.8,52.3L768.2,238.2z"/>
</g>
<g>
	<path class="st2" d="M661,454.5c0,0,24.4-42.7,82.6-38c0,0,84.6-71.2,174.8-9.5c0,0,95.9-15.3,166.9,13.2c47.4,19,63,39,63,39
		L661,454.5z"/>
</g>
<g>
	<circle class="st12" cx="1214.7" cy="1325.2" r="63.8"/>
</g>
<g>
	<g>
		<path class="st1" d="M1119,1334.1c1.8,55,97.3,139.7,97.3,139.7s89.6-90.9,87.8-145.9c-1.8-55-44.8-98.1-95.9-96.4
			C1157.1,1233.2,1117.2,1279.2,1119,1334.1z M1156.8,1327c-1-30,22.7-55.3,52.7-56.4c30.2-1,55.3,22.7,56.4,52.7
			c1,30.2-22.5,55.3-52.7,56.4C1183.1,1380.7,1157.8,1357.2,1156.8,1327z"/>
	</g>
</g>
<g>
	<path class="st36" d="M2552.8,1663.3H37.7c-1.6,0-2.9-1.3-2.9-2.9v-1.1c0-1.6,1.3-2.9,2.9-2.9h2515.1c1.6,0,2.9,1.3,2.9,2.9v1.1
		C2555.7,1662,2554.4,1663.3,2552.8,1663.3z"/>
</g>
</svg>
