<svg width="51" height="46" viewBox="0 0 51 46" fill="none" xmlns="http://www.w3.org/2000/svg">
<g clip-path="url(#clip0_59_711)">
<path d="M11.6667 10.0491C14.0997 9.82091 16.4723 9.14758 18.6655 8.06059L18.69 8.04845L18.7143 8.03586C20.6742 7.01958 22.4884 5.74658 24.1093 4.25154C25.7216 5.74416 27.5266 7.01614 29.4773 8.03292L29.504 8.04679L29.5308 8.06012C31.7336 9.1528 34.1176 9.82764 36.5622 10.0526V23.2575C36.5622 28.2258 33.7102 32.9222 30.3702 36.6548C27.8139 39.5115 25.209 41.5389 24.0845 42.3627C22.9401 41.5229 20.3501 39.5058 17.8102 36.6647C14.4782 32.9376 11.6408 28.2467 11.6667 23.2732L11.6667 23.2653V23.2575V10.0491Z" fill="white" stroke="black" stroke-width="6"/>
<path d="M18.1335 7.21871C13.5943 9.27108 10.6235 9.12844 10.6235 9.12844V23.2573C10.6235 34.47 24.0908 43.5512 24.0908 43.5512V2.89209C22.3451 4.63895 20.3346 6.09914 18.1335 7.21871Z" fill="#DE1F26"/>
<path d="M30.0245 7.21871C27.8294 6.09705 25.8244 4.637 24.083 2.89209V43.5512C24.083 43.5512 37.5503 34.47 37.5503 23.2573V9.12844C37.5503 9.12844 34.5637 9.279 30.0245 7.21871Z" fill="#DE1F26"/>
<path d="M43.8796 15.3808L39.776 14.6914L22.6567 18.0513L36.4567 31.1975L41.5426 29.1293L43.8796 28.2418V15.3808Z" fill="#D4A47D"/>
<g style="mix-blend-mode:multiply" opacity="0.3">
<path d="M39.8157 14.6914L37.5896 15.1272C38.7779 18.3841 38.9997 21.6013 37.1381 24.3986C36.7517 24.6509 36.3003 24.7852 35.8389 24.7852C35.3775 24.7852 34.926 24.6509 34.5397 24.3986C31.9413 22.3145 29.335 18.6694 26.2137 19.7153C25.8212 19.8759 25.4553 20.095 25.1284 20.3651L36.4964 31.1975L41.5902 29.1293L43.9192 28.2418V15.3808L39.8157 14.6914Z" fill="#FFC89F"/>
</g>
<path d="M7.65244 15.3174L13.1978 16.0623C13.1978 16.0623 20.6127 15.0083 24.1617 15.7532L25.5005 18.1305L33.4779 25.3177C32.7771 26.4886 31.9158 27.5555 30.9191 28.4874C29.9289 29.4225 20.383 31.3956 18.3946 29.5176C17.0875 28.2893 13.784 29.7711 13.784 29.7711L8.3971 27.5127L4.8877 26.8233L7.65244 15.3174Z" fill="#FFC89F"/>
<path d="M19.0999 28.9393C18.9302 28.8082 18.7888 28.6439 18.6843 28.4565C18.5799 28.2691 18.5146 28.0625 18.4924 27.8491C18.4702 27.6357 18.4915 27.4201 18.5551 27.2152C18.6186 27.0103 18.7231 26.8204 18.8622 26.6571C18.9927 26.4867 19.1565 26.3446 19.3435 26.2395C19.5306 26.1343 19.737 26.0682 19.9504 26.0452C20.1637 26.0223 20.3795 26.0429 20.5846 26.1058C20.7898 26.1688 20.98 26.2728 21.1438 26.4115L24.9463 29.7317C25.1166 29.8622 25.2587 30.026 25.3638 30.2131C25.469 30.4002 25.535 30.6067 25.558 30.8202C25.581 31.0336 25.5603 31.2494 25.4974 31.4546C25.4345 31.6598 25.3305 31.8501 25.1919 32.0139C25.0608 32.1837 24.8966 32.3251 24.7092 32.4295C24.5219 32.534 24.3153 32.5993 24.102 32.6215C23.8887 32.6438 23.6731 32.6224 23.4682 32.5589C23.2634 32.4953 23.0736 32.3907 22.9103 32.2516L22.4746 31.9109L19.0999 28.9393Z" fill="#FFC89F"/>
<path d="M23.7658 29.811C23.5955 29.6804 23.4534 29.5166 23.3483 29.3295C23.2431 29.1424 23.1771 28.9359 23.1541 28.7225C23.1312 28.5091 23.1518 28.2933 23.2147 28.0881C23.2776 27.8829 23.3816 27.6926 23.5202 27.5288C23.6513 27.359 23.8155 27.2176 24.0029 27.1131C24.1902 27.0087 24.3968 26.9434 24.6101 26.9211C24.8234 26.8989 25.039 26.9202 25.2439 26.9838C25.4487 27.0474 25.6385 27.1519 25.8018 27.2911L29.6122 30.6113C29.7808 30.7424 29.9211 30.9062 30.0248 31.0929C30.1285 31.2796 30.1934 31.4853 30.2156 31.6978C30.2378 31.9102 30.2168 32.1249 30.154 32.329C30.0911 32.5331 29.9877 32.7224 29.8499 32.8856C29.7194 33.0559 29.5556 33.198 29.3686 33.3032C29.1815 33.4084 28.9751 33.4745 28.7617 33.4974C28.5484 33.5204 28.3326 33.4998 28.1275 33.4368C27.9223 33.3739 27.7321 33.2699 27.5684 33.1312L27.1326 32.7825L23.7658 29.811Z" fill="#FFC89F"/>
<path d="M27.2437 28.8598C26.8815 28.5664 26.6506 28.1413 26.6016 27.6777C26.5525 27.2141 26.6894 26.7501 26.9822 26.3874C27.2755 26.0252 27.7005 25.7941 28.164 25.7451C28.6274 25.6961 29.0913 25.833 29.4539 26.1259L33.5654 29.7156C33.9275 30.0089 34.1584 30.4341 34.2075 30.8976C34.2565 31.3612 34.1196 31.8253 33.8268 32.1879C33.6817 32.3665 33.5029 32.5146 33.3005 32.624C33.0982 32.7334 32.8762 32.8018 32.6474 32.8253C32.4186 32.8489 32.1875 32.8271 31.9671 32.7613C31.7467 32.6954 31.5414 32.5867 31.3631 32.4415L30.8878 32.077L27.2437 28.8598Z" fill="#FFC89F"/>
<path d="M31.6245 28.1626C31.446 28.0175 31.2979 27.8386 31.1885 27.6362C31.0792 27.4338 31.0108 27.2118 30.9873 26.9829C30.9637 26.7541 30.9855 26.5228 31.0513 26.3024C31.1172 26.0819 31.2258 25.8766 31.371 25.6982C31.981 24.9058 22.9738 15.7375 23.7263 16.3556L37.9858 29.0343C38.3358 29.3276 38.5574 29.7462 38.6033 30.2007C38.6492 30.6552 38.5157 31.1096 38.2314 31.467C38.0869 31.6461 37.9085 31.795 37.7064 31.9051C37.5043 32.0152 37.2825 32.0843 37.0537 32.1086C36.8249 32.1329 36.5936 32.1119 36.3729 32.0466C36.1522 31.9814 35.9466 31.8733 35.7677 31.7285L35.3003 31.3561L31.6245 28.1626Z" fill="#FFC89F"/>
<path d="M37.1697 20.2702C35.4719 19.9112 33.7397 19.7411 32.0046 19.7631L26.689 18.7884C23.5915 22.1086 20.3514 22.9961 18.9888 22.8773C17.8798 22.7822 17.4045 21.1815 17.555 20.9438C18.6957 18.8756 27.0613 13.606 27.0613 13.606L37.0271 15.2859L37.1697 20.2702Z" fill="#D4A47D"/>
<path d="M46.4544 20.912L44.7512 12.9561L38.9365 14.2002L40.6397 22.1561L42.343 30.104L48.1576 28.8599L46.4544 20.912Z" fill="#E1E1E1"/>
<path d="M5.36304 13.0747L3.60437 20.1748L1.8457 27.2749L7.03457 28.5586L8.79324 21.4664L10.5519 14.3584L5.36304 13.0747Z" fill="#E1E1E1"/>
<path d="M15.8359 30.7616C15.7379 31.1058 15.5085 31.3976 15.1972 31.574C14.886 31.7504 14.5178 31.7973 14.1723 31.7046C13.9933 31.6769 13.8216 31.6135 13.6675 31.5182C13.5133 31.423 13.3799 31.2977 13.275 31.15C13.1701 31.0022 13.0959 30.8349 13.0568 30.6579C13.0177 30.481 13.0145 30.298 13.0474 30.1197L13.5306 27.8693C13.6268 27.5239 13.8559 27.2308 14.1677 27.0541C14.4795 26.8773 14.8486 26.8314 15.1942 26.9263C15.3728 26.955 15.5438 27.0191 15.6974 27.1146C15.851 27.2102 15.984 27.3354 16.0887 27.4829C16.1934 27.6304 16.2677 27.7973 16.3073 27.9738C16.3468 28.1504 16.3509 28.333 16.3191 28.5111L15.8359 30.7616Z" fill="#D4A47D"/>
<path d="M18.6642 31.3004C18.6274 31.4859 18.5542 31.6623 18.4489 31.8194C18.3436 31.9765 18.2082 32.1113 18.0507 32.2159C17.8931 32.3204 17.7164 32.3928 17.5307 32.4288C17.3451 32.4648 17.1542 32.4637 16.9689 32.4256C16.7812 32.3847 16.6036 32.3064 16.4467 32.1955C16.2898 32.0846 16.1567 31.9433 16.0555 31.7799C15.9543 31.6165 15.8869 31.4345 15.8574 31.2446C15.8278 31.0547 15.8368 30.8608 15.8836 30.6744L16.4382 28.099C16.475 27.9135 16.5482 27.7371 16.6535 27.5799C16.7588 27.4228 16.8942 27.2881 17.0517 27.1835C17.2093 27.0789 17.386 27.0065 17.5716 26.9705C17.7573 26.9345 17.9482 26.9356 18.1335 26.9738C18.3212 27.0147 18.4988 27.0929 18.6557 27.2038C18.8126 27.3148 18.9457 27.4561 19.0469 27.6195C19.1481 27.7828 19.2155 27.9649 19.245 28.1548C19.2746 28.3447 19.2656 28.5386 19.2188 28.725L18.6642 31.3004Z" fill="#D4A47D"/>
<path d="M21.492 31.8396C21.4004 32.1924 21.1737 32.4949 20.8609 32.6817C20.5481 32.8686 20.1744 32.9247 19.8205 32.8381C19.4632 32.7742 19.1455 32.5719 18.9364 32.2752C18.7273 31.9785 18.6436 31.6113 18.7035 31.2532L19.2105 28.876C19.2548 28.7009 19.3333 28.5363 19.4414 28.3917C19.5495 28.2471 19.6851 28.1253 19.8405 28.0332C19.9958 27.9412 20.1677 27.8808 20.3465 27.8554C20.5252 27.83 20.7072 27.8402 20.882 27.8854C21.2393 27.9493 21.5569 28.1515 21.7661 28.4483C21.9752 28.745 22.0589 29.1122 21.999 29.4703L21.492 31.8396Z" fill="#D4A47D"/>
<path d="M24.0908 32.4418C23.9925 32.7475 23.7777 33.0021 23.493 33.1505C23.2083 33.2988 22.8766 33.3289 22.5698 33.2342C22.2522 33.1926 21.9633 33.0284 21.765 32.7767C21.5667 32.5251 21.4746 32.2058 21.5083 31.8871L21.9282 29.9536C22.0282 29.6491 22.2433 29.3958 22.5274 29.2478C22.8116 29.0997 23.1424 29.0687 23.4491 29.1612C23.7668 29.2028 24.0556 29.367 24.2539 29.6187C24.4523 29.8704 24.5444 30.1896 24.5107 30.5083L24.0908 32.4418Z" fill="#D4A47D"/>
<path d="M48.6168 20.2624L46.8106 11.8311L40.6553 13.1465L42.4615 21.5778L44.2598 30.0013L50.423 28.6779L48.6168 20.2624Z" fill="#303030"/>
<path d="M45.8996 12.0288L40.6553 13.1461L42.4615 21.5775L43.9746 28.6617C48.704 25.4445 43.7052 17.1399 45.8996 12.0288Z" fill="#303030"/>
<path d="M3.92928 11.4106L1.96464 19.3665L0 27.3145L5.8147 28.7488L7.77933 20.8088L9.74397 12.8528L3.92928 11.4106Z" fill="#606060"/>
</g>
<defs>
<clipPath id="clip0_59_711">
<rect width="50.4231" height="46" fill="white"/>
</clipPath>
</defs>
</svg>
