<svg width="68" height="46" viewBox="0 0 68 46" fill="none" xmlns="http://www.w3.org/2000/svg">
<path d="M8.47181 23.861C8.51391 23.5831 8.69183 23.336 8.95932 23.2499V23.2499C9.27399 23.1486 9.46528 22.8302 9.40703 22.5048L9.39415 22.4329C9.33597 22.1079 9.04793 21.8749 8.71791 21.8859V21.8859C8.43626 21.8953 8.18456 21.7228 8.0486 21.4759C8.02315 21.4297 7.99669 21.3841 7.96923 21.3391C7.82217 21.0979 7.79863 20.7926 7.94907 20.5536V20.5536C8.12445 20.2749 8.06786 19.9096 7.81639 19.6971L7.75361 19.644C7.50202 19.4313 7.132 19.4373 6.88736 19.6579V19.6579C6.67992 19.8449 6.37894 19.8753 6.11881 19.7735C6.0664 19.753 6.01353 19.7337 5.96024 19.7156C5.69564 19.6257 5.48516 19.408 5.44777 19.1311V19.1311C5.40374 18.8049 5.12529 18.5615 4.79614 18.5615H4.71261C4.38346 18.5615 4.10502 18.8049 4.06098 19.1311V19.1311C4.02359 19.408 3.81312 19.6257 3.54851 19.7156C3.49522 19.7337 3.44234 19.753 3.38993 19.7735C3.1298 19.8753 2.82882 19.8449 2.62138 19.6579V19.6579C2.37674 19.4373 2.00673 19.4313 1.75514 19.644L1.69236 19.6971C1.44089 19.9096 1.38431 20.2749 1.55968 20.5536V20.5536C1.71012 20.7926 1.68658 21.0979 1.53952 21.3391C1.51206 21.3841 1.48559 21.4297 1.46014 21.4759C1.32418 21.7228 1.07248 21.8953 0.790831 21.8859V21.8859C0.460812 21.8749 0.172776 22.1079 0.11459 22.4329L0.101712 22.5048C0.0434591 22.8302 0.234757 23.1486 0.54943 23.2499V23.2499C0.816921 23.336 0.994835 23.5831 1.03693 23.861C1.04514 23.9151 1.05453 23.969 1.06512 24.0227C1.11936 24.2978 1.03664 24.5898 0.81564 24.7622V24.7622C0.555529 24.9652 0.484394 25.3287 0.648778 25.6147L0.686212 25.6799C0.851659 25.9678 1.20476 26.0887 1.51197 25.9626V25.9626C1.7708 25.8564 2.06486 25.9288 2.27646 26.1119C2.3172 26.1471 2.35869 26.1815 2.4009 26.2149C2.62111 26.3894 2.74606 26.6672 2.68596 26.9417V26.9417C2.6158 27.2621 2.79287 27.5852 3.10074 27.6984L3.17907 27.7272C3.48815 27.8409 3.83353 27.7069 3.98507 27.4145V27.4145C4.11391 27.166 4.38687 27.0329 4.66678 27.0395C4.72516 27.0409 4.78358 27.0409 4.84196 27.0395C5.12187 27.0329 5.39483 27.166 5.52367 27.4145V27.4145C5.67521 27.7069 6.02059 27.8409 6.32967 27.7272L6.40801 27.6984C6.71587 27.5852 6.89295 27.2621 6.82278 26.9417V26.9417C6.76269 26.6672 6.88763 26.3894 7.10784 26.2149C7.15006 26.1815 7.19155 26.1471 7.23229 26.1119C7.44389 25.9288 7.73794 25.8564 7.99678 25.9626V25.9626C8.30399 26.0887 8.65709 25.9678 8.82254 25.6799L8.85997 25.6147C9.02436 25.3287 8.95322 24.9652 8.69311 24.7622V24.7622C8.47211 24.5898 8.38939 24.2978 8.44362 24.0227C8.45421 23.969 8.46361 23.9151 8.47181 23.861ZM4.77156 25.1996C4.76255 25.1951 4.7526 25.1928 4.74253 25.1927C4.37174 25.1897 4.00979 25.0783 3.7013 24.872C3.38856 24.6628 3.14481 24.3655 3.00087 24.0176C2.85693 23.6698 2.81927 23.2871 2.89265 22.9178C2.96603 22.5485 3.14715 22.2093 3.41312 21.9431C3.67908 21.6769 4.01794 21.4956 4.38685 21.4221C4.75575 21.3487 5.13812 21.3864 5.48562 21.5305C5.83312 21.6745 6.13014 21.9185 6.3391 22.2316C6.54807 22.5446 6.6596 22.9127 6.6596 23.2892C6.66334 23.7916 6.46843 24.2752 6.1174 24.6344C5.77005 24.9899 5.29773 25.195 4.80156 25.2064C4.79116 25.2067 4.78086 25.2043 4.77156 25.1996V25.1996Z" fill="#DE1F26"/>
<path d="M66.228 16.8741C66.2687 16.5731 66.4581 16.3027 66.7473 16.21V16.21C67.0796 16.1035 67.2821 15.7677 67.2212 15.4241L67.2051 15.3337C67.1435 14.986 66.8348 14.7369 66.4819 14.7501V14.7501C66.1828 14.7614 65.9143 14.58 65.7698 14.3178C65.7409 14.2654 65.7108 14.2136 65.6795 14.1625C65.5225 13.9056 65.4988 13.5801 65.6596 13.3255V13.3255C65.8487 13.0261 65.787 12.633 65.5152 12.4059L65.4515 12.3527C65.1812 12.1269 64.7857 12.135 64.5249 12.3717V12.3717C64.3047 12.5716 63.9847 12.6065 63.7076 12.4983C63.6481 12.4751 63.588 12.4531 63.5275 12.4326C63.2458 12.3368 63.023 12.1045 62.982 11.8098V11.8098C62.9333 11.4595 62.6338 11.1987 62.2801 11.1987H62.1939C61.8444 11.1987 61.5506 11.461 61.5111 11.8083V11.8083C61.4776 12.1022 61.2578 12.3364 60.9776 12.4314C60.9181 12.4516 60.859 12.4732 60.8004 12.4961C60.5214 12.605 60.1991 12.5714 59.9765 12.371V12.371C59.7137 12.1345 59.3169 12.1271 59.0455 12.3538L58.9849 12.4045C58.7121 12.6323 58.6502 13.0269 58.84 13.3274V13.3274C59.0003 13.5812 58.9782 13.9056 58.8218 14.1619C58.7899 14.2141 58.7591 14.2671 58.7295 14.3207C58.5853 14.5819 58.3169 14.7614 58.0187 14.7502V14.7502C57.6645 14.7369 57.3547 14.9869 57.2929 15.3359L57.279 15.4142C57.2171 15.7635 57.4228 16.1048 57.7606 16.213V16.213C58.0461 16.3046 58.2373 16.5669 58.2825 16.8633C58.2915 16.9222 58.3017 16.9809 58.3132 17.0394C58.3712 17.3345 58.2827 17.6472 58.0472 17.8342V17.8342C57.7677 18.0562 57.6928 18.4493 57.871 18.7585L57.9068 18.8207C58.0838 19.1278 58.4606 19.2567 58.7886 19.1223V19.1223C59.0671 19.0082 59.3836 19.0875 59.6092 19.2868C59.6539 19.3262 59.6995 19.3647 59.7458 19.4022C59.9788 19.5906 60.1101 19.8871 60.0468 20.1799V20.1799C59.9716 20.5273 60.1649 20.8768 60.4991 20.9977L60.5697 21.0233C60.9018 21.1435 61.2717 21.001 61.4374 20.6892V20.6892C61.5776 20.4254 61.8682 20.2837 62.1669 20.2904C62.1989 20.2911 62.231 20.2914 62.2631 20.2914C62.2927 20.2914 62.3223 20.2912 62.3519 20.2905C62.6508 20.2843 62.9419 20.4257 63.0822 20.6897V20.6897C63.2477 21.0013 63.6172 21.1435 63.949 21.0235L64.021 20.9974C64.3548 20.8766 64.5477 20.5277 64.4727 20.1808V20.1808C64.4093 19.8876 64.5412 19.5908 64.7753 19.4031C64.8233 19.3647 64.8704 19.3251 64.9166 19.2845C65.1425 19.0863 65.4584 19.0079 65.7365 19.1218V19.1218C66.0651 19.2565 66.4428 19.1274 66.6201 18.8196L66.6536 18.7613C66.8326 18.4508 66.7565 18.0559 66.475 17.8341V17.8341C66.2379 17.6472 66.1489 17.3334 66.2024 17.0363C66.2121 16.9824 66.2207 16.9284 66.228 16.8741ZM62.2422 18.2902C61.838 18.2916 61.4424 18.1727 61.1057 17.9488C60.7689 17.7248 60.5062 17.4058 60.3509 17.0322C60.1956 16.6586 60.1545 16.2472 60.2331 15.8503C60.3116 15.4533 60.5061 15.0886 60.792 14.8025C61.0779 14.5163 61.4422 14.3216 61.8388 14.243C62.2354 14.1644 62.6463 14.2054 63.0196 14.3609C63.3928 14.5164 63.7115 14.7794 63.9353 15.1164C64.159 15.4535 64.2777 15.8494 64.2763 16.2541C64.2763 16.7941 64.062 17.312 63.6806 17.6938C63.2991 18.0757 62.7817 18.2902 62.2422 18.2902Z" fill="#DE1F26"/>
<path d="M53.2004 35.3665C53.2004 35.9931 53.324 36.6136 53.5639 37.1923C53.8039 37.771 54.1556 38.2966 54.5989 38.7391C55.0422 39.1815 55.5683 39.532 56.1472 39.7705C56.7261 40.009 57.3463 40.1309 57.9722 40.129V39.118C57.0053 39.0762 56.0918 38.6624 55.4224 37.9628C54.7529 37.2632 54.3792 36.3318 54.3792 35.363C54.3792 34.3943 54.7529 33.4629 55.4224 32.7633C56.0918 32.0637 57.0053 31.6498 57.9722 31.6081V30.604C57.3463 30.6022 56.7261 30.724 56.1472 30.9625C55.5683 31.2011 55.0422 31.5516 54.5989 31.994C54.1556 32.4364 53.8039 32.962 53.5639 33.5408C53.324 34.1195 53.2004 34.7399 53.2004 35.3665Z" fill="#E58800"/>
<path d="M13.2914 35.5896C13.2895 36.5859 12.8933 37.5408 12.1896 38.2452C11.4858 38.9496 10.5319 39.3462 9.53662 39.3481V40.3522C10.7985 40.3522 12.0087 39.8504 12.9009 38.9573C13.7932 38.0641 14.2945 36.8527 14.2945 35.5896C14.2945 34.3266 13.7932 33.1152 12.9009 32.2221C12.0087 31.3289 10.7985 30.8271 9.53662 30.8271V31.8312C10.5319 31.8331 11.4858 32.2297 12.1896 32.9341C12.8933 33.6385 13.2895 34.5934 13.2914 35.5896Z" fill="#FFC436"/>
<path d="M11.2781 9.2041H56.2096C56.6715 9.2041 57.1144 9.38776 57.441 9.71468C57.7676 10.0416 57.9511 10.485 57.9511 10.9473V40.9169H9.53662V10.9334C9.5403 10.4735 9.7254 10.0336 10.0516 9.70974C10.3778 9.38583 10.8187 9.20409 11.2781 9.2041Z" fill="black"/>
<path d="M11.1875 11.9937V38.1421L56.2931 11.9937H11.1875Z" fill="white"/>
<path d="M11.1875 38.1421H56.2931V11.9937L11.1875 38.1421Z" fill="white"/>
<path d="M49.8633 3.66064H17.6172V38.1417H49.8633V3.66064Z" fill="#F6F6F6"/>
<path d="M19.3378 0H48.1497C48.606 0 49.0437 0.181458 49.3663 0.504454C49.689 0.82745 49.8703 1.26553 49.8703 1.72231V3.66078H17.6172V1.72231C17.6172 1.26553 17.7985 0.82745 18.1211 0.504454C18.4438 0.181458 18.8815 0 19.3378 0Z" fill="#DE1F26"/>
<path d="M48.0105 5.49463H19.1917V7.27272H48.0105V5.49463Z" fill="#DE1F26"/>
<path d="M48.0105 9.05078H19.1917V10.0758H48.0105V9.05078Z" fill="#8A8A8A"/>
<path d="M48.0105 13.144H19.1917V14.1691H48.0105V13.144Z" fill="#8A8A8A"/>
<path d="M48.0105 15.187H19.1917V16.212H48.0105V15.187Z" fill="#8A8A8A"/>
<path d="M48.0105 17.314H19.1917V18.339H48.0105V17.314Z" fill="#8A8A8A"/>
<path d="M48.0105 19.3569H19.1917V20.382H48.0105V19.3569Z" fill="#8A8A8A"/>
<path d="M48.0105 21.4067H19.1917V22.4318H48.0105V21.4067Z" fill="#8A8A8A"/>
<path d="M48.0105 23.5337H19.1917V24.5587H48.0105V23.5337Z" fill="#8A8A8A"/>
<path d="M48.0105 11.0938H27.2375V12.1188H48.0105V11.0938Z" fill="#8A8A8A"/>
<path d="M20.5431 11.0938H19.1917V12.0909H20.5431V11.0938Z" fill="black"/>
<path d="M22.5773 11.0938H21.2258V12.0909H22.5773V11.0938Z" fill="black"/>
<path d="M24.6046 11.0938H23.2532V12.0909H24.6046V11.0938Z" fill="black"/>
<path d="M26.6317 11.0938H25.2803V12.0909H26.6317V11.0938Z" fill="black"/>
<path d="M47.4949 2.50335C47.8643 2.50335 48.1637 2.20365 48.1637 1.83395C48.1637 1.46425 47.8643 1.16455 47.4949 1.16455C47.1256 1.16455 46.8262 1.46425 46.8262 1.83395C46.8262 2.20365 47.1256 2.50335 47.4949 2.50335Z" fill="white"/>
<path d="M44.1443 1.83401C44.1443 1.97192 44.1851 2.10674 44.2617 2.22141C44.3382 2.33607 44.447 2.42545 44.5743 2.47822C44.7016 2.531 44.8417 2.54481 44.9768 2.5179C45.1119 2.491 45.2361 2.42459 45.3335 2.32707C45.4309 2.22955 45.4972 2.10531 45.5241 1.97005C45.551 1.83479 45.5372 1.69458 45.4845 1.56717C45.4318 1.43976 45.3425 1.33085 45.2279 1.25423C45.1134 1.17761 44.9787 1.13672 44.8409 1.13672C44.6561 1.13672 44.479 1.21018 44.3483 1.34095C44.2177 1.47172 44.1443 1.64908 44.1443 1.83401Z" fill="white"/>
<path d="M42.1311 2.50335C42.5005 2.50335 42.7999 2.20365 42.7999 1.83395C42.7999 1.46425 42.5005 1.16455 42.1311 1.16455C41.7618 1.16455 41.4624 1.46425 41.4624 1.83395C41.4624 2.20365 41.7618 2.50335 42.1311 2.50335Z" fill="white"/>
<path d="M35.4204 40.0547V46C36.4216 45.9773 37.4025 45.932 38.3698 45.8697V39.5649C37.4775 39.8113 36.4735 39.978 35.4204 40.0547Z" fill="black"/>
<path d="M31.9348 40.0519C30.7871 39.978 29.6914 39.8122 28.7173 39.5649V45.8527C29.7825 45.9234 30.8565 45.9725 31.9348 46V40.0519Z" fill="black"/>
<path d="M33.1469 40.1458C32.7406 40.1449 32.3352 40.13 31.9351 40.1011V45.9719C32.5546 45.9887 33.1673 45.9998 33.7936 45.9998C34.4199 45.9998 34.8829 45.9998 35.4207 45.9775V40.1039C35.007 40.1338 34.5881 40.1497 34.168 40.1514L33.1469 40.1458Z" fill="#3E4651"/>
<path d="M33.082 40.931H34.127C34.5567 40.9268 34.9854 40.8871 35.4087 40.8125C36.4994 40.6305 37.5406 40.2246 38.4668 39.6201C39.4995 38.9996 40.3358 38.0995 40.8794 37.0236C41.4229 35.9478 41.6516 34.74 41.5389 33.5397C41.4135 32.5426 40.905 30.625 40.703 29.6349C40.2711 27.543 40.1596 26.4971 38.4668 26.4971V32.3264C38.4669 33.6149 37.9579 34.8512 37.0509 35.7656C36.144 36.68 34.9126 37.1983 33.6254 37.2075C32.3321 37.2075 31.0918 36.6932 30.1773 35.7779C29.2629 34.8625 28.7491 33.621 28.7491 32.3264V26.4971C27.0564 26.4971 27.0494 27.6546 26.5966 29.5373C26.3597 30.5204 25.8094 32.5217 25.684 33.5397C25.5715 34.7392 25.7994 35.9462 26.3417 37.0218C26.8839 38.0974 27.7183 38.998 28.7491 39.6201C29.6849 40.2334 30.7384 40.6443 31.8421 40.8264C32.2517 40.8961 32.6665 40.9311 33.082 40.931Z" fill="#DE1F26"/>
<path d="M37.2509 31.3561C37.293 31.0783 37.4709 30.8312 37.7384 30.745V30.745C38.053 30.6437 38.2443 30.3254 38.1861 29.9999L38.1732 29.928C38.115 29.603 37.827 29.37 37.497 29.381V29.381C37.2153 29.3904 36.9636 29.2179 36.8277 28.9711C36.8022 28.9248 36.7757 28.8792 36.7483 28.8342C36.6012 28.593 36.5777 28.2877 36.7281 28.0487V28.0487C36.9035 27.77 36.8469 27.4047 36.5954 27.1922L36.5327 27.1391C36.2811 26.9264 35.9111 26.9324 35.6664 27.153V27.153C35.459 27.3401 35.158 27.3704 34.8979 27.2687C34.8455 27.2482 34.7926 27.2288 34.7393 27.2107C34.4747 27.1208 34.2642 26.9032 34.2268 26.6262V26.6262C34.1828 26.3 33.9043 26.0566 33.5752 26.0566H33.4917C33.1625 26.0566 32.8841 26.3 32.84 26.6262V26.6262C32.8026 26.9032 32.5922 27.1208 32.3276 27.2107C32.2743 27.2288 32.2214 27.2482 32.169 27.2687C31.9089 27.3704 31.6079 27.3401 31.4004 27.153V27.153C31.1558 26.9324 30.7858 26.9264 30.5342 27.1391L30.4714 27.1922C30.2199 27.4047 30.1634 27.77 30.3387 28.0487V28.0487C30.4892 28.2877 30.4656 28.593 30.3186 28.8342C30.2911 28.8792 30.2646 28.9248 30.2392 28.9711C30.1032 29.2179 29.8515 29.3904 29.5699 29.381V29.381C29.2399 29.37 28.9518 29.603 28.8936 29.928L28.8808 29.9999C28.8225 30.3254 29.0138 30.6437 29.3285 30.745V30.745C29.596 30.8312 29.7739 31.0783 29.816 31.3561C29.8242 31.4102 29.8336 31.4642 29.8442 31.5179C29.8984 31.7929 29.8157 32.0849 29.5947 32.2573V32.2573C29.3346 32.4603 29.2634 32.8238 29.4278 33.1099L29.4653 33.175C29.6307 33.4629 29.9838 33.5838 30.291 33.4577V33.4577C30.5499 33.3515 30.8439 33.4239 31.0555 33.607C31.0962 33.6422 31.1377 33.6766 31.18 33.71C31.4002 33.8845 31.5251 34.1623 31.465 34.4368V34.4368C31.3949 34.7572 31.5719 35.0803 31.8798 35.1935L31.9581 35.2223C32.2672 35.336 32.6126 35.202 32.7641 34.9097V34.9097C32.893 34.6611 33.1659 34.528 33.4458 34.5346C33.5042 34.536 33.5626 34.536 33.621 34.5346C33.9009 34.528 34.1739 34.6611 34.3027 34.9097V34.9097C34.4543 35.202 34.7996 35.336 35.1087 35.2223L35.1871 35.1935C35.4949 35.0803 35.672 34.7572 35.6018 34.4368V34.4368C35.5417 34.1623 35.6667 33.8845 35.8869 33.71C35.9291 33.6766 35.9706 33.6422 36.0113 33.607C36.2229 33.4239 36.517 33.3515 36.7758 33.4577V33.4577C37.083 33.5838 37.4361 33.4629 37.6016 33.175L37.639 33.1099C37.8034 32.8238 37.7323 32.4603 37.4722 32.2573V32.2573C37.2512 32.0849 37.1684 31.7929 37.2227 31.5179C37.2333 31.4642 37.2427 31.4102 37.2509 31.3561ZM33.5506 32.6947C33.5416 32.6902 33.5317 32.6879 33.5216 32.6878C33.1508 32.6848 32.7888 32.5734 32.4804 32.3671C32.1676 32.1579 31.9239 31.8606 31.7799 31.5128C31.636 31.1649 31.5983 30.7822 31.6717 30.4129C31.7451 30.0436 31.9262 29.7045 32.1922 29.4382C32.4581 29.172 32.797 28.9907 33.1659 28.9173C33.5348 28.8438 33.9172 28.8815 34.2647 29.0256C34.6122 29.1697 34.9092 29.4136 35.1182 29.7267C35.3271 30.0397 35.4387 30.4078 35.4387 30.7843C35.4424 31.2868 35.2475 31.7703 34.8964 32.1296C34.5491 32.485 34.0768 32.6901 33.5806 32.7015C33.5702 32.7018 33.5599 32.6994 33.5506 32.6947V32.6947Z" fill="black"/>
</svg>
