<svg width="59" height="46" viewBox="0 0 59 46" fill="none" xmlns="http://www.w3.org/2000/svg">
<g clip-path="url(#clip0_59_735)">
<path d="M58.6895 0H0.422852V38.7929H58.6895V0Z" fill="black"/>
<path d="M56.1803 2.50684H2.93213V34.5314H56.1803V2.50684Z" fill="white"/>
<path d="M34.8201 38.793H24.3022V42.3025H34.8201V38.793Z" fill="#333333"/>
<path d="M37.0789 42.3022H22.0234V45.9998H37.0789V42.3022Z" fill="black"/>
<path d="M41.4803 18.3522C41.4823 20.7097 40.7845 23.0149 39.4749 24.9762C38.1653 26.9374 36.303 28.4666 34.1234 29.3702C31.9437 30.2739 29.5448 30.5114 27.2301 30.0527C24.9153 29.594 22.7887 28.4598 21.1193 26.7935C19.4499 25.1272 18.3127 23.0036 17.8516 20.6915C17.3904 18.3794 17.6261 15.9826 18.5287 13.8043C19.4313 11.626 20.9602 9.76406 22.9222 8.45405C24.8842 7.14404 27.1911 6.44483 29.5509 6.44482C32.713 6.44482 35.7457 7.69901 37.9826 9.93178C40.2194 12.1645 41.4775 15.1932 41.4803 18.3522Z" fill="#DE1F26"/>
<path d="M31.1194 18.4771V10.6016H27.9933V18.4771H25.4736L29.5512 23.6057L33.6391 18.4771H31.1194Z" fill="white"/>
<path d="M34.4439 23.606V25.1518H24.6683V23.606H23.79V26.1023H24.2292H24.6683H34.4439H35.3221V23.606H34.4439Z" fill="white"/>
<path d="M9.83274 6.86238C9.83274 7.06896 9.77141 7.27091 9.65653 7.44267C9.54165 7.61444 9.37837 7.74833 9.18733 7.82738C8.99628 7.90644 8.78607 7.9271 8.58326 7.8868C8.38044 7.8465 8.19414 7.74701 8.04793 7.60094C7.90171 7.45486 7.80213 7.26877 7.76179 7.06616C7.72144 6.86354 7.74216 6.65351 7.82129 6.46265C7.90043 6.2718 8.03442 6.10866 8.20636 5.99389C8.37829 5.87912 8.58043 5.81787 8.78722 5.81787C9.06451 5.81787 9.33044 5.92793 9.52651 6.12381C9.72258 6.3197 9.83274 6.58536 9.83274 6.86238Z" fill="#DE1F26"/>
<path d="M11.7351 7.87557C12.2895 7.87557 12.7388 7.42663 12.7388 6.87284C12.7388 6.31905 12.2895 5.87012 11.7351 5.87012C11.1808 5.87012 10.7314 6.31905 10.7314 6.87284C10.7314 7.42663 11.1808 7.87557 11.7351 7.87557Z" fill="black"/>
<path d="M14.6316 7.87557C15.186 7.87557 15.6353 7.42663 15.6353 6.87284C15.6353 6.31905 15.186 5.87012 14.6316 5.87012C14.0773 5.87012 13.6279 6.31905 13.6279 6.87284C13.6279 7.42663 14.0773 7.87557 14.6316 7.87557Z" fill="#DE1F26"/>
<path d="M49.9595 30.2696C49.9595 30.4762 50.0208 30.6781 50.1357 30.8499C50.2505 31.0217 50.4138 31.1556 50.6049 31.2346C50.7959 31.3137 51.0062 31.3343 51.209 31.294C51.4118 31.2537 51.598 31.1542 51.7443 31.0082C51.8905 30.8621 51.9901 30.676 52.0304 30.4734C52.0707 30.2708 52.0501 30.0607 51.9709 29.8699C51.8918 29.679 51.7578 29.5159 51.5859 29.4011C51.4139 29.2863 51.2118 29.2251 51.005 29.2251C50.7277 29.2251 50.4618 29.3351 50.2657 29.531C50.0696 29.7269 49.9595 29.9926 49.9595 30.2696Z" fill="#DE1F26"/>
<path d="M48.0774 31.2725C48.6318 31.2725 49.0811 30.8236 49.0811 30.2698C49.0811 29.716 48.6318 29.2671 48.0774 29.2671C47.5231 29.2671 47.0737 29.716 47.0737 30.2698C47.0737 30.8236 47.5231 31.2725 48.0774 31.2725Z" fill="black"/>
<path d="M45.1814 31.2725C45.7358 31.2725 46.1851 30.8236 46.1851 30.2698C46.1851 29.716 45.7358 29.2671 45.1814 29.2671C44.6271 29.2671 44.1777 29.716 44.1777 30.2698C44.1777 30.8236 44.6271 31.2725 45.1814 31.2725Z" fill="#DE1F26"/>
</g>
<defs>
<clipPath id="clip0_59_735">
<rect width="58.2667" height="46" fill="white" transform="translate(0.422852)"/>
</clipPath>
</defs>
</svg>
