<svg width="42" height="71" viewBox="0 0 42 71" fill="none" xmlns="http://www.w3.org/2000/svg">
<g clip-path="url(#clip0_59_682)">
<path d="M25.4596 55.3931H16.5363C16.5363 55.3931 13.6111 58.4626 14.0136 62.9812C14.0136 62.9812 14.842 62.0441 15.498 61.5567C15.5246 61.5374 15.5564 61.5264 15.5892 61.5252C15.6221 61.5239 15.6546 61.5324 15.6826 61.5497C15.7106 61.5669 15.733 61.592 15.7467 61.6219C15.7605 61.6518 15.7652 61.6852 15.7601 61.7177C15.6022 62.7331 15.7369 65.7983 20.9965 71.0016C26.2561 65.7997 26.3922 62.7331 26.2344 61.7177C26.2288 61.6852 26.2331 61.6518 26.2467 61.6217C26.2602 61.5917 26.2824 61.5664 26.3104 61.5491C26.3385 61.5318 26.371 61.5232 26.4039 61.5246C26.4368 61.526 26.4685 61.5371 26.495 61.5567C27.1525 62.0441 27.9794 62.9812 27.9794 62.9812C28.3848 58.4626 25.4596 55.3931 25.4596 55.3931Z" fill="url(#paint0_linear_59_682)"/>
<path d="M20.9746 51.9102C20.9746 51.9102 15.2617 56.452 20.9746 64.2737C26.686 56.452 20.9746 51.9102 20.9746 51.9102Z" fill="#FFE697"/>
<path d="M20.9747 54.8125C20.9747 54.8125 17.56 57.5266 20.9747 62.2004C24.3879 57.5266 20.9747 54.8125 20.9747 54.8125Z" fill="white"/>
<path d="M14.5654 53.3433L15.2127 54.5966C15.3482 54.8585 15.5528 55.0782 15.8044 55.2317C16.0559 55.3852 16.3446 55.4666 16.6391 55.467H25.2454C25.5399 55.4666 25.8286 55.3852 26.0801 55.2317C26.3317 55.0782 26.5363 54.8585 26.6718 54.5966L27.3205 53.3433H14.5654Z" fill="#303030"/>
<path d="M12.7261 50.9702L13.5616 52.5847C13.7363 52.9219 14 53.2046 14.3241 53.4018C14.6482 53.5991 15.0201 53.7033 15.3993 53.7032H26.4847C26.8639 53.7033 27.2359 53.5991 27.56 53.4018C27.884 53.2046 28.1478 52.9219 28.3224 52.5847L29.158 50.9702H12.7261Z" fill="#C7C7C7"/>
<path d="M28.8656 38.5977C28.8656 38.5977 42.8487 43.4093 41.9595 57.486C41.9595 57.486 30.1863 45.4706 23.7783 48.0411L28.8656 38.5977Z" fill="black"/>
<path d="M13.1346 38.5977C13.1346 38.5977 -0.848474 43.4093 0.0406752 57.486C0.0406752 57.486 11.8139 45.4706 18.2205 48.0411L13.1346 38.5977Z" fill="black"/>
<path d="M27.7329 11.6875C26.0793 7.46626 23.7882 3.52444 20.9398 0C18.12 3.48874 15.847 7.38719 14.1987 11.5613C17.3383 10.8085 22.0838 10.3008 27.7329 11.6875Z" fill="black"/>
<path d="M27.9182 12.1663L27.7314 11.6876C20.2504 9.7655 14.1929 11.5614 14.1929 11.5614L13.9554 12.1663C7.77624 28.1955 10.5784 45.6028 11.5732 50.5174C11.6514 50.9011 11.8596 51.2459 12.1626 51.4934C12.4656 51.7409 12.8447 51.8757 13.2357 51.8752H28.6394C29.0303 51.8757 29.4094 51.7409 29.7124 51.4934C30.0154 51.2459 30.2237 50.9011 30.3018 50.5174C31.2967 45.6028 34.0988 28.1955 27.9182 12.1663Z" fill="#DE1F26"/>
<path d="M20.6604 30.3902C23.8275 30.3902 26.3949 27.8183 26.3949 24.6458C26.3949 21.4732 23.8275 18.9014 20.6604 18.9014C17.4932 18.9014 14.9258 21.4732 14.9258 24.6458C14.9258 27.8183 17.4932 30.3902 20.6604 30.3902Z" fill="#C9C9C9"/>
<path d="M24.9218 25.5324C25.4091 23.1774 23.8983 20.8726 21.5473 20.3844C19.1963 19.8963 16.8955 21.4097 16.4082 23.7647C15.9209 26.1197 17.4317 28.4245 19.7827 28.9126C22.1336 29.4008 24.4345 27.8874 24.9218 25.5324Z" fill="white"/>
<path d="M20.9991 40.3516C16.3144 51.0353 20.9991 60.2713 20.9991 60.2713C20.9991 60.2713 25.6852 51.0353 20.9991 40.3516Z" fill="black"/>
</g>
<defs>
<linearGradient id="paint0_linear_59_682" x1="20.9994" y1="55.3931" x2="20.9994" y2="71.0002" gradientUnits="userSpaceOnUse">
<stop offset="0.01" stop-color="#F7BD6F"/>
<stop offset="0.45" stop-color="#F39958"/>
<stop offset="1" stop-color="#ED6637"/>
</linearGradient>
<clipPath id="clip0_59_682">
<rect width="42" height="71" fill="white"/>
</clipPath>
</defs>
</svg>
