<svg width="55" height="71" viewBox="0 0 55 71" fill="none" xmlns="http://www.w3.org/2000/svg">
<g clip-path="url(#clip0_59_695)">
<path d="M4.14196 61.4911C4.80458 62.9143 6.05061 64.0387 7.32569 64.8014L8.19159 65.3256L9.89433 66.3451L10.8975 66.9427C11.1615 67.1026 11.6024 67.0502 11.6895 66.6964C11.7766 66.3425 11.473 66.0568 11.2169 65.8472C10.9609 65.6375 10.7734 65.4461 10.5464 65.2522C10.0738 64.8459 9.61978 64.4161 9.14724 64.0072C9.04164 63.9181 8.94396 63.8159 8.83309 63.7294L9.20531 63.9915L10.1161 64.6441L11.2592 65.4697C11.6208 65.7318 11.9825 65.9939 12.3468 66.256C12.6108 66.4447 12.8748 66.6439 13.1388 66.8169C13.4028 66.9899 13.7724 67.0476 13.9809 66.8038C14.0262 66.7344 14.0568 66.6565 14.0709 66.575C14.085 66.4934 14.0822 66.4099 14.0628 66.3294C14.017 66.1202 13.9106 65.9288 13.7565 65.779C13.6219 65.6584 13.4925 65.5379 13.3737 65.4068C13.0288 65.0579 12.6649 64.728 12.2835 64.4187C11.8769 64.0701 11.4704 63.7242 11.0559 63.3834L10.0237 62.5316C9.86265 62.3979 9.70162 62.2695 9.53266 62.1358L14.3769 65.9127C14.699 66.1748 15.491 66.5863 15.8315 66.0359C15.8758 65.9079 15.894 65.7725 15.8849 65.6374C15.8759 65.5024 15.8398 65.3706 15.7787 65.2496C15.6519 65.0551 15.492 64.8839 15.3062 64.7437C14.9471 64.4213 14.6092 64.0885 14.2502 63.7792C13.4899 63.1475 12.7402 62.508 11.9587 61.8999C11.7845 61.7663 11.6182 61.6221 11.4308 61.4963C12.0114 61.9796 12.6215 62.4269 13.2576 62.8356C13.9809 63.3231 14.4429 63.732 15.0105 64.0649C15.1654 64.1846 15.3461 64.2672 15.5385 64.306C15.6694 64.3179 15.8014 64.3005 15.9248 64.2551C16.0481 64.2098 16.1597 64.1376 16.2512 64.0439C16.4334 63.7818 16.2512 63.2707 15.9873 63.0584C14.8218 62.0069 13.5706 61.0531 12.2465 60.2068C12.2465 60.2068 11.1298 59.5332 11.0374 59.4205C11.0374 59.4205 13.1837 60.5868 14.5907 60.33C14.5907 60.33 16.4387 59.4048 13.4318 58.781C13.4318 58.781 11.7344 58.0287 10.6784 57.515C9.27673 56.8558 7.68093 56.7272 6.19053 57.1533C6.19053 57.1533 4.22643 55.9529 3.71693 55.5283L1.83203 57.9501C1.83203 57.9501 3.65357 60.4401 4.14196 61.4911Z" fill="#E1AB81"/>
<path d="M51.6685 59.1085C51.8005 60.6811 51.2725 62.2537 50.5439 63.5485L50.0449 64.4265L49.0735 66.138C48.8799 66.4735 48.6889 66.8107 48.5006 67.1497C48.3475 67.4118 47.9383 67.5874 47.7086 67.3174C47.4789 67.0475 47.5766 66.6569 47.7086 66.3477C47.8406 66.0384 47.8934 65.7815 47.9937 65.5011C48.2049 64.9166 48.3844 64.3216 48.593 63.7345C48.6405 63.6061 48.6748 63.4725 48.7276 63.3388L48.5376 63.7529L48.0703 64.7672L47.4842 66.0436C47.2994 66.4473 47.1138 66.8509 46.9272 67.2545C46.7926 67.5481 46.6632 67.8469 46.5154 68.1326C46.386 68.3737 46.0798 68.641 45.7788 68.531C45.7045 68.4931 45.6388 68.4406 45.5857 68.3766C45.5325 68.3126 45.4932 68.2384 45.47 68.1588C45.4079 67.9536 45.4079 67.7349 45.47 67.5297C45.5254 67.3594 45.5729 67.1943 45.6152 67.0055C45.7435 66.5334 45.8959 66.068 46.0719 65.6112C46.2567 65.1106 46.4362 64.6073 46.6262 64.1094C46.7873 63.6952 46.9457 63.2785 47.1041 62.8644C47.1754 62.6678 47.2493 62.4686 47.3311 62.2799L44.9921 67.936C44.8364 68.3134 44.3586 69.0683 43.791 68.7564C43.6865 68.6658 43.6013 68.5554 43.5406 68.4316C43.4798 68.3078 43.4447 68.1731 43.4372 68.0356C43.4525 67.8045 43.5069 67.5777 43.5983 67.3646C43.7487 66.9086 43.8781 66.4525 44.0471 66.0043C44.3929 65.0817 44.7308 64.1565 45.103 63.247C45.1849 63.0452 45.2588 62.8382 45.3512 62.6416C45.0857 63.3463 44.7771 64.0343 44.4272 64.7017C44.0391 65.488 43.8411 66.062 43.5112 66.6281C43.4381 66.8085 43.3232 66.9692 43.1759 67.0973C43.0686 67.1721 42.9461 67.2226 42.817 67.2453C42.6879 67.2679 42.5554 67.2621 42.4288 67.2283C42.1384 67.0816 42.0566 66.5495 42.1648 66.2455C42.6587 64.7588 43.2768 63.3157 44.0127 61.9313C44.0127 61.9313 44.6516 60.799 44.6754 60.6549C44.6754 60.6549 43.3871 62.7202 42.0354 63.1841C42.0354 63.1841 39.9657 63.2864 42.273 61.2708C42.273 61.2708 43.3765 59.7847 44.0418 58.8228C44.9315 57.5644 46.2532 56.6717 47.7588 56.3119C47.7588 56.3119 48.8702 54.3042 49.1025 53.6909L53.1574 55.3919C53.1574 55.3919 51.5682 57.9553 51.6685 59.1085Z" fill="#E1AB81"/>
<path d="M22.7484 25.2925C22.7484 25.2925 23.7172 28.0026 20.9453 30.0522C20.9453 30.0522 27.2811 36.513 35.5968 30.0522C35.5968 30.0522 32.4289 29.7351 33.6169 23.5889L22.7484 25.2925Z" fill="#CE966D"/>
<path d="M55 52.9442L49.245 38.0045C47.9673 34.2854 44.6938 32.0366 41.2698 30.6448C39.4113 29.897 37.5502 29.1473 35.6864 28.396C29.443 35.166 21.6183 28.396 21.6183 28.396C20.4593 29.0277 19.3083 29.6698 18.1547 30.3067C14.9393 32.0811 11.1457 33.4047 9.15259 36.6705L0 52.5956C0 52.5956 0.836854 58.5793 3.19958 60.0969C3.19958 60.0969 3.87276 56.4275 8.78564 56.9517L7.99367 53.1748L16.0903 44.9947L17.3733 58.886H38.9572L40.6468 44.9947L47.4683 52.8079L44.4219 58.2255C49.5248 56.1287 51.679 59.5805 51.679 59.5805C51.679 59.5805 54.2344 56.514 54.9921 52.9389" fill="#DE1F26"/>
<path d="M37.6687 15.1622C37.6687 7.15247 33.2469 2.79639 27.806 2.79639C22.3651 2.79639 17.9565 7.16558 17.9459 15.1622C17.6344 15.1622 16.0056 15.2749 16.9322 17.1149C17.5424 17.9089 17.9091 18.8607 17.9882 19.8564C17.9882 19.8564 18.3393 20.6846 18.862 20.3046C19.9801 23.2146 21.9333 25.7352 24.4797 27.5543C24.4797 27.5543 28.1597 29.9525 30.8921 27.8164C33.7314 26.1403 35.8602 23.4967 36.882 20.378C37.3229 20.5248 37.6106 19.8538 37.6106 19.8538C37.6999 18.8599 38.0757 17.9127 38.693 17.1253C39.6091 15.2906 37.9829 15.1675 37.6687 15.1622Z" fill="#FFC89F"/>
<path d="M37.7743 15.2018C37.4496 15.8833 35.9633 16.819 36.1244 17.7023C35.9237 17.3904 36.1534 16.4337 36.1244 16.0537C36.0644 15.4118 35.954 14.7756 35.7944 14.1508C35.4723 12.8115 35.0763 11.6111 34.2923 10.4683C33.3709 9.11851 32.3229 8.23262 30.5146 8.32173C29.4269 8.37677 27.7902 8.63625 27.6106 9.9415C26.684 7.75297 22.7215 7.78443 21.4068 9.59553C20.636 10.6439 20.3192 11.8496 20.1397 13.1208C20.0288 13.8835 19.9839 14.6619 19.8361 15.4141C19.7463 15.8649 19.6777 16.798 19.4269 17.102C19.3313 16.6936 19.1499 16.3097 18.8947 15.9755C18.6395 15.6413 18.3162 15.3643 17.9459 15.1625C16.7368 14.5544 17.8298 8.65198 18.0885 7.77395C19.3345 3.55939 23.0462 1.09828 27.3018 0.652714C29.4401 0.427309 31.5573 -0.133583 33.7432 0.0262973C33.2368 0.398656 32.7721 0.823948 32.3572 1.29486C33.6006 1.09566 34.7754 0.707755 36.1033 0.804732C35.401 1.32893 35.7231 2.09688 35.372 2.86483C36.9111 2.77047 38.0515 4.66283 38.8461 5.74792C38.1069 5.55396 37.4127 5.17654 36.6814 4.96162C39.9311 5.89469 38.7484 13.1444 37.7743 15.2018Z" fill="black"/>
<path d="M21.6181 28.396L19.1128 29.7746C19.1128 29.7746 23.5531 33.79 28.1228 33.811H28.2707C32.8905 33.7454 36.0954 32.4402 37.8245 29.2583L35.6862 28.396C35.6862 28.396 32.1777 31.4861 29.1682 31.4049C29.1682 31.4049 25.9607 31.5622 21.6181 28.396Z" fill="#EDEEF0"/>
<path d="M44.3135 40.0356H11.1931C10.3271 40.0356 9.625 40.7327 9.625 41.5925V65.5746C9.625 66.4344 10.3271 67.1314 11.1931 67.1314H44.3135C45.1795 67.1314 45.8816 66.4344 45.8816 65.5746V41.5925C45.8816 40.7327 45.1795 40.0356 44.3135 40.0356Z" fill="black"/>
<path d="M10.0557 41.9199V55.3368C10.0557 61.4463 10.7394 66.4 11.5842 66.4H43.8941C44.7389 66.4 45.4226 61.4463 45.4226 55.3368V41.9199H10.0557Z" fill="#C7C7C7"/>
<path d="M20.0607 66.7275H15.0527V67.8991H20.0607V66.7275Z" fill="#606060"/>
<path d="M39.5646 66.7275H34.5566V67.8991H39.5646V66.7275Z" fill="#606060"/>
<path d="M5.93994 68.3735H49.6754C49.6754 68.3735 49.0735 70.2738 47.978 70.9945H9.89718C9.89718 70.9945 6.32009 70.6354 5.93994 68.3735Z" fill="black"/>
<path d="M32.6213 14.5437C32.1047 14.5764 31.5931 14.6643 31.0954 14.8058C30.9714 14.8425 30.8526 14.8844 30.7364 14.929C29.1496 15.4673 27.43 15.482 25.8341 14.9709C25.6538 14.8852 25.4687 14.81 25.2797 14.7455C24.7306 14.5672 24.1613 14.4572 23.5849 14.4179C19.3452 14.0903 18.6562 15.849 19.361 17.93C19.9919 19.7647 20.9978 20.7214 23.342 20.7214C25.6862 20.7214 26.8716 20.0923 27.323 17.93C27.3931 17.6064 27.4109 17.2737 27.3758 16.9445C27.5739 16.7641 27.832 16.6624 28.1009 16.659C28.3697 16.6556 28.6304 16.7508 28.833 16.9262C28.7718 17.297 28.7825 17.676 28.8647 18.0427C29.3135 20.2051 30.5041 20.8341 32.8457 20.8341C35.1873 20.8341 36.1931 19.8879 36.8267 18.0427C37.55 15.9748 36.8636 14.2135 32.6213 14.5437ZM26.7686 17.9746C26.3964 19.6599 25.4143 20.15 23.474 20.15C21.5337 20.15 20.7021 19.4135 20.1794 17.9746C19.588 16.3496 20.1583 14.9762 23.6693 15.233C25.6018 15.3746 27.1567 16.2159 26.7686 17.9746ZM36.0294 18.0873C35.5015 19.5262 34.6725 20.2627 32.7322 20.2627C30.7918 20.2627 29.8098 19.7726 29.4376 18.0873C29.0495 16.3286 30.6044 15.4873 32.5395 15.3457C36.0532 15.0889 36.6181 16.4623 36.0294 18.0873Z" fill="#333333"/>
<path d="M19.8575 17.414L18.8306 17.6761L18.4346 15.042H20.0713L19.8575 17.414Z" fill="#1F140F"/>
<path d="M36.3862 17.414L37.4131 17.6761L37.8091 15.042H36.1724L36.3862 17.414Z" fill="#1F140F"/>
</g>
<defs>
<clipPath id="clip0_59_695">
<rect width="55" height="71" fill="white"/>
</clipPath>
</defs>
</svg>
