<?xml version="1.0" encoding="UTF-8"?>
<svg xmlns="http://www.w3.org/2000/svg" xmlns:xlink="http://www.w3.org/1999/xlink" width="115px" height="50px" viewBox="0 0 115 50" version="1.1">
<g id="surface1">
<path style=" stroke:none;fill-rule:nonzero;fill:rgb(91.764706%,85.882353%,64.705882%);fill-opacity:1;" d="M 6.5625 11.46875 C 5.859375 11.492188 5.15625 11.375 4.5 11.121094 C 3.839844 10.867188 3.242188 10.480469 2.734375 9.988281 C 1.734375 8.839844 1.222656 7.339844 1.3125 5.8125 C 1.261719 5.066406 1.363281 4.324219 1.609375 3.621094 C 1.855469 2.917969 2.242188 2.273438 2.742188 1.730469 C 3.246094 1.1875 3.851562 0.75 4.527344 0.453125 C 5.203125 0.15625 5.933594 0 6.671875 0 C 7.375 -0.0234375 8.078125 0.0976562 8.734375 0.359375 C 9.394531 0.617188 9.992188 1.003906 10.5 1.503906 C 11.027344 2.074219 11.441406 2.75 11.710938 3.484375 C 11.980469 4.222656 12.105469 5.003906 12.074219 5.789062 C 12.152344 6.542969 12.066406 7.308594 11.820312 8.027344 C 11.574219 8.746094 11.171875 9.398438 10.644531 9.941406 C 10.117188 10.484375 9.476562 10.902344 8.773438 11.167969 C 8.066406 11.429688 7.3125 11.535156 6.5625 11.46875 Z M 6.5625 1.171875 C 5.972656 1.164062 5.390625 1.285156 4.851562 1.519531 C 4.3125 1.757812 3.828125 2.105469 3.429688 2.542969 C 3.03125 2.980469 2.730469 3.496094 2.542969 4.058594 C 2.355469 4.621094 2.285156 5.21875 2.339844 5.8125 C 2.300781 6.421875 2.382812 7.03125 2.582031 7.609375 C 2.78125 8.183594 3.09375 8.714844 3.5 9.167969 C 3.910156 9.554688 4.390625 9.855469 4.917969 10.046875 C 5.441406 10.242188 6.003906 10.328125 6.5625 10.296875 C 7.152344 10.363281 7.75 10.292969 8.308594 10.097656 C 8.871094 9.898438 9.378906 9.574219 9.800781 9.148438 C 10.222656 8.726562 10.542969 8.210938 10.738281 7.644531 C 10.933594 7.078125 11 6.472656 10.9375 5.878906 C 11 4.601562 10.558594 3.355469 9.710938 2.410156 C 9.320312 2.011719 8.851562 1.695312 8.335938 1.484375 C 7.820312 1.269531 7.269531 1.164062 6.714844 1.171875 Z M 6.5625 1.171875 "/>
<path style=" stroke:none;fill-rule:nonzero;fill:rgb(91.764706%,85.882353%,64.705882%);fill-opacity:1;" d="M 6.410156 47.96875 C 5.695312 47.964844 4.988281 47.816406 4.335938 47.53125 C 3.679688 47.246094 3.089844 46.828125 2.601562 46.308594 C 2.109375 45.785156 1.726562 45.167969 1.480469 44.492188 C 1.234375 43.816406 1.125 43.097656 1.160156 42.378906 L 1.160156 17.898438 C 1.132812 17.167969 1.253906 16.445312 1.515625 15.765625 C 1.773438 15.089844 2.171875 14.472656 2.675781 13.953125 C 3.183594 13.4375 3.789062 13.027344 4.457031 12.757812 C 5.125 12.484375 5.839844 12.355469 6.5625 12.371094 C 7.234375 12.367188 7.902344 12.5 8.527344 12.757812 C 9.148438 13.015625 9.714844 13.394531 10.191406 13.875 C 11.222656 14.960938 11.789062 16.414062 11.765625 17.917969 L 11.765625 42.488281 C 11.769531 43.234375 11.628906 43.972656 11.347656 44.664062 C 11.066406 45.355469 10.648438 45.980469 10.125 46.507812 C 9.636719 46.992188 9.054688 47.371094 8.414062 47.621094 C 7.777344 47.875 7.09375 47.992188 6.410156 47.96875 Z M 6.5625 13.542969 C 6 13.546875 5.445312 13.664062 4.933594 13.890625 C 4.417969 14.117188 3.953125 14.445312 3.570312 14.859375 C 3.1875 15.273438 2.894531 15.761719 2.703125 16.296875 C 2.515625 16.832031 2.4375 17.398438 2.472656 17.960938 L 2.472656 42.445312 C 2.4375 43.003906 2.519531 43.5625 2.703125 44.089844 C 2.890625 44.617188 3.179688 45.101562 3.554688 45.515625 C 3.929688 45.925781 4.386719 46.257812 4.890625 46.492188 C 5.394531 46.722656 5.941406 46.847656 6.496094 46.863281 C 7.015625 46.878906 7.539062 46.789062 8.023438 46.59375 C 8.507812 46.402344 8.949219 46.109375 9.316406 45.734375 C 9.730469 45.320312 10.058594 44.824219 10.28125 44.277344 C 10.503906 43.730469 10.613281 43.144531 10.609375 42.554688 L 10.609375 17.960938 C 10.621094 17.371094 10.519531 16.785156 10.304688 16.234375 C 10.089844 15.683594 9.769531 15.183594 9.359375 14.757812 C 9 14.375 8.566406 14.070312 8.082031 13.863281 C 7.601562 13.65625 7.085938 13.546875 6.5625 13.542969 Z M 6.5625 13.542969 "/>
<path style=" stroke:none;fill-rule:nonzero;fill:rgb(91.764706%,85.882353%,64.705882%);fill-opacity:1;" d="M 42.015625 48.476562 C 41.296875 48.46875 40.585938 48.3125 39.925781 48.023438 C 39.265625 47.730469 38.667969 47.308594 38.175781 46.78125 C 37.679688 46.253906 37.292969 45.632812 37.039062 44.953125 C 36.785156 44.269531 36.671875 43.546875 36.699219 42.820312 L 36.699219 30.027344 C 36.945312 27.664062 36.296875 25.296875 34.886719 23.398438 C 34.507812 22.988281 34.050781 22.664062 33.542969 22.4375 C 33.035156 22.214844 32.488281 22.097656 31.933594 22.09375 C 28.148438 22.09375 27.339844 26.511719 27.316406 30.136719 L 27.316406 42.597656 C 27.324219 43.34375 27.179688 44.085938 26.898438 44.777344 C 26.617188 45.464844 26.203125 46.09375 25.675781 46.621094 C 25.191406 47.105469 24.613281 47.484375 23.976562 47.738281 C 23.34375 47.992188 22.664062 48.117188 21.980469 48.101562 C 21.265625 48.089844 20.5625 47.933594 19.910156 47.640625 C 19.253906 47.351562 18.667969 46.929688 18.175781 46.402344 C 17.6875 45.878906 17.308594 45.257812 17.058594 44.582031 C 16.8125 43.90625 16.699219 43.1875 16.730469 42.464844 L 16.796875 17.320312 C 16.808594 16.636719 16.957031 15.957031 17.234375 15.332031 C 17.515625 14.703125 17.917969 14.140625 18.417969 13.679688 C 18.921875 13.214844 19.511719 12.859375 20.152344 12.636719 C 20.796875 12.410156 21.476562 12.320312 22.15625 12.371094 C 22.871094 12.339844 23.582031 12.449219 24.257812 12.695312 C 24.929688 12.941406 25.542969 13.320312 26.070312 13.808594 C 26.660156 14.421875 27.066406 15.1875 27.25 16.019531 C 28.171875 14.621094 29.425781 13.484375 30.898438 12.710938 C 32.371094 11.9375 34.011719 11.554688 35.671875 11.601562 C 37.164062 11.554688 38.652344 11.820312 40.039062 12.378906 C 41.429688 12.9375 42.6875 13.777344 43.742188 14.847656 C 45.089844 16.394531 46.113281 18.199219 46.761719 20.152344 C 47.40625 22.105469 47.660156 24.171875 47.503906 26.226562 L 47.503906 42.929688 C 47.511719 43.679688 47.371094 44.425781 47.089844 45.121094 C 46.808594 45.8125 46.390625 46.445312 45.863281 46.972656 C 45.359375 47.476562 44.757812 47.871094 44.09375 48.128906 C 43.433594 48.386719 42.722656 48.507812 42.015625 48.476562 Z M 31.910156 21.035156 C 32.605469 21.011719 33.296875 21.128906 33.941406 21.382812 C 34.589844 21.636719 35.175781 22.023438 35.671875 22.515625 C 37.339844 24.636719 38.125 27.332031 37.859375 30.027344 L 37.859375 42.820312 C 37.839844 43.386719 37.929688 43.957031 38.132812 44.488281 C 38.332031 45.019531 38.636719 45.507812 39.023438 45.917969 C 39.414062 46.332031 39.882812 46.660156 40.398438 46.886719 C 40.917969 47.113281 41.472656 47.234375 42.035156 47.238281 C 42.578125 47.253906 43.113281 47.160156 43.617188 46.960938 C 44.121094 46.765625 44.578125 46.46875 44.96875 46.089844 C 45.386719 45.667969 45.71875 45.164062 45.941406 44.609375 C 46.164062 44.054688 46.269531 43.460938 46.257812 42.863281 L 46.367188 26.160156 C 46.648438 22.316406 45.402344 18.515625 42.910156 15.597656 C 41.96875 14.671875 40.847656 13.945312 39.617188 13.46875 C 38.386719 12.988281 37.078125 12.765625 35.761719 12.816406 C 33.929688 12.738281 32.125 13.253906 30.605469 14.289062 C 29.085938 15.320312 27.9375 16.820312 27.316406 18.558594 L 26.246094 21.585938 L 26.246094 17.167969 C 26.269531 16.691406 26.195312 16.21875 26.027344 15.773438 C 25.863281 15.332031 25.609375 14.925781 25.285156 14.582031 C 24.867188 14.203125 24.378906 13.914062 23.847656 13.726562 C 23.320312 13.542969 22.757812 13.464844 22.199219 13.5 C 21.667969 13.4375 21.125 13.488281 20.613281 13.652344 C 20.101562 13.816406 19.628906 14.089844 19.230469 14.449219 C 18.828125 14.808594 18.507812 15.253906 18.289062 15.75 C 18.070312 16.242188 17.957031 16.78125 17.957031 17.320312 L 17.804688 42.578125 C 17.78125 43.140625 17.867188 43.703125 18.0625 44.234375 C 18.257812 44.761719 18.554688 45.246094 18.9375 45.660156 C 19.324219 46.070312 19.78125 46.402344 20.292969 46.628906 C 20.804688 46.859375 21.355469 46.984375 21.914062 46.996094 C 22.980469 47.011719 24.007812 46.609375 24.78125 45.867188 C 25.199219 45.449219 25.527344 44.949219 25.75 44.398438 C 25.96875 43.847656 26.078125 43.257812 26.070312 42.664062 L 26.070312 30.179688 C 26.246094 22.226562 29.765625 21.035156 31.910156 21.035156 Z M 31.910156 21.035156 "/>
<path style=" stroke:none;fill-rule:nonzero;fill:rgb(91.764706%,85.882353%,64.705882%);fill-opacity:1;" d="M 67.144531 49.515625 L 66.816406 49.515625 C 56.929688 49.382812 50.085938 41.515625 50.152344 30.402344 C 50.152344 19.753906 57.457031 11.710938 67.015625 11.710938 C 72.808594 11.710938 77.117188 13.675781 79.832031 17.542969 C 80.773438 18.707031 81.269531 20.171875 81.230469 21.675781 C 81.261719 22.324219 81.167969 22.976562 80.949219 23.589844 C 80.730469 24.203125 80.394531 24.765625 79.957031 25.246094 C 79.523438 25.726562 78.996094 26.117188 78.414062 26.390625 C 77.828125 26.664062 77.195312 26.820312 76.550781 26.84375 C 75.824219 26.832031 75.109375 26.675781 74.445312 26.386719 C 73.78125 26.09375 73.179688 25.671875 72.679688 25.144531 L 72.175781 24.746094 C 71.554688 23.996094 70.777344 23.394531 69.902344 22.976562 C 69.023438 22.5625 68.070312 22.34375 67.101562 22.335938 C 62.859375 22.335938 61.328125 26.757812 61.304688 30.601562 C 61.285156 34.445312 63.078125 38.863281 67.035156 38.910156 C 69.09375 38.796875 71.03125 37.886719 72.4375 36.367188 C 73.375 35.441406 74.625 34.910156 75.9375 34.886719 C 76.582031 34.894531 77.214844 35.027344 77.808594 35.285156 C 78.398438 35.539062 78.933594 35.910156 79.382812 36.378906 C 79.828125 36.84375 80.179688 37.398438 80.414062 38.003906 C 80.648438 38.605469 80.765625 39.253906 80.75 39.902344 C 80.753906 40.816406 80.574219 41.722656 80.230469 42.570312 C 79.886719 43.414062 79.378906 44.183594 78.738281 44.828125 C 77.238281 46.390625 75.433594 47.613281 73.433594 48.417969 C 71.4375 49.226562 69.292969 49.601562 67.144531 49.515625 Z M 67.015625 12.882812 C 58.113281 12.882812 51.355469 20.414062 51.308594 30.402344 C 51.308594 40.832031 57.632812 48.210938 66.816406 48.34375 C 68.875 48.484375 70.9375 48.164062 72.855469 47.398438 C 74.773438 46.632812 76.5 45.445312 77.90625 43.925781 C 78.953125 42.820312 79.527344 41.34375 79.503906 39.8125 C 79.515625 39.316406 79.429688 38.820312 79.25 38.355469 C 79.070312 37.890625 78.804688 37.46875 78.460938 37.109375 C 78.121094 36.75 77.710938 36.460938 77.257812 36.261719 C 76.808594 36.0625 76.320312 35.957031 75.828125 35.949219 C 74.8125 36.019531 73.851562 36.453125 73.117188 37.164062 C 71.488281 38.871094 69.273438 39.882812 66.925781 39.992188 C 62.179688 39.992188 60.035156 35.042969 60.058594 30.511719 C 60.082031 25.984375 62.246094 21.078125 67.015625 21.078125 C 68.132812 21.085938 69.242188 21.332031 70.257812 21.804688 C 71.277344 22.277344 72.183594 22.964844 72.917969 23.816406 C 73.039062 23.960938 73.171875 24.09375 73.3125 24.214844 C 73.710938 24.636719 74.191406 24.976562 74.71875 25.210938 C 75.25 25.449219 75.820312 25.574219 76.398438 25.585938 C 76.902344 25.578125 77.398438 25.464844 77.855469 25.257812 C 78.316406 25.050781 78.730469 24.75 79.070312 24.375 C 79.414062 24.003906 79.675781 23.5625 79.84375 23.082031 C 80.011719 22.601562 80.082031 22.09375 80.050781 21.585938 C 80.078125 20.332031 79.660156 19.109375 78.867188 18.140625 C 76.398438 14.582031 72.308594 12.792969 66.992188 12.792969 Z M 67.015625 12.882812 "/>
<path style=" stroke:none;fill-rule:nonzero;fill:rgb(91.764706%,85.882353%,64.705882%);fill-opacity:1;" d="M 99.425781 50 L 99.144531 50 C 89.847656 49.867188 83.636719 42.90625 83.679688 32.722656 L 83.679688 18.09375 C 83.664062 17.351562 83.792969 16.609375 84.066406 15.917969 C 84.335938 15.222656 84.746094 14.59375 85.265625 14.0625 C 85.78125 13.535156 86.402344 13.113281 87.082031 12.832031 C 87.765625 12.550781 88.496094 12.40625 89.234375 12.417969 C 89.964844 12.410156 90.6875 12.546875 91.363281 12.824219 C 92.039062 13.101562 92.65625 13.511719 93.171875 14.03125 C 93.695312 14.574219 94.101562 15.21875 94.378906 15.921875 C 94.652344 16.628906 94.785156 17.382812 94.769531 18.140625 L 94.769531 33.074219 C 94.769531 35.882812 95.511719 39.21875 99.144531 39.261719 C 99.675781 39.292969 100.210938 39.21875 100.714844 39.035156 C 101.21875 38.851562 101.683594 38.570312 102.074219 38.203125 C 102.65625 37.507812 103.101562 36.703125 103.375 35.832031 C 103.648438 34.964844 103.75 34.050781 103.671875 33.140625 L 103.671875 18.117188 C 103.660156 17.363281 103.796875 16.613281 104.078125 15.910156 C 104.363281 15.210938 104.78125 14.578125 105.3125 14.042969 C 105.84375 13.511719 106.476562 13.09375 107.171875 12.8125 C 107.867188 12.535156 108.609375 12.398438 109.355469 12.417969 C 110.105469 12.402344 110.851562 12.539062 111.542969 12.828125 C 112.238281 13.113281 112.867188 13.539062 113.390625 14.078125 C 113.914062 14.617188 114.324219 15.261719 114.59375 15.96875 C 114.863281 16.671875 114.988281 17.429688 114.957031 18.183594 L 114.957031 32.964844 C 115.042969 35.332031 114.660156 37.691406 113.832031 39.90625 C 113.007812 42.121094 111.753906 44.148438 110.144531 45.867188 C 108.714844 47.238281 107.035156 48.308594 105.195312 49.015625 C 103.355469 49.726562 101.394531 50.058594 99.425781 50 Z M 89.324219 13.589844 C 88.164062 13.589844 87.050781 14.054688 86.230469 14.882812 C 85.410156 15.710938 84.949219 16.835938 84.949219 18.007812 L 84.949219 32.632812 C 84.949219 42.289062 90.527344 48.609375 99.273438 48.742188 C 101.117188 48.835938 102.957031 48.558594 104.691406 47.921875 C 106.421875 47.28125 108.007812 46.300781 109.355469 45.027344 C 110.84375 43.414062 111.996094 41.515625 112.75 39.441406 C 113.5 37.371094 113.835938 35.167969 113.730469 32.964844 L 113.730469 18.183594 C 113.753906 17.578125 113.65625 16.96875 113.4375 16.402344 C 113.21875 15.835938 112.886719 15.324219 112.464844 14.890625 C 112.054688 14.476562 111.570312 14.148438 111.039062 13.925781 C 110.507812 13.703125 109.933594 13.585938 109.355469 13.589844 C 108.769531 13.585938 108.1875 13.707031 107.648438 13.9375 C 107.105469 14.171875 106.617188 14.507812 106.207031 14.9375 C 105.800781 15.363281 105.480469 15.867188 105.269531 16.421875 C 105.058594 16.976562 104.960938 17.570312 104.984375 18.160156 L 104.984375 33.164062 C 105.144531 35.296875 104.46875 37.40625 103.101562 39.042969 C 102.605469 39.515625 102.015625 39.882812 101.371094 40.125 C 100.730469 40.363281 100.046875 40.46875 99.363281 40.433594 C 95.730469 40.433594 93.742188 37.78125 93.761719 33.074219 L 93.761719 18.117188 C 93.785156 17.515625 93.683594 16.914062 93.464844 16.351562 C 93.246094 15.789062 92.914062 15.277344 92.496094 14.847656 C 91.664062 14.027344 90.546875 13.574219 89.386719 13.589844 Z M 89.324219 13.589844 "/>
<path style=" stroke:none;fill-rule:nonzero;fill:rgb(92.54902%,84.705882%,47.45098%);fill-opacity:1;" d="M 9.777344 5.722656 C 9.851562 6.394531 9.78125 7.078125 9.566406 7.71875 C 9.351562 8.359375 8.996094 8.945312 8.53125 9.429688 C 8.0625 9.917969 7.496094 10.292969 6.867188 10.53125 C 6.238281 10.765625 5.566406 10.859375 4.898438 10.804688 C 4.246094 10.839844 3.589844 10.730469 2.980469 10.488281 C 2.371094 10.242188 1.824219 9.863281 1.375 9.382812 C 0.925781 8.902344 0.582031 8.324219 0.375 7.699219 C 0.167969 7.070312 0.101562 6.402344 0.175781 5.746094 C 0.117188 5.074219 0.199219 4.402344 0.414062 3.765625 C 0.628906 3.132812 0.972656 2.546875 1.421875 2.054688 C 1.875 1.5625 2.421875 1.171875 3.03125 0.902344 C 3.640625 0.636719 4.300781 0.503906 4.964844 0.507812 C 5.632812 0.488281 6.296875 0.613281 6.910156 0.875 C 7.527344 1.132812 8.082031 1.523438 8.535156 2.015625 C 8.992188 2.511719 9.335938 3.097656 9.550781 3.734375 C 9.765625 4.375 9.84375 5.050781 9.777344 5.722656 Z M 0.109375 17.808594 C 0.0820312 17.171875 0.183594 16.539062 0.40625 15.941406 C 0.628906 15.347656 0.964844 14.804688 1.402344 14.34375 C 1.835938 13.882812 2.359375 13.515625 2.9375 13.265625 C 3.515625 13.015625 4.136719 12.882812 4.769531 12.882812 C 5.398438 12.886719 6.019531 13.019531 6.597656 13.273438 C 7.175781 13.527344 7.695312 13.898438 8.128906 14.359375 C 8.5625 14.820312 8.898438 15.367188 9.117188 15.964844 C 9.335938 16.558594 9.433594 17.195312 9.40625 17.832031 L 9.40625 34.976562 C 9.40625 36.722656 6.691406 35.441406 7.675781 35.441406 C 9.273438 35.441406 5.992188 36.191406 5.972656 38.003906 C 5.972656 41.140625 8.769531 46 5.226562 45.957031 C 0.65625 45.890625 0 44.1875 0 35.683594 Z M 9.316406 42.421875 C 9.339844 43.058594 9.238281 43.691406 9.011719 44.289062 C 8.785156 44.882812 8.441406 45.421875 8 45.878906 C 7.5625 46.335938 7.035156 46.699219 6.453125 46.941406 C 5.871094 47.1875 5.246094 47.3125 4.613281 47.304688 C 3.984375 47.289062 3.363281 47.144531 2.789062 46.882812 C 2.210938 46.617188 1.695312 46.242188 1.265625 45.777344 C 0.835938 45.308594 0.5 44.761719 0.285156 44.160156 C 0.0664062 43.5625 -0.0273438 42.925781 0 42.289062 L 0 25.210938 C 0 23.488281 1.859375 20.945312 0.875 20.921875 C -0.699219 20.921875 0.875 21.078125 0.875 19.289062 C 0.875 16.152344 0.875 20.636719 4.332031 20.636719 C 8.75 20.660156 9.449219 15.886719 9.40625 24.457031 Z M 9.316406 42.421875 "/>
<path style=" stroke:none;fill-rule:nonzero;fill:rgb(92.54902%,84.705882%,47.45098%);fill-opacity:1;" d="M 15.660156 17.257812 C 15.65625 16.640625 15.78125 16.03125 16.027344 15.46875 C 16.269531 14.902344 16.628906 14.398438 17.078125 13.980469 C 17.527344 13.566406 18.054688 13.25 18.632812 13.050781 C 19.210938 12.855469 19.820312 12.78125 20.429688 12.835938 C 21.019531 12.757812 21.621094 12.8125 22.191406 12.996094 C 22.757812 13.175781 23.28125 13.480469 23.722656 13.886719 C 24.164062 14.289062 24.511719 14.789062 24.746094 15.34375 C 24.976562 15.898438 25.085938 16.5 25.066406 17.101562 L 25.066406 18.226562 C 25.722656 16.402344 26.9375 14.832031 28.53125 13.746094 C 30.128906 12.65625 32.023438 12.109375 33.945312 12.175781 C 40.789062 12.175781 45.1875 17.210938 45.121094 26.117188 L 45.121094 42.820312 C 45.140625 43.46875 45.03125 44.113281 44.796875 44.71875 C 44.566406 45.320312 44.214844 45.871094 43.761719 46.335938 C 43.3125 46.796875 42.777344 47.164062 42.183594 47.410156 C 41.589844 47.65625 40.949219 47.777344 40.308594 47.769531 C 39.664062 47.761719 39.027344 47.621094 38.4375 47.359375 C 37.84375 47.097656 37.3125 46.71875 36.871094 46.242188 C 36.425781 45.769531 36.082031 45.210938 35.859375 44.597656 C 35.632812 43.988281 35.535156 43.335938 35.5625 42.6875 L 35.5625 29.914062 C 35.5625 24.082031 33.550781 21.496094 30.226562 21.496094 C 26.902344 21.496094 25.019531 24.304688 25 30.136719 L 25 42.621094 C 25.019531 43.261719 24.910156 43.898438 24.683594 44.496094 C 24.453125 45.09375 24.105469 45.636719 23.660156 46.097656 C 23.21875 46.554688 22.6875 46.917969 22.101562 47.164062 C 21.515625 47.410156 20.886719 47.53125 20.253906 47.523438 C 19.617188 47.515625 18.988281 47.375 18.402344 47.113281 C 17.820312 46.851562 17.296875 46.476562 16.859375 46.007812 C 16.421875 45.535156 16.082031 44.984375 15.863281 44.378906 C 15.640625 43.773438 15.542969 43.132812 15.574219 42.488281 Z M 15.660156 17.257812 "/>
<path style=" stroke:none;fill-rule:nonzero;fill:rgb(92.54902%,84.705882%,47.45098%);fill-opacity:1;" d="M 78.367188 39.769531 C 78.371094 41.421875 77.734375 43.007812 76.59375 44.1875 C 75.125 45.753906 73.332031 46.96875 71.34375 47.753906 C 69.355469 48.535156 67.21875 48.867188 65.089844 48.71875 C 55.117188 48.5625 48.949219 40.433594 49.015625 30.160156 C 49.078125 19.886719 56.035156 12.0625 65.308594 12.0625 C 67.671875 11.917969 70.039062 12.367188 72.191406 13.371094 C 74.34375 14.371094 76.214844 15.898438 77.644531 17.808594 C 78.503906 18.875 78.960938 20.210938 78.933594 21.585938 C 78.957031 22.171875 78.867188 22.753906 78.664062 23.300781 C 78.464844 23.847656 78.15625 24.351562 77.761719 24.777344 C 77.367188 25.207031 76.894531 25.550781 76.367188 25.792969 C 75.839844 26.03125 75.269531 26.164062 74.691406 26.183594 C 74.039062 26.175781 73.394531 26.039062 72.796875 25.777344 C 72.203125 25.515625 71.664062 25.132812 71.214844 24.65625 C 70.503906 23.753906 69.609375 23.019531 68.589844 22.503906 C 67.570312 21.988281 66.449219 21.703125 65.308594 21.675781 C 60.933594 21.675781 58.945312 26.09375 58.921875 30.511719 C 58.898438 34.929688 60.847656 39.351562 65.21875 39.351562 C 67.425781 39.242188 69.5 38.273438 71.015625 36.65625 C 71.851562 35.835938 72.960938 35.363281 74.121094 35.328125 C 75.261719 35.363281 76.347656 35.847656 77.136719 36.675781 C 77.929688 37.507812 78.371094 38.617188 78.367188 39.769531 Z M 78.367188 39.769531 "/>
<path style=" stroke:none;fill-rule:nonzero;fill:rgb(92.54902%,84.705882%,47.45098%);fill-opacity:1;" d="M 102.621094 18.074219 C 102.574219 17.375 102.671875 16.675781 102.90625 16.019531 C 103.136719 15.363281 103.5 14.757812 103.972656 14.25 C 104.445312 13.738281 105.019531 13.332031 105.652344 13.054688 C 106.285156 12.777344 106.96875 12.632812 107.664062 12.632812 C 108.355469 12.632812 109.039062 12.777344 109.671875 13.054688 C 110.304688 13.332031 110.878906 13.738281 111.351562 14.25 C 111.824219 14.757812 112.1875 15.363281 112.417969 16.019531 C 112.652344 16.675781 112.75 17.375 112.703125 18.074219 L 112.703125 32.875 C 112.703125 42.773438 106.6875 49.449219 97.523438 49.316406 C 88.359375 49.183594 82.585938 42.398438 82.628906 32.613281 L 82.628906 18.007812 C 82.628906 16.675781 83.152344 15.402344 84.085938 14.460938 C 85.015625 13.519531 86.277344 12.992188 87.59375 12.992188 C 88.910156 12.992188 90.175781 13.519531 91.105469 14.460938 C 92.035156 15.402344 92.558594 16.675781 92.558594 18.007812 L 92.558594 32.964844 C 92.558594 37.117188 94.15625 39.59375 97.570312 39.726562 C 100.980469 39.859375 102.597656 37.207031 102.621094 33.097656 Z M 102.621094 18.074219 "/>
</g>
</svg>
